<svg width="60" height="68" viewBox="0 0 60 68" fill="none" xmlns="http://www.w3.org/2000/svg">
<path d="M60 30.8034C60 47.8154 46.5685 61.6067 29.9999 61.6067C13.4315 61.6067 0 47.8154 0 30.8034C0 13.791 13.4315 -0.000137329 29.9999 -0.000137329C46.5685 -0.000137329 60 13.791 60 30.8034Z" fill="#FF7070"/>
<path d="M29.7334 43.9246C27.8459 43.7973 24.0819 42.4761 22.8886 40.6117C21.6956 38.7474 19.8108 32.9593 19.8108 32.9593C19.8108 32.9593 19.3782 33.9003 18.4963 33.6338C17.6145 33.3677 17.8324 31.8902 16.267 29.4256C15.4924 28.2058 16.4494 26.8535 17.4588 26.7801C17.9589 26.7434 18.5655 27.3839 18.5655 27.3839C18.5655 27.3839 15.0144 16.7167 19.5272 12.6501C24.0399 8.58406 31.4795 7.99337 34.3343 9.31718C37.1895 10.641 38.3308 12.9648 38.3308 12.9648C38.3308 12.9648 43.1662 17.2641 43.1662 20.0065C43.1662 22.7488 42.6563 26.1742 41.551 27.8446C41.551 27.8446 42.063 27.1671 42.8919 27.8292C43.6649 28.4463 44.3689 29.318 43.1662 31.3814C42.4184 32.6642 42.3551 34.1079 41.3423 34.3282C40.6753 34.4736 40.0983 33.5516 40.0983 33.5516C40.0983 33.5516 38.1027 38.8615 37.1819 40.2798C36.2608 41.6982 30.9166 44.0044 29.7334 43.9246Z" fill="#F4C990"/>
<path d="M41.1338 28.8896L41.5515 27.8446C42.6568 26.1743 43.1667 22.7488 43.1667 20.0066C43.1667 11.6307 38.3314 12.9648 38.3314 12.9648C38.3314 12.9648 37.1901 10.641 34.3349 9.31723C31.48 7.99343 24.0405 8.58412 19.5277 12.6502C15.0149 16.7167 18.5661 27.3839 18.5661 27.3839L19.0701 28.4592L20.3593 28.239C19.6779 25.4253 21.4656 22.9769 20.2973 20.3602C23.2507 21.5979 30.1271 21.1904 33.7253 20.836C37.702 20.4447 39.9885 16.4163 39.9885 16.4163C39.9885 16.4163 37.9843 19.2926 38.9149 21.9044C39.5248 23.6155 40.6821 25.8432 39.6382 28.1443L41.1338 28.8896Z" fill="#076754"/>
<path d="M38.4585 33.3679L37.5508 32.7388C37.5508 32.7388 39.5273 28.8898 42.4528 25.7098C42.1536 26.816 41.134 28.8898 41.134 28.8898L38.4585 33.3679Z" fill="white"/>
<path d="M21.7879 33.4265C21.7879 33.4265 19.1601 29.8482 18.25 26.3059C20.8877 29.1061 22.5507 32.8535 22.5507 32.8535L21.7879 33.4265Z" fill="white"/>
<path d="M22.4333 39.3891C22.2802 39.3337 21.9395 39.0901 21.6627 38.046C21.074 36.6059 20.5043 34.9972 20.1562 33.9817C20.2042 37.9364 20.8172 39.9991 22.0721 40.4506C22.2424 40.5118 22.4105 40.5387 22.5744 40.5387C23.6129 40.5387 24.4766 39.4649 24.5848 39.3243L23.7278 38.6249C23.4928 38.9259 22.8402 39.5368 22.4333 39.3891Z" fill="white"/>
<path d="M38.2396 38.156H38.2367C37.9639 39.1337 37.6369 39.3662 37.4875 39.4204C37.0796 39.5684 36.4281 38.9572 36.193 38.6563L35.3359 39.356C35.4444 39.496 36.3076 40.5698 37.3465 40.5698C37.5103 40.5698 37.6785 40.5431 37.8486 40.4819C39.0569 40.0472 39.6701 38.1193 39.7569 34.4475C39.3965 35.3759 38.805 36.8697 38.2396 38.156Z" fill="white"/>
<path d="M38.7522 32.0055C36.591 31.9071 34.9406 32.4164 33.8746 31.8683C31.3816 30.5866 29.3779 30.2288 26.4033 31.656C25.323 32.1741 23.7332 32.1774 21.5723 32.2763C21.5723 32.2763 21.8374 38.369 23.0781 39.5837C23.0781 39.5837 25.6421 42.4013 29.9001 42.1894C34.9945 41.9358 36.6944 39.8103 36.6944 39.8103C37.9353 38.596 38.7522 32.0055 38.7522 32.0055Z" fill="white"/>
<path d="M56.678 56.1322C50.0063 63.4372 40.5216 68 29.9993 68C19.4844 68 10.006 63.4438 3.33594 56.1486C3.61784 55.7426 3.90914 55.4053 4.20603 55.1575C6.53201 53.2236 11.9034 51.3687 16.2279 49.4788C16.2732 49.4595 16.3176 49.4394 16.3629 49.4199C16.4074 49.4004 16.4528 49.3806 16.4972 49.3604C16.8118 49.2219 17.1201 49.0828 17.4205 48.943C17.4739 48.9184 17.5272 48.8934 17.5798 48.8685C17.9901 48.6771 18.3852 48.4844 18.761 48.2909C18.7997 48.2716 18.8385 48.2514 18.8763 48.2308C18.9777 48.1787 19.0778 48.1252 19.1763 48.0725C19.1902 48.0653 19.2049 48.0579 19.2186 48.0499C19.2516 48.0324 19.2836 48.0152 19.3158 47.997C19.4538 47.9215 19.5888 47.8466 19.7202 47.7706C19.7298 47.7652 19.7382 47.7603 19.7471 47.755C19.7837 47.7341 19.8194 47.7133 19.8551 47.6922C19.8757 47.6799 19.8962 47.6678 19.9158 47.656C20.0005 47.6059 20.0831 47.5563 20.1633 47.506C20.2202 47.472 20.2763 47.4365 20.3312 47.4014C20.3845 47.3669 20.4369 47.333 20.4889 47.2984C20.5101 47.2845 20.5311 47.2709 20.5517 47.2574C20.5611 47.2513 20.5705 47.2449 20.5793 47.2384C20.5889 47.2323 20.5984 47.2258 20.6078 47.2199C20.6247 47.2086 20.6415 47.1966 20.6582 47.1855C20.7072 47.1514 20.7547 47.1185 20.8014 47.0858C20.8377 47.0602 20.873 47.0345 20.9077 47.0092C20.943 46.9838 20.9773 46.9582 21.0115 46.9327C21.0401 46.9117 21.0678 46.8898 21.0956 46.8692C21.1058 46.8608 21.1158 46.8535 21.1263 46.8448C21.1525 46.8246 21.178 46.8045 21.2035 46.7844C21.2196 46.7718 21.2349 46.7598 21.2502 46.7469C21.2729 46.729 21.2947 46.7109 21.3167 46.6919C21.3387 46.6742 21.3606 46.6554 21.3824 46.6374C21.4502 46.5791 21.516 46.5214 21.5781 46.4637C21.5913 46.4507 21.6045 46.4388 21.6174 46.426C21.624 46.4198 21.63 46.414 21.6364 46.408C21.6437 46.4014 21.6511 46.3936 21.6583 46.3869C21.7664 46.2823 21.8657 46.177 21.9547 46.0712C21.9687 46.0552 21.9826 46.0385 21.9956 46.0221C22.0628 45.9386 22.1246 45.8548 22.1795 45.7716C22.1957 45.7476 22.2101 45.7237 22.2248 45.7001C22.227 45.6966 22.2286 45.6939 22.2307 45.6909C22.2453 45.6659 22.2597 45.6413 22.2737 45.6164C23.4571 43.4909 23.2836 43.4927 23.3822 41.218C23.4062 41.2423 23.4305 41.2662 23.4546 41.2901C23.5034 41.3377 23.5547 41.3847 23.6064 41.4315C23.6327 41.4544 23.6588 41.4778 23.6859 41.5008C23.713 41.5243 23.74 41.5466 23.7671 41.5698C23.7947 41.592 23.8224 41.6157 23.8508 41.6381C23.8669 41.6517 23.8836 41.6645 23.9005 41.6777C23.9246 41.6966 23.9487 41.7154 23.9736 41.7337C24.1933 41.902 24.4305 42.0621 24.6809 42.2142C24.7139 42.2347 24.7473 42.255 24.7808 42.2745C24.9173 42.3552 25.0568 42.4331 25.1991 42.5089C25.2386 42.5297 25.2781 42.5513 25.3183 42.5715C25.7708 42.8051 26.2476 43.0135 26.7227 43.1926C26.76 43.2062 26.7972 43.2201 26.8343 43.2337C26.8718 43.2475 26.9088 43.2609 26.9461 43.2745C27.0198 43.301 27.0944 43.3272 27.168 43.3516C27.2789 43.3892 27.3892 43.4249 27.4986 43.4595C27.5352 43.4704 27.5716 43.4821 27.6081 43.4934C28.0439 43.6258 28.4651 43.7302 28.8521 43.8049C28.9164 43.8169 28.9798 43.8288 29.042 43.8395C29.1404 43.856 29.2354 43.8706 29.328 43.883C29.3536 43.8869 29.3784 43.8894 29.4033 43.8928C29.4245 43.8958 29.4456 43.8977 29.466 43.9003C29.4953 43.9041 29.5237 43.9067 29.5514 43.9094C29.6142 43.9161 29.6748 43.9215 29.734 43.9251C29.7675 43.927 29.804 43.927 29.8442 43.9267C29.8558 43.9257 29.8684 43.9251 29.8807 43.9239C29.8807 43.9239 29.8807 43.9239 29.8815 43.9239C29.8968 43.9233 29.9135 43.9221 29.9304 43.9203C29.9443 43.9187 29.9588 43.9175 29.9733 43.9161C29.9894 43.9144 30.0055 43.9123 30.0229 43.91C30.1801 43.8887 30.3683 43.8503 30.5806 43.7946C30.6194 43.7849 30.6588 43.774 30.6991 43.7632C30.7465 43.7496 30.7946 43.7358 30.8442 43.7211C30.9188 43.6993 30.9946 43.6759 31.0733 43.6512C31.0996 43.6428 31.1261 43.635 31.1524 43.6258C31.3166 43.5728 31.4896 43.5132 31.6684 43.4491C31.7204 43.4303 31.7728 43.4108 31.8261 43.3904C31.9217 43.3547 32.019 43.3182 32.1174 43.2799C32.1698 43.2592 32.2233 43.2375 32.2773 43.2165C32.4001 43.1682 32.524 43.1171 32.6496 43.0644C32.7029 43.042 32.7568 43.0192 32.811 42.9961C33.3555 42.764 33.9169 42.5016 34.4497 42.2265C34.4805 42.2103 34.511 42.1941 34.5417 42.1785C34.5548 42.1715 34.5672 42.1651 34.5798 42.1584C34.6197 42.1375 34.6599 42.1163 34.7001 42.0947C34.739 42.0744 34.7768 42.0538 34.8149 42.0328C34.8447 42.0175 34.8747 42.0009 34.9046 41.9845C34.9337 41.9687 34.9638 41.952 34.993 41.9358C34.8506 44.7831 35.8714 47.0535 37.9746 48.0407C37.9936 48.0496 38.0132 48.0586 38.033 48.0677C38.0381 48.0699 38.044 48.0725 38.0489 48.0753C38.076 48.0872 38.1031 48.0997 38.1308 48.1116C38.1409 48.1164 38.1513 48.1206 38.1615 48.1252C38.1796 48.1336 38.1978 48.1417 38.2162 48.1493C38.2184 48.1509 38.2213 48.1516 38.2235 48.1522C38.2425 48.1604 38.2614 48.1688 38.2804 48.1771C38.2863 48.1791 38.2912 48.182 38.2973 48.1837C38.3104 48.1897 38.3243 48.1959 38.338 48.2008C38.3402 48.2026 38.3432 48.2033 38.3455 48.2046C38.4206 48.236 38.4981 48.2675 38.5783 48.2992C38.5921 48.3051 38.6058 48.3105 38.6207 48.3164C38.6317 48.3202 38.6417 48.3246 38.6527 48.3284C38.6541 48.3292 38.6556 48.33 38.658 48.3307C38.6805 48.3397 38.7045 48.3493 38.7286 48.3582C38.7425 48.3634 38.7565 48.369 38.771 48.3747C38.7908 48.3826 38.8112 48.3899 38.8324 48.398C38.8404 48.4011 38.849 48.4047 38.8586 48.4081C38.8673 48.4115 38.8761 48.4147 38.8849 48.4176C38.9067 48.4269 38.9295 48.4348 38.952 48.4428C38.9565 48.4446 38.9608 48.4461 38.9652 48.4474C38.9746 48.4515 38.9842 48.4551 38.9936 48.4589C39.011 48.4656 39.0287 48.4718 39.0469 48.4785C39.0813 48.4909 39.1164 48.5037 39.1519 48.5165C39.1782 48.5263 39.2054 48.5361 39.2331 48.5458C39.2637 48.5571 39.2959 48.5682 39.3281 48.5792C39.3608 48.5916 39.3937 48.6028 39.4273 48.6147C39.4836 48.6344 39.5405 48.6547 39.5989 48.6748C39.617 48.6809 39.6354 48.6874 39.6535 48.6936C39.7113 48.7129 39.7704 48.7336 39.8302 48.7535C39.8302 48.7535 39.8302 48.754 39.8309 48.754C39.8331 48.7547 39.8353 48.7558 39.8374 48.7558C39.8549 48.7622 39.8725 48.7683 39.8908 48.7745C39.901 48.7773 39.9112 48.7811 39.9209 48.7843C39.9492 48.7938 39.9777 48.8036 40.0062 48.813C40.204 48.8785 40.409 48.9459 40.6207 49.014C41.3749 49.2575 42.2136 49.5143 43.102 49.7871C43.3042 49.8491 43.5088 49.9115 43.716 49.9762C43.7679 49.9925 43.8199 50.0079 43.8717 50.0238C48.031 51.3088 53.0359 52.9452 55.7443 55.1575C56.0472 55.4053 56.3605 55.736 56.678 56.1322Z" fill="#CCCCCC"/>
<path d="M30.3236 56.797C35.803 56.797 40.7033 54.177 43.9752 50.0558C41.4366 49.2706 39.2007 48.6156 37.9752 48.0408C35.8718 47.0534 34.8509 44.7832 34.9938 41.9358C33.0615 43.0085 30.5083 43.9769 29.7345 43.9247C28.0587 43.8117 24.9044 42.7575 23.3827 41.2178C23.2841 43.4928 23.4576 43.491 22.2745 45.6162C21.5372 46.9415 19.1157 48.2178 16.2285 49.4789C19.492 53.9321 24.5917 56.797 30.3236 56.797Z" fill="#E6E6E6"/>
<path d="M40.6223 49.0142C39.532 48.6635 38.6159 48.3411 37.9759 48.0409C35.8725 47.0535 34.8515 44.7832 34.9944 41.9359C33.0621 43.0086 30.5089 43.9769 29.7351 43.9247C28.0593 43.8117 24.905 42.7576 23.3833 41.2178C23.2847 43.4928 23.4582 43.491 22.2751 45.6162C21.8103 46.4518 20.6759 47.2676 19.1777 48.0726C21.6152 51.4642 25.6748 53.6853 30.2721 53.6853C34.4288 53.6853 38.1463 51.8694 40.6223 49.0142Z" fill="#F4C990"/>
<path d="M23.6124 36.1558H23.6122L23.5938 36.2008C23.6236 36.4369 23.6561 36.672 23.6917 36.9027C24.2523 37.0926 25.4859 37.4616 27.2254 37.7057C28.145 37.8347 29.2844 37.9365 30.5875 37.9365C32.251 37.9365 34.1817 37.7697 36.2629 37.2812C36.3136 37.0436 36.362 36.799 36.408 36.5517C29.2269 38.3373 23.6805 36.1828 23.6124 36.1558Z" fill="#B7B7B7"/>
<path d="M23.3594 33.7326C23.3744 33.95 23.3919 34.1841 23.4122 34.4296C24.5334 34.6376 27.1715 35.0443 30.6789 35.0443C32.4911 35.0443 34.537 34.9349 36.7234 34.6342C36.7583 34.3937 36.7904 34.1611 36.8199 33.9399C30.1452 34.8896 24.7929 34.0121 23.3594 33.7326Z" fill="#B7B7B7"/>
<path d="M27.5528 39.6507C25.4181 39.274 24.1012 38.6162 24.0882 38.6096L24.0625 38.6581C24.1668 39.0034 24.284 39.2891 24.4158 39.4875C25.0273 39.7267 26.0528 40.0693 27.4033 40.3097C28.2648 40.4631 29.3318 40.5837 30.5533 40.5837C31.9528 40.5837 33.5547 40.4235 35.2788 39.9708C35.3613 39.8704 35.4003 39.8103 35.4003 39.8103C35.5233 39.6599 35.6411 39.4272 35.7532 39.1353C32.3839 40.1558 29.4482 39.9847 27.5528 39.6507Z" fill="#B7B7B7"/>
</svg>
