<svg width="69" height="68" viewBox="0 0 69 68" fill="none" xmlns="http://www.w3.org/2000/svg">
<path d="M65.4979 33.9996C65.4979 52.7771 50.8357 68 32.7481 68C14.6622 68 0 52.7771 0 33.9996C0 15.2221 14.6622 0 32.7481 0C50.8357 0 65.4979 15.2221 65.4979 33.9996Z" fill="#FF7070"/>
<path d="M44.9524 25.6662C44.8566 25.7795 43.2849 27.257 41.44 28.982C41.3286 29.0864 41.2154 29.1919 41.1023 29.2982C41.0066 29.3871 40.9091 29.4773 40.8134 29.5673C38.9092 31.3463 36.8659 33.2493 35.9086 34.1387C35.597 34.4302 35.4003 34.6123 35.3638 34.6478C35.3586 34.6517 35.3568 34.6539 35.3568 34.6539C35.3568 34.6539 36.3246 35.1355 39.9327 34.0706C40.373 33.9412 40.8517 33.7882 41.3738 33.6085C41.4034 33.5986 41.4347 33.5872 41.4643 33.5767C41.7567 33.4748 42.1518 33.3454 42.5609 33.261C42.9612 33.179 43.3772 33.14 43.7322 33.2119C43.7357 33.2126 43.7392 33.2135 43.7427 33.2139C43.7549 33.2164 43.7688 33.2197 43.781 33.2231C43.7879 33.2234 43.7949 33.2253 43.8001 33.2274C43.8158 33.2318 43.8315 33.2359 43.8471 33.2397C43.8837 33.2502 43.9202 33.2619 43.9568 33.2764C43.9742 33.2824 43.9916 33.2898 44.009 33.2977C44.0264 33.3053 44.0421 33.3131 44.0595 33.3219C44.0751 33.3297 44.0925 33.3375 44.1082 33.3463C44.1082 33.3472 44.1099 33.3472 44.1099 33.349C44.1256 33.3568 44.1413 33.3664 44.1552 33.376C44.1726 33.3863 44.1883 33.3966 44.2039 33.4081C44.2231 33.4215 44.2405 33.436 44.2579 33.4508C44.2614 33.4544 44.2648 33.4564 44.2683 33.4585C44.284 33.473 44.3014 33.4884 44.3171 33.5041C44.3519 33.5386 44.3832 33.5762 44.4128 33.6178C44.4215 33.6262 44.4267 33.6356 44.4337 33.6452C44.4476 33.6647 44.4598 33.6852 44.472 33.7059C44.9593 34.5531 44.472 35.5836 43.4381 36.2436C43.3719 36.2858 43.3058 36.3265 43.2362 36.365C43.2014 36.3838 43.1648 36.4031 43.13 36.4214C43.1231 36.4253 43.1144 36.4288 43.1091 36.4328C43.0796 36.4472 43.0499 36.4613 43.0204 36.4756C42.9838 36.4931 42.9473 36.5108 42.909 36.5276C42.8707 36.5442 42.8324 36.5605 42.7941 36.5762C42.7436 36.5976 42.6897 36.6176 42.6357 36.637C42.6096 36.6469 42.5835 36.6557 42.5557 36.6653C42.2876 36.7571 42.0283 36.8482 41.7794 36.9371C41.7115 36.9604 41.6471 36.9844 41.581 37.0081C41.473 37.0473 41.3686 37.0858 41.2642 37.1249C41.1893 37.1518 41.1145 37.18 41.0414 37.2078C40.984 37.2293 40.9265 37.2504 40.8691 37.2729C40.6219 37.367 40.3852 37.4595 40.1589 37.5504C40.0737 37.5846 39.9901 37.6189 39.9083 37.6532C39.7812 37.7062 39.6577 37.7577 39.5358 37.8088C39.3183 37.9019 39.1111 37.9928 38.9127 38.0828C38.7978 38.135 38.6865 38.1859 38.5785 38.2365C38.3958 38.3227 38.22 38.4077 38.0529 38.4912C37.9467 38.5441 37.8423 38.5965 37.7413 38.6489C37.5899 38.7279 37.442 38.8063 37.301 38.8835C37.2418 38.9154 37.1844 38.9474 37.1269 38.9792C37.0538 39.0199 36.9825 39.0607 36.9128 39.1014C36.8171 39.1545 36.7266 39.2078 36.6361 39.262C36.3889 39.408 36.1557 39.5524 35.9329 39.6945C35.8859 39.7236 35.8407 39.7543 35.7937 39.7836C35.6092 39.9032 35.4282 40.0214 35.2506 40.1394L35.1758 40.1891C35.0574 40.2675 34.9391 40.3464 34.8207 40.4238V40.4249C34.4952 40.639 34.168 40.8519 33.8164 41.0655V41.0666C33.7712 41.0937 33.7277 41.1197 33.6824 41.147C33.672 41.1544 33.6598 41.1612 33.6476 41.1674V41.1683C33.531 41.237 33.4126 41.3065 33.2891 41.3759C33.1898 41.4323 33.0872 41.4896 32.981 41.5472C32.9253 41.5774 32.8679 41.6079 32.8104 41.6387C32.746 41.6721 32.6799 41.7066 32.6155 41.7399C32.5824 41.7576 32.5476 41.7744 32.5145 41.791C32.4362 41.8316 32.3544 41.8716 32.2708 41.9121C32.2134 41.9401 32.156 41.969 32.0951 41.997C32.0603 42.0145 32.0237 42.0319 31.9871 42.0485C31.9332 42.074 31.8775 42.0996 31.8218 42.1249C31.6495 42.2041 31.4702 42.2838 31.2822 42.3636C31.2405 42.3812 31.1987 42.3994 31.1569 42.417C31.0734 42.4527 30.9863 42.4889 30.8976 42.5237C30.854 42.5422 30.8105 42.5604 30.7653 42.5778C30.5999 42.6452 30.4276 42.7111 30.2501 42.7789C30.2344 42.7849 30.2188 42.7908 30.2048 42.7964C30.0656 42.8488 29.9246 42.9018 29.7767 42.9544C29.7697 42.9576 29.761 42.9607 29.7523 42.963C29.7018 42.9822 29.6496 43.0006 29.5956 43.0198C29.3311 43.1139 29.0544 43.2086 28.7619 43.3051C28.6854 43.3315 28.6088 43.3566 28.5287 43.3824C28.1493 43.5059 27.7437 43.6322 27.3138 43.7601C27.3034 43.7636 27.2929 43.7668 27.2825 43.7697C27.1711 43.8026 27.0597 43.8364 26.9448 43.8694C26.8891 43.8864 26.8299 43.9031 26.7725 43.9197C26.7203 43.9352 26.6681 43.9506 26.6176 43.969C24.9832 44.5377 23.7562 46.5029 22.2802 48.5036C21.3246 49.7982 14.6184 59.8974 10.2914 66.4298C9.61784 65.9275 8.9634 65.4034 8.32462 64.8559C5.40053 62.3604 2.83846 59.4248 0.732422 56.1474C4.57552 51.7651 14.9125 39.9773 17.0255 37.565C17.821 36.6557 18.0281 35.3962 18.1412 33.9595C18.2108 33.0648 18.2457 32.1029 18.3623 31.1132V31.1125C18.451 30.3654 18.5851 29.6027 18.82 28.8425C20.1115 24.6523 18.3919 20.7997 17.4276 18.2158C17.0064 17.083 20.256 15.8665 22.1201 20.3488C23.4028 23.4367 23.5247 26.3424 24.6316 26.2691C26.4505 26.1469 27.6985 24.5206 29.6653 22.6718C32.6781 19.8401 35.2211 17.8072 35.7954 17.425C36.5943 16.892 37.5969 16.7441 38.0598 17.3526C38.0877 17.3914 38.1173 17.4299 38.1434 17.469V17.4697C38.1695 17.5078 38.1939 17.5454 38.2165 17.5839C38.2287 17.603 38.2391 17.6218 38.2496 17.6419C38.3279 17.783 38.3836 17.9256 38.4132 18.0734C38.4149 18.0839 38.4184 18.0938 38.4201 18.1043C38.4219 18.1157 38.4236 18.1276 38.4254 18.1385C38.4288 18.1625 38.4306 18.1856 38.4323 18.2097C38.4341 18.2241 38.4341 18.2389 38.4358 18.2534C38.4532 18.6052 38.314 18.9847 37.952 19.416C37.6648 19.7587 36.5439 20.9977 35.2123 22.4589C34.8851 22.8194 34.5422 23.1931 34.1976 23.5711C34.0114 23.7762 33.8234 23.9817 33.6354 24.1875C33.4736 24.3646 33.3117 24.5415 33.1516 24.7168C32.9636 24.9228 32.7773 25.127 32.5946 25.3267C31.0351 27.0282 29.7262 28.4545 29.6322 28.5571C29.7314 28.4671 31.3379 27.0107 33.2299 25.3003C33.4544 25.0979 33.6824 24.8912 33.9122 24.6832C34.7981 23.8847 35.7136 23.0594 36.5439 22.3147C38.1034 20.9146 39.3618 19.7962 39.5585 19.6551C40.2738 19.1412 41.386 18.7478 41.8803 19.0648V19.0642C41.8803 19.0647 41.8821 19.0651 41.8821 19.066C41.903 19.079 41.9221 19.0931 41.9412 19.1088C41.9604 19.1249 41.9778 19.1424 41.9935 19.1616C42.6514 19.9271 42.8811 20.4491 42.1414 21.5252C41.976 21.7648 41.3808 22.4161 40.5627 23.2761H40.561C40.051 23.8122 39.4523 24.4288 38.8187 25.0779C38.5333 25.3708 38.2409 25.6697 37.945 25.9702C37.6282 26.2922 37.3097 26.6171 36.9912 26.9373C36.6848 27.2481 36.3785 27.5566 36.0826 27.8573C35.4682 28.4751 34.8869 29.0588 34.3821 29.5649C34.0984 29.8504 33.8373 30.111 33.6093 30.3392C33.5136 30.4339 33.4248 30.5232 33.3413 30.6061C33.3256 30.6229 33.3082 30.6399 33.2925 30.6555C32.9044 31.0434 32.6607 31.2856 32.6259 31.3205C32.6242 31.3223 32.6224 31.323 32.6224 31.3239C32.6242 31.323 32.6259 31.3223 32.6277 31.3205C32.6364 31.3134 32.659 31.2968 32.6938 31.2709C32.7042 31.2623 32.7164 31.2527 32.7321 31.2417C32.7425 31.2343 32.753 31.2256 32.7652 31.2169C32.7913 31.1979 32.8174 31.1761 32.8504 31.1529C33.075 30.9834 33.4562 30.6972 33.94 30.3322C34.2516 30.0975 34.6066 29.8304 34.9896 29.5409C35.6858 29.0165 36.4777 28.4194 37.2853 27.8101C37.2853 27.8092 37.2853 27.8092 37.2853 27.8092C37.5203 27.6318 37.757 27.4521 37.9937 27.2741C40.3695 25.4783 42.6723 23.7307 42.8481 23.5704C43.3093 23.1487 44.0699 22.9078 44.6304 23.2059C44.7348 23.2618 44.8323 23.3369 44.921 23.4331C45.4206 23.9866 45.3944 25.1378 44.9524 25.6662Z" fill="#F4C990"/>
<path d="M43.4377 36.2436C43.3716 36.2858 43.3054 36.3265 43.2358 36.365C43.201 36.3838 43.1644 36.4031 43.1296 36.4214C43.1227 36.4253 43.114 36.4288 43.1087 36.4327C43.0792 36.4472 43.0496 36.4613 43.02 36.4756C42.9834 36.4931 42.9469 36.5108 42.9086 36.5276C42.8703 36.5442 42.832 36.5605 42.7937 36.5762C42.7432 36.5975 42.6893 36.6176 42.6353 36.6369C42.6092 36.6469 42.5831 36.6557 42.5553 36.6653C42.2872 36.7571 42.0279 36.8482 41.779 36.9371C41.7111 36.9604 41.6467 36.9844 41.5806 37.0081C41.4726 37.0473 41.3665 37.0858 41.2638 37.1248C41.1889 37.1518 41.1141 37.18 41.041 37.2078C40.9836 37.2293 40.9261 37.2515 40.8687 37.2728C40.6215 37.367 40.3848 37.4595 40.1585 37.5504C40.0733 37.5855 39.9897 37.6189 39.9079 37.6532C39.7808 37.7062 39.6573 37.7577 39.5354 37.8088C39.3179 37.9019 39.1107 37.9928 38.9123 38.0828C38.7974 38.135 38.6861 38.1859 38.5781 38.2365C38.3954 38.3227 38.2196 38.4077 38.0525 38.4911C37.9463 38.5446 37.8419 38.5972 37.7409 38.6489C37.5895 38.7279 37.4416 38.8063 37.3006 38.8835C37.2414 38.9154 37.184 38.9474 37.1265 38.9792C37.0534 39.0199 36.9821 39.0607 36.9125 39.1014C36.8167 39.1554 36.7262 39.2087 36.6357 39.262C36.3885 39.408 36.1553 39.5524 35.9325 39.6945C35.8855 39.7246 35.8403 39.7543 35.7933 39.7835C35.6088 39.9032 35.4278 40.0213 35.2502 40.1393L35.1754 40.189C35.0571 40.2675 34.9387 40.3464 34.8203 40.4238V40.4249C34.4949 40.639 34.1676 40.8519 33.816 41.0655V41.0665C33.7708 41.0936 33.7273 41.1197 33.682 41.147C33.6698 41.1544 33.6594 41.1612 33.6472 41.1683C33.5306 41.2369 33.4122 41.3065 33.2887 41.3759C33.1895 41.4323 33.0868 41.4896 32.9806 41.5472C32.9249 41.5774 32.8675 41.6079 32.81 41.6386C32.7456 41.6721 32.6795 41.7066 32.6151 41.7398C32.582 41.7576 32.5472 41.7744 32.5141 41.791C32.4358 41.8316 32.354 41.8716 32.2705 41.9121C32.213 41.9401 32.1556 41.969 32.0947 41.997C32.0599 42.0145 32.0233 42.0319 31.9867 42.0485C31.9311 42.074 31.8771 42.0996 31.8214 42.1249C31.6491 42.2041 31.4698 42.2838 31.2818 42.3636C31.2401 42.3812 31.1983 42.3994 31.1565 42.4169C31.073 42.4527 30.9859 42.4889 30.8972 42.5237C30.8537 42.5422 30.8101 42.5604 30.7649 42.5778C30.5995 42.6452 30.4272 42.7111 30.2497 42.7789C30.234 42.7849 30.2184 42.7908 30.2044 42.7964C30.0652 42.8488 29.9242 42.9018 29.7763 42.9544C29.7693 42.9576 29.7606 42.9607 29.7519 42.963C29.7014 42.9822 29.6492 43.0006 29.5953 43.0198C29.3307 43.1139 29.054 43.2086 28.7615 43.3051C28.685 43.3306 28.6066 43.3562 28.5283 43.3824C28.1489 43.5059 27.7433 43.6322 27.3134 43.7601C27.303 43.7636 27.2925 43.7668 27.2821 43.7697C27.1707 43.8026 27.0593 43.8364 26.9444 43.8694C26.8887 43.8864 26.8295 43.903 26.7721 43.9197C26.7199 43.9352 26.6677 43.9506 26.6172 43.969C24.9828 44.5377 23.7558 46.5028 22.2798 48.5036C21.3242 49.7982 14.618 59.8974 10.291 66.4298C9.61743 65.9275 8.96299 65.4034 8.32422 64.8559C12.176 59.6554 16.9816 52.9242 20.2939 48.4658C22.285 45.7849 23.7384 43.9255 24.1195 43.7142C24.7757 43.3488 25.4023 43.1361 26.0533 42.9686C26.1699 42.9385 26.2848 42.9095 26.4014 42.8824C26.5667 42.8436 26.7338 42.806 26.9044 42.7693C27.2612 42.6911 27.6302 42.6128 28.0201 42.5198C29.3377 42.2064 30.8885 41.7176 32.9736 40.4715C32.9997 40.4559 33.0259 40.4397 33.052 40.4238C33.5811 40.1039 34.145 39.7358 34.749 39.3092C34.9021 39.2008 35.0588 39.0876 35.2189 38.9706C35.9256 38.4512 37.4886 37.7866 39.0968 37.1288C39.9897 36.7627 40.8965 36.3999 41.678 36.0654C41.8469 35.9936 42.0105 35.9224 42.1654 35.8532H42.1671C42.3812 35.7576 42.5831 35.6648 42.7659 35.5766C42.8198 35.5507 42.8703 35.5263 42.919 35.5014C43.3629 35.2808 43.6866 35.0863 43.8293 34.9284C44.2714 34.4436 44.0295 33.7381 43.7319 33.2119C43.7353 33.2126 43.7388 33.2135 43.7423 33.2139C43.7545 33.2164 43.7684 33.2196 43.7806 33.2231C43.7875 33.2234 43.7945 33.2253 43.7997 33.2274C43.8154 33.2318 43.8311 33.2359 43.8467 33.2397C43.8833 33.2502 43.9198 33.2619 43.9564 33.2764C43.9738 33.2824 43.9912 33.2898 44.0086 33.2977C44.026 33.3053 44.0417 33.3131 44.0591 33.3219C44.0747 33.3297 44.0921 33.3375 44.1078 33.3463C44.1078 33.3472 44.1096 33.3472 44.1096 33.349C44.1252 33.3568 44.1409 33.3664 44.1548 33.376C44.1722 33.3863 44.1879 33.3966 44.2035 33.4081C44.2227 33.4215 44.2401 33.4359 44.2575 33.4508C44.261 33.4544 44.2645 33.4564 44.2679 33.4585C44.2836 33.473 44.301 33.4884 44.3167 33.5041C44.3515 33.5386 44.3828 33.5762 44.4124 33.6177C44.4211 33.6262 44.4263 33.6356 44.4333 33.6452C44.4472 33.6647 44.4594 33.6851 44.4716 33.7059C44.9589 34.5531 44.4716 35.5836 43.4377 36.2436Z" fill="#F4B07D"/>
<path d="M37.95 19.4156C38.594 18.6463 38.5313 18.0426 38.1414 17.4688C38.1884 17.9902 38.0091 18.6029 37.379 19.2748C35.4297 21.3516 29.625 28.5623 29.625 28.5623C29.625 28.5623 37.1354 20.3868 37.95 19.4156Z" fill="#F4B07D"/>
<path d="M41.3862 21.0887C40.1957 22.5682 32.6191 31.3258 32.6191 31.3258C32.6191 31.3258 41.428 22.5608 42.1399 21.5253C42.8796 20.4489 42.6498 19.9272 41.9919 19.1614C41.9606 19.1232 41.9223 19.0914 41.8788 19.064C41.9815 19.6693 41.931 20.4107 41.3862 21.0887Z" fill="#F4B07D"/>
<path d="M44.629 23.2058C44.6064 23.5734 44.4898 24.0439 44.173 24.6074C43.3393 26.0897 35.3555 34.6538 35.3555 34.6538C35.3555 34.6538 44.7143 25.948 44.951 25.6661C45.3931 25.1372 45.421 23.9865 44.9197 23.433C44.8309 23.3368 44.7335 23.2617 44.629 23.2058Z" fill="#F4B07D"/>
<path d="M20.2312 48.5605C20.2312 48.5605 25.1795 43.8608 30.8641 41.6047C22.7254 45.9855 22.1406 38.5089 22.1406 38.5089C18.0173 38.4442 18.1391 33.966 18.3602 31.1123C16.6335 41.4728 25.5642 40.418 20.2312 48.5605Z" fill="#F4B07D"/>
<path d="M43.4381 36.2434C43.3929 36.0694 43.3145 35.9028 43.1979 35.7486C42.5539 34.8966 40.9892 35.6184 40.2007 36.013C35.5692 38.3269 34.2708 37.8786 34.2708 37.8786L31.1535 34.934C31.1535 34.934 34.5301 33.6339 36.9703 30.3602C35.9103 30.398 34.8712 30.3246 33.9401 30.332C33.1394 30.9359 32.6207 31.3255 32.6207 31.3255C32.6207 31.3255 33.0019 30.9466 33.6094 30.3391C31.2492 30.4171 29.6932 31.2075 30.4799 36.1306C30.5303 36.7431 28.7237 37.2893 27.0075 38.115C26.461 38.3777 25.9214 39.5913 26.0119 40.3268C26.1442 41.4072 26.3479 42.7095 26.6176 43.9689C26.6699 43.951 26.7203 43.9345 26.7725 43.9195C36.1557 41.2061 33.6007 39.7209 42.5557 36.6652C42.8812 36.5548 43.177 36.4107 43.4381 36.2434Z" fill="#F4B07D"/>
<path d="M42.6428 35.2041C43.2328 37.18 44.5504 38.7808 44.6166 40.5463C44.681 42.312 45.0778 51.0613 44.1745 51.6352C43.2694 52.2097 37.7624 52.4664 37.7624 52.4664C37.7624 52.4664 38.5369 52.2252 38.4551 51.5804C38.3733 50.9353 38.2288 50.4892 37.5117 50.3681C36.7981 50.2474 35.1272 50.1373 35.1272 50.1373C35.1272 50.1373 36.1663 49.9433 36.5196 49.8408C37.1775 49.6503 37.2959 47.8894 36.2516 47.4768C35.4562 47.1639 34.4675 46.9683 34.4675 46.9683C34.4675 46.9683 35.4179 46.7835 35.6163 46.4163C35.9975 45.7105 35.4283 44.4941 35.0959 44.2271C34.6085 43.838 33.2666 43.4939 33.2666 43.4939C33.2666 43.4939 34.0568 43.1914 34.0533 42.8432C34.0498 42.4952 34.2848 40.5667 32.8227 40.3757C31.3589 40.1858 31.218 40.0217 31.218 40.0217L31.1066 37.0607L30.9116 31.7785C30.8698 30.6336 31.7297 29.6704 32.8314 29.6264L42.4496 29.2442C43.5514 29.2004 44.4791 30.0931 44.5226 31.2379L44.5783 32.7538C44.2284 32.22 43.9656 31.8118 43.8438 31.6197C43.292 30.7579 42.051 33.2291 42.6428 35.2041Z" fill="white"/>
<path d="M43.1805 38.6299C43.4207 41.6013 41.2973 44.2128 38.4358 44.4636C35.5726 44.7143 33.0576 42.5088 32.8156 39.5374C32.5737 36.5663 34.6989 33.9546 37.5603 33.7036C40.4235 33.4533 42.9386 35.6586 43.1805 38.6299Z" fill="white"/>
<path d="M41.4525 29.2839L41.4281 28.6254C41.4072 28.0851 40.9686 27.6634 40.4482 27.6843L34.7201 27.912C34.1979 27.9324 33.7924 28.3874 33.8133 28.9283L33.8376 29.5864L41.4525 29.2839Z" fill="#B3B3B3"/>
<path d="M38.0136 27.7809L37.025 27.8201L36.9258 25.1525L37.9144 25.1137L38.0136 27.7809Z" fill="#F2F2F2"/>
<path d="M40.6959 23.9066C40.6611 22.9375 39.8761 22.1823 38.9414 22.219L35.7441 22.3466C34.8111 22.3833 34.0818 23.199 34.1184 24.1681C34.1184 24.1681 31.619 24.2685 30.7244 24.3043C30.0891 24.3296 29.7653 24.5768 29.5217 24.8323C29.0413 25.3389 27.4922 26.9715 27.4922 26.9715L28.2441 27.7399C28.2441 27.7399 29.5408 26.4081 29.9446 25.9549C30.1482 25.7281 30.385 25.414 30.8497 25.3958C33.0584 25.3078 40.7376 25.0009 40.7376 25.0009L40.6959 23.9066Z" fill="#F2F2F2"/>
<path d="M42.4516 29.2442L40.7754 29.3108C41.7675 36.0618 42.7579 44.3512 42.1069 47.0003C41.7327 48.5255 39.8669 49.605 37.5137 50.3681C38.2308 50.4892 38.3752 50.9353 38.457 51.5804C38.5388 52.2252 37.7643 52.4664 37.7643 52.4664C37.7643 52.4664 43.2714 52.2097 44.1764 51.6352C45.0798 51.0613 44.6829 42.312 44.6185 40.5463C44.5524 38.7808 43.2348 37.18 42.6448 35.2041C42.053 33.2291 43.294 30.7579 43.8457 31.6197C43.9676 31.8118 44.2304 32.22 44.5802 32.7538L44.5245 31.2379C44.481 30.0931 43.5533 29.2004 42.4516 29.2442Z" fill="#B3B3B3"/>
<path d="M41.2108 37.7427L39.1221 37.8257L39.0421 35.6587L36.708 35.7512L36.7881 37.9185L34.7012 38.0015L34.7899 40.4251L36.8768 40.3422L36.9569 42.5092L39.2927 42.4159L39.2126 40.2493L41.2995 40.1663L41.2108 37.7427Z" fill="#FF2929"/>
<path d="M39.7802 22.4118C39.9612 23.3641 39.8776 24.4136 38.6575 24.4877C36.3913 24.6251 30.4579 24.7221 30.2647 25.015C30.1045 25.2557 28.5346 26.9019 27.9863 27.4751L28.2457 27.7399C28.2457 27.7399 29.5424 26.4081 29.9462 25.9549C30.1498 25.7281 30.3865 25.414 30.8512 25.3958C33.06 25.3078 40.7392 25.0009 40.7392 25.0009L40.6974 23.9066C40.6748 23.2501 40.3058 22.6919 39.7802 22.4118Z" fill="#B3B3B3"/>
<path d="M30.246 33.2485C30.3434 34.4583 29.4784 35.5223 28.3122 35.624C27.1478 35.7265 26.1226 34.8282 26.0234 33.6176C25.926 32.4078 27.6891 27.9511 27.6891 27.9511C27.6891 27.9511 30.1468 32.0381 30.246 33.2485Z" fill="#F5F5F5"/>
<path d="M26.9836 33.4892C26.8966 33.0674 27.0097 32.1625 27.1786 31.2181C26.8444 32.2705 26.6077 33.1926 26.6373 33.5644C26.7069 34.4222 27.4362 35.0611 28.2629 34.9887C28.2821 34.9869 28.3029 34.9829 28.3221 34.9803C27.6694 34.7814 27.1385 34.2281 26.9836 33.4892Z" fill="#3FC5FF"/>
<path d="M68.9988 47.3981V47.3987C67.629 51.3947 65.6639 55.0963 63.2115 58.3907C62.7816 58.9702 62.336 59.5373 61.8748 60.0906C56.5818 57.5681 50.3438 54.6523 49.3186 54.5831C47.5363 54.4617 42.2172 56.9528 37.2898 56.59C34.6216 56.3937 30.9595 54.0225 30.2424 53.3622C29.5253 52.7023 29.48 51.4643 29.4661 51.0821C29.4522 50.6998 30.3938 50.2643 30.3938 50.2643C30.3938 50.2643 30.0527 50.2162 29.7115 50.1687C29.3721 50.1215 28.836 49.5911 28.7525 49.3345C28.7403 49.2989 28.7246 49.2198 28.7072 49.1114C28.702 49.0871 28.6985 49.062 28.6951 49.0349C28.6829 48.9641 28.6707 48.8828 28.6585 48.795C28.655 48.7709 28.6515 48.7456 28.6481 48.7201C28.6481 48.7165 28.6463 48.7136 28.6463 48.7095C28.6428 48.6873 28.6393 48.665 28.6359 48.6428C28.6254 48.5638 28.615 48.4805 28.6028 48.3954C28.5001 47.6244 28.3887 46.671 28.3887 46.671C27.7325 46.4677 27.5811 45.953 27.4471 45.5295C27.4453 45.519 27.4419 45.5081 27.4384 45.4957C27.4349 45.4868 27.4332 45.477 27.4314 45.4664C27.4279 45.4552 27.4262 45.4433 27.4227 45.4306C27.421 45.4219 27.421 45.4131 27.4192 45.4035C27.414 45.3834 27.4123 45.3619 27.4071 45.3397C27.4053 45.3175 27.4018 45.2942 27.3984 45.2692C27.3949 45.2448 27.3914 45.219 27.3879 45.1928C27.3879 45.1753 27.3844 45.1568 27.3827 45.1386C27.3427 44.7475 27.3218 44.1866 27.3113 43.76C27.3078 43.5983 27.3044 43.4557 27.3044 43.3487C27.3026 43.2228 27.3009 43.1472 27.3009 43.1472C27.3009 43.1472 27.1877 43.0612 27.0642 42.9421C27.0102 42.8897 26.9528 42.8308 26.9023 42.7692C26.8222 42.6725 26.7578 42.5699 26.7439 42.4808C26.7422 42.471 26.7422 42.4615 26.7404 42.4519C26.7283 42.3348 26.7213 42.093 26.7143 41.8044C26.7021 41.2683 26.6934 40.568 26.6621 40.203C26.6099 39.6224 27.0903 39.0228 27.5184 38.6537C27.9466 38.2847 31.1074 37.0599 31.1074 37.0599L31.184 39.0684L31.2206 40.0212C31.2206 40.0212 31.3598 40.1851 32.8218 40.3756C32.8671 40.3814 32.9106 40.3891 32.9524 40.3989C32.9872 40.4052 33.0185 40.4141 33.0499 40.4237C33.2831 40.4911 33.4624 40.6096 33.5999 40.7589V40.7585C33.612 40.7721 33.6242 40.7858 33.6364 40.8002C33.6625 40.8281 33.6834 40.8564 33.7043 40.8863C33.7147 40.9011 33.7252 40.9172 33.7356 40.9325C33.7652 40.9753 33.7913 41.02 33.8139 41.0653C33.901 41.2329 33.9584 41.4165 33.9967 41.6013C34.0002 41.6187 34.0037 41.6371 34.0072 41.6553C34.0141 41.6915 34.0193 41.7271 34.0246 41.763C34.028 41.7806 34.0298 41.7979 34.0333 41.8154C34.0315 41.8163 34.0315 41.8172 34.0333 41.8191C34.0367 41.8539 34.042 41.8888 34.0454 41.9235C34.0472 41.9408 34.0489 41.9584 34.0489 41.9759C34.0541 42.0289 34.0576 42.0804 34.0611 42.1306C34.0611 42.1626 34.0628 42.1944 34.0646 42.2255C34.0681 42.3722 34.0646 42.5047 34.0611 42.6122C34.0576 42.7143 34.0524 42.7945 34.0541 42.8435C34.0541 42.8521 34.0541 42.8617 34.0524 42.8706C34.0507 42.8762 34.0507 42.8814 34.0489 42.8872C34.0454 42.9161 34.035 42.9443 34.0193 42.9732C34.0141 42.9839 34.0089 42.9938 34.0019 43.0043C33.9758 43.045 33.941 43.0843 33.9027 43.1216C33.8923 43.131 33.8818 43.1407 33.8714 43.1494C33.8609 43.1592 33.8505 43.1687 33.8383 43.1765C33.8279 43.1861 33.8157 43.1949 33.8052 43.2027C33.7948 43.2116 33.7826 43.2202 33.7704 43.2284C33.7582 43.2372 33.7461 43.2452 33.7339 43.2531C33.6695 43.2972 33.6033 43.3352 33.5389 43.3681C33.5233 43.3767 33.5076 43.3856 33.4902 43.3932C33.4745 43.4017 33.4589 43.4094 33.4432 43.4165C33.4363 43.4205 33.4275 43.4242 33.4188 43.4279L33.4067 43.4331C33.3527 43.4589 33.3109 43.4763 33.2866 43.4861L33.2674 43.4938C33.2674 43.4938 34.6111 43.8373 35.095 44.2266C35.2203 44.3269 35.3787 44.5607 35.5075 44.8511C35.5423 44.9268 35.5719 45.0058 35.6015 45.0875C35.6084 45.1075 35.6154 45.1281 35.6224 45.1491C35.6276 45.1639 35.6311 45.1801 35.6363 45.1953C35.6572 45.2631 35.6746 45.3323 35.6902 45.4026C35.6955 45.4241 35.7007 45.4456 35.7042 45.4673C35.7094 45.4904 35.7129 45.5141 35.7163 45.5374C35.7233 45.5788 35.7285 45.6194 35.7337 45.6608C35.7355 45.6849 35.7372 45.7096 35.739 45.7336C35.7425 45.7732 35.7442 45.813 35.7442 45.8525C35.7442 46.0557 35.7077 46.2503 35.6171 46.4158C35.4187 46.7834 34.4684 46.9682 34.4684 46.9682C34.4684 46.9682 35.457 47.1637 36.2507 47.4771C36.7641 47.6793 36.9974 48.2055 37.0235 48.7127C37.0339 48.9155 37.0113 49.1141 36.9608 49.2875V49.2885C36.9486 49.3282 36.9365 49.3667 36.9225 49.4034C36.9225 49.4034 36.9225 49.4034 36.9225 49.4041C36.9034 49.4529 36.8808 49.4997 36.8564 49.5418C36.8198 49.6065 36.7781 49.6634 36.7328 49.7102C36.7172 49.7263 36.6998 49.7404 36.6841 49.7539C36.6354 49.7941 36.5796 49.8233 36.5205 49.8407C36.4978 49.8474 36.4717 49.8544 36.4439 49.8618C36.4248 49.8667 36.4056 49.8714 36.3847 49.8766C36.3429 49.8873 36.2977 49.8985 36.2507 49.9085C36.2263 49.9142 36.202 49.92 36.1758 49.9256C36.1689 49.9269 36.1619 49.9285 36.155 49.93C36.1236 49.9365 36.0923 49.944 36.061 49.9511C35.92 49.9813 35.772 50.0116 35.6363 50.0387C35.598 50.0458 35.5614 50.0528 35.5266 50.0602C35.4727 50.0709 35.4205 50.0807 35.3752 50.0895C35.2273 50.1184 35.128 50.1369 35.128 50.1369C35.128 50.1369 36.799 50.2476 37.5143 50.368C38.2279 50.489 38.3741 50.9359 38.4559 51.5803C38.5221 52.0964 38.0365 52.3545 37.8415 52.4358C37.8363 52.4383 37.8311 52.4412 37.8241 52.4434C37.798 52.4542 37.7771 52.4616 37.7684 52.4649C37.7667 52.4649 37.7667 52.4656 37.7649 52.4656L37.7632 52.4663C37.7632 52.4663 43.2702 52.2095 44.1753 51.6347C45.0787 51.0608 44.6818 42.3115 44.6174 40.5458C44.6035 40.1575 44.5287 39.7778 44.4138 39.4005C44.3737 39.2684 44.3285 39.1352 44.2798 39.0028C44.1492 38.6504 43.9908 38.2989 43.822 37.9424C43.5888 37.4525 43.3347 36.9525 43.1066 36.4326C42.9831 36.1534 42.8664 35.869 42.7638 35.5765C42.7446 35.5213 42.7255 35.4653 42.7081 35.4095C42.6854 35.3417 42.6628 35.2732 42.6437 35.204C42.4522 34.5645 42.4522 33.8742 42.5584 33.2609C42.7829 31.9788 43.4721 31.0366 43.8446 31.6192C43.9665 31.8117 44.2293 32.2199 44.5791 32.754C45.7992 34.6214 48.0585 38.0263 48.9322 39.0675C50.0548 40.4067 50.7093 42.0726 51.9886 43.5974C52.8153 44.5862 62.3691 46.3081 68.9988 47.3981Z" fill="#F4C990"/>
<path d="M37.7656 52.4664C37.7656 52.4664 37.7952 52.4569 37.844 52.4363L37.7656 52.4664Z" fill="#F78816"/>
<path d="M43.8249 37.9423C44.2391 38.8144 44.5872 39.659 44.6203 40.5461C44.6847 42.3117 45.0815 51.0611 44.1782 51.635C43.2731 52.2094 37.7661 52.4662 37.7661 52.4662C37.7661 52.4662 37.0177 52.7832 36.5042 52.7971C35.439 52.8262 33.7924 52.789 32.9727 52.6673C32.9727 52.6673 35.8341 54.6574 38.5702 54.5492C41.3063 54.4401 41.8911 54.1531 44.5124 53.0008C47.6071 51.6402 46.742 49.7779 46.1015 47.7432C49.2066 45.2203 45.736 41.0927 43.8249 37.9423Z" fill="#F4B07D"/>
<path d="M26.7455 42.4802C26.7873 42.7547 27.3025 43.1476 27.3025 43.1476C28.862 43.6626 33.2691 43.4938 33.2691 43.4938L33.424 43.4271C33.6537 43.3191 34.0575 43.0925 34.0558 42.8431C34.0523 42.5773 34.1898 41.3893 33.6015 40.7581C33.6764 41.3723 33.8365 42.7954 33.1855 42.7988C29.1544 42.8191 27.7324 42.782 26.709 41.7983C26.7177 42.138 26.7229 42.3313 26.7455 42.4802Z" fill="#F4B07D"/>
<path d="M35.6173 46.4163C35.8557 45.9756 35.7234 45.3346 35.5076 44.8507C35.5076 44.8507 35.5737 46.0764 34.4233 46.1511C33.4921 46.2114 28.0407 46.6747 27.3828 45.1375C27.4002 45.3088 27.4228 45.4479 27.4472 45.5296C27.5812 45.9526 27.7327 46.4675 28.3888 46.6708L34.4685 46.9684C34.4685 46.9684 35.4188 46.7835 35.6173 46.4163Z" fill="#F4B07D"/>
<path d="M29.1895 39.6527L31.2189 40.0215L31.1841 39.0683L29.1895 39.6527Z" fill="#F4B07D"/>
<path d="M35.3759 50.0899C35.7066 50.0263 36.2775 49.9117 36.5212 49.8407C36.8571 49.7439 37.0503 49.2393 37.0242 48.7131C37.0225 48.7128 37.0225 48.7128 37.0207 48.7124C36.2601 49.2348 30.5529 49.2408 29.8567 49.2411C29.3363 49.2422 29.0752 48.986 28.6035 48.3954C28.6644 48.8496 28.7219 49.2393 28.7532 49.3346C28.8367 49.5912 29.3728 50.1215 29.7122 50.1692C30.0534 50.2168 30.3945 50.2643 30.3945 50.2643L35.1444 50.104C35.1444 50.104 35.2349 50.0988 35.3759 50.0899Z" fill="#F4B07D"/>
<path d="M63.2133 58.3907C62.7833 58.9702 62.3378 59.5373 61.8765 60.0906C56.5836 57.5681 50.3455 54.6523 49.3203 54.5831C49.3203 54.5831 54.6742 54.96 63.2133 58.3907Z" fill="#F4B07D"/>
</svg>
