<svg width="68" height="68" viewBox="0 0 68 68" fill="none" xmlns="http://www.w3.org/2000/svg">
<path d="M68.0011 36.2972C68.0011 53.8064 53.8009 68 36.285 68C18.7684 68 4.56836 53.8064 4.56836 36.2972C4.56836 18.7884 18.7684 4.59428 36.285 4.59428C53.8009 4.59428 68.0011 18.7884 68.0011 36.2972Z" fill="#FF7070"/>
<path d="M52.3571 39.5139C52.1464 39.586 47.7754 40.8615 44.4024 41.8445C43.219 42.1894 42.157 42.4988 41.4423 42.7065C41.1861 42.7812 40.9754 42.8427 40.8186 42.8884C40.618 42.947 40.5068 42.9788 40.5068 42.9788C40.5068 42.9788 40.6281 42.9691 40.8439 42.9522C40.9872 42.9411 41.1743 42.9276 41.3951 42.9111C42.1115 42.859 43.187 42.7869 44.3568 42.7281C45.9852 42.6467 47.7923 42.5916 49.0582 42.6548C49.5268 42.6777 50.7608 42.8956 50.8855 43.7214C51.0676 44.914 50.1404 45.8387 48.6385 46.0424C47.3169 46.2221 46.0459 46.5658 44.7951 46.9717C44.5878 47.0384 44.3804 47.1068 44.1748 47.1774C41.0125 48.2546 37.9597 49.624 34.5458 49.6098C33.6443 49.6068 32.7177 49.5067 31.7567 49.2793C30.0046 48.8644 27.0269 47.5961 24.6833 48.564C24.3576 48.6986 23.4962 49.0405 22.2655 49.5254C21.173 49.9568 19.7889 50.4998 18.2285 51.1108C18.2018 51.1223 18.1759 51.1324 18.1491 51.1422C14.2066 52.6878 9.16388 54.6578 4.87196 56.3325C2.63709 52.8393 0.969772 48.9483 0 44.7895C5.28781 43.5389 14.1402 41.2455 21.1044 38.4525C23.433 37.5187 24.3746 34.3281 26.9449 31.9996C30.1265 29.1173 30.5029 24.9923 30.9223 22.322C31.1067 21.1511 34.5517 21.7739 33.9933 26.5044C33.6088 29.7625 32.2929 32.2775 33.3 32.7772C34.3576 33.3012 35.5559 32.9948 36.9179 32.4054C37.0342 32.3551 37.1506 32.3027 37.2686 32.2486C37.6293 32.0852 37.9985 31.9059 38.3794 31.7199C38.4705 31.6754 38.5615 31.6308 38.6542 31.5854C38.7638 31.5325 38.8733 31.48 38.9829 31.4266C39.0335 31.4016 39.084 31.3774 39.1346 31.3536C39.2189 31.3132 39.3032 31.2734 39.3875 31.2328C39.4313 31.2121 39.4768 31.1905 39.5223 31.1696C39.6841 31.0926 39.8561 31.0115 40.0314 30.929C40.2219 30.8385 40.4208 30.7455 40.6231 30.6501C40.6787 30.624 40.7343 30.5976 40.7916 30.5716C41.2131 30.3738 41.6513 30.1684 42.0896 29.9633C42.0997 29.9581 42.1098 29.9536 42.1216 29.9492C42.2548 29.886 42.3897 29.8235 42.5228 29.7613C42.6476 29.7025 42.7723 29.6442 42.8971 29.5864C43.0875 29.4981 43.2763 29.4103 43.4634 29.323C44.9654 28.6275 46.2566 28.0401 46.5954 27.9161C47.3827 27.6268 48.3098 28.0391 48.5222 28.6C48.7919 29.3075 48.534 29.9598 47.5124 30.6917C47.0607 31.0161 45.4003 32.0077 43.6927 33.0106C43.5713 33.082 43.4499 33.1535 43.3286 33.2247C43.1381 33.336 42.9476 33.4477 42.7588 33.5575C42.6931 33.5965 42.6273 33.635 42.5616 33.6731C42.4065 33.7636 42.2531 33.8534 42.1014 33.9412C41.9278 34.0423 41.7575 34.142 41.5923 34.2378C41.5569 34.2585 41.5215 34.2787 41.4861 34.2991C41.4137 34.3415 41.3412 34.383 41.272 34.4244C41.1456 34.4967 41.0259 34.5673 40.9079 34.6349C40.8034 34.6952 40.704 34.753 40.6079 34.8088C40.5961 34.8162 40.5843 34.8223 40.5725 34.8288C40.5556 34.8395 40.5371 34.8496 40.5186 34.8602C40.4444 34.9043 40.3719 34.9458 40.3028 34.9859C40.2758 35.0004 40.2505 35.0155 40.2269 35.0298C40.0499 35.1316 39.8949 35.2213 39.7667 35.2969C39.7398 35.3114 39.7128 35.3261 39.6892 35.3397C39.6707 35.3518 39.6521 35.362 39.6336 35.3717C39.615 35.3827 39.5982 35.3933 39.5813 35.4029C39.4347 35.4872 39.3487 35.5367 39.3352 35.5449C39.3487 35.5397 39.433 35.5062 39.5779 35.4492C39.5948 35.443 39.6117 35.4361 39.6285 35.4295C39.6487 35.4214 39.6707 35.4134 39.6909 35.4043C39.7162 35.3946 39.7415 35.3847 39.7667 35.3746C39.8915 35.3257 40.0415 35.2666 40.2118 35.1997C40.2354 35.1904 40.259 35.1807 40.2826 35.1716C40.3534 35.1434 40.4275 35.1146 40.5051 35.0833C40.5202 35.077 40.5371 35.0715 40.5523 35.0646C40.5658 35.0595 40.5792 35.0543 40.5927 35.0491C40.6821 35.0138 40.7748 34.9768 40.8709 34.9389C41.0108 34.8838 41.1574 34.826 41.3108 34.7648C41.3766 34.7397 41.444 34.7131 41.5114 34.6863C41.5434 34.6735 41.5738 34.6617 41.6075 34.6492C41.68 34.6202 41.7542 34.5909 41.8283 34.5614C41.8418 34.5554 41.857 34.5501 41.8705 34.5449C41.948 34.5146 42.0256 34.4832 42.1031 34.4527C42.275 34.3848 42.4503 34.3161 42.6307 34.2452C42.6847 34.2233 42.742 34.2008 42.7976 34.1783C42.9982 34.0989 43.2038 34.0179 43.4129 33.9363C43.5224 33.8923 43.6303 33.8492 43.7416 33.805C46.6848 32.6419 50.0797 31.297 50.4354 31.1433C51.0726 30.8665 52.2374 31.1335 52.6673 31.9691C52.851 32.3273 52.9656 33.371 51.8902 33.9941C51.1333 34.4346 46.5466 36.7627 43.9152 38.0918C43.9135 38.0929 43.9085 38.0946 43.9068 38.0972C43.5781 38.263 43.2797 38.4138 43.0235 38.543C42.5599 38.7764 42.2363 38.94 42.1183 38.9995C42.1115 39.0023 42.1065 39.0054 42.1014 39.0084C42.0845 39.0166 42.0728 39.0219 42.0694 39.0239C42.0728 39.023 42.0845 39.021 42.1014 39.0156C42.1065 39.015 42.1115 39.0136 42.1183 39.0119C42.2514 38.9794 42.6476 38.8813 43.2072 38.7432C45.6767 38.1327 51.3339 36.7359 51.7148 36.6599C52.4414 36.5158 53.2943 37.1222 53.3803 37.6515C53.4983 38.3831 53.0044 39.2923 52.3571 39.5139Z" fill="#F4B07D"/>
<path d="M34.3539 59.7739C35.1895 58.882 35.6008 57.6852 35.5857 56.4796C35.8503 56.4985 36.1183 56.4902 36.3897 56.4518C37.5545 56.2872 38.5306 55.6063 39.1627 54.6432C39.1762 54.6288 39.1897 54.615 39.2031 54.6002C39.4661 54.3198 39.6869 54.0095 39.8656 53.6777C40.5028 53.9483 41.204 54.0543 41.9205 53.9532C44.2079 53.6295 45.7722 51.3145 45.4132 48.7829C45.1957 47.2374 44.3108 45.9685 43.1341 45.2877C44.0748 44.3074 44.572 42.8427 44.3546 41.2969C43.9955 38.7653 41.8497 36.9752 39.5622 37.2987C39.4644 37.3125 39.3683 37.3305 39.2723 37.3517C38.4227 35.7443 36.7589 34.7587 35.0125 35.0056C33.7918 35.1785 32.7771 35.9182 32.1504 36.9551C31.3905 36.504 30.5055 36.299 29.5979 36.4274C27.9662 36.658 26.7028 37.9021 26.2423 39.5149C25.1777 39.4866 24.1142 39.9023 23.3007 40.7704C22.4205 41.7089 22.0117 42.9858 22.0739 44.2549C20.9241 44.1462 19.752 44.5556 18.8719 45.4948C17.2316 47.2443 17.2271 50.1693 18.8615 52.0274C19.7338 53.0189 20.8963 53.506 22.0402 53.4792C22.1729 54.4125 22.5631 55.3177 23.2116 56.0548C24.3224 57.3175 25.9039 57.7625 27.3184 57.3693C27.4925 58.171 27.861 58.9376 28.4242 59.5778C30.059 61.4354 32.7138 61.5247 34.3539 59.7739Z" fill="white"/>
<path d="M34.461 49.6799C35.7601 48.6133 37.316 47.5302 39.0944 46.6314C40.5424 45.8983 41.9651 43.972 40.1867 41.8645L38.7505 40.1637L37.316 38.4634C35.5359 36.3558 33.3976 37.4322 32.4307 38.7365C31.2442 40.3374 29.9147 41.6871 28.6442 42.788C27.3447 43.8543 25.7898 44.937 24.0114 45.8366C22.5621 46.5694 21.1405 48.4958 22.9194 50.6032L24.3546 52.3037L25.7898 54.004C27.5687 56.112 29.7075 55.0355 30.6744 53.731C31.861 52.13 33.1906 50.7806 34.461 49.6799Z" fill="#6EB268"/>
<path d="M45.2636 50.9066C45.0916 51.2009 44.8101 51.5123 44.3803 51.803C43.9673 52.0823 42.1063 52.8706 39.9891 53.7277C39.925 53.7538 39.8593 53.7804 39.7935 53.8064C36.5891 55.1021 32.89 56.5227 32.7703 56.5689C32.8834 56.5428 36.171 55.7876 38.7029 55.2288C40.0852 54.923 41.2415 54.6762 41.5315 54.6374C42.3221 54.5328 43.3234 54.3702 43.5948 55.257C43.701 55.6032 44.092 56.475 42.639 57.099C42.2698 57.2574 41.6191 57.572 40.8016 57.9704C40.2352 58.247 39.5879 58.5636 38.9001 58.8982C38.858 58.9179 38.8158 58.9383 38.7737 58.9587C38.2225 59.2266 37.6443 59.5041 37.0627 59.7794C36.8756 59.8681 36.6902 59.9565 36.5031 60.0438C35.6198 60.4578 34.7382 60.8592 33.9223 61.2063C33.8481 61.2383 33.7736 61.2703 33.7008 61.3006C33.4211 61.4186 33.1504 61.5298 32.8923 61.6309C32.8113 61.6629 32.7315 61.6949 32.6536 61.7252C32.4944 61.7859 32.3396 61.8432 32.1918 61.8971C29.0288 63.0344 25.966 62.5492 22.0898 63.732C20.7057 64.1549 18.4157 65.6798 15.974 67.5232C15.2882 67.0784 14.6182 66.6099 13.9653 66.1196C11.793 64.4936 9.80489 62.6351 8.03711 60.5828C11.3304 58.9189 15.2982 56.5787 16.6612 54.1201C17.2533 53.053 17.7308 52.0604 18.1489 51.1421C18.1637 51.1094 18.1785 51.0766 18.1934 51.0441C19.3922 48.4014 20.1122 46.3843 21.6984 45.0083C23.8515 43.1411 27.5106 41.5328 29.8096 39.9061C30.191 39.6363 30.6649 40.0416 30.746 40.7597C30.8336 41.5282 30.4707 42.656 29.0628 43.6998C26.7514 45.4144 25.4313 47.8268 25.4313 47.8268C25.4313 47.8268 37.2599 42.2081 38.6203 41.5959C39.0046 41.4236 39.362 41.3189 39.6856 41.2713C40.5032 41.1501 41.0966 41.3929 41.3224 41.8103C41.4573 42.0578 41.4978 42.379 41.4421 42.7065C41.4303 42.7742 41.4152 42.8427 41.3949 42.9111C41.3225 43.163 41.191 43.4117 41.0039 43.6255C40.9111 43.7295 40.8066 43.8257 40.6886 43.9097C39.9486 44.4358 32.6722 48.9935 32.5582 49.0649C32.6587 49.0204 37.5061 46.8734 40.3279 45.6483C41.2702 45.2388 41.9866 44.9327 42.2243 44.8409C42.676 44.6685 43.202 44.5829 43.6689 44.6038C44.1965 44.6279 44.6466 44.7868 44.8304 45.1078C44.9838 45.3787 45.0006 46.0363 44.6045 46.6684C44.4949 46.8428 44.3533 47.016 44.1746 47.1774C44.0246 47.3144 43.8476 47.4435 43.6403 47.5597C42.3102 48.3068 34.7837 51.8783 34.6657 51.9335C34.782 51.8982 42.172 49.5712 43.2374 49.3358C44.3095 49.0978 45.2046 49.3171 45.4305 49.8405C45.4372 49.8584 45.4439 49.8759 45.4507 49.8954C45.5299 50.1384 45.4979 50.5062 45.2636 50.9066Z" fill="#F4C990"/>
<path d="M40.8011 57.9704C40.2347 58.2469 39.5874 58.5635 38.8996 58.8982C38.8575 58.9179 38.8153 58.9383 38.7732 58.9587C38.222 59.2266 37.6438 59.5041 37.0622 59.7794C36.8751 59.868 36.6897 59.9562 36.5026 60.0438C35.6193 60.4578 34.7377 60.8591 33.9218 61.2063C33.8476 61.2383 33.774 61.2703 33.7003 61.3006C33.4206 61.4186 33.1499 61.5298 32.8918 61.6309C32.8108 61.6629 32.731 61.6949 32.6532 61.7252C32.4939 61.7859 32.3391 61.8432 32.1913 61.8971C29.0283 63.0344 25.9655 62.5492 22.0893 63.732C20.7052 64.1549 18.4152 65.6798 15.9735 67.5232C15.2878 67.0784 14.6177 66.6099 13.9648 66.1196C16.5997 64.219 19.1775 62.6435 21.0108 62.0942C24.0095 61.1961 26.3232 61.0276 29.6009 60.5306C31.0086 60.3156 32.595 60.0408 34.4907 59.6205C36.2817 59.2237 38.3484 58.6975 40.8011 57.9704Z" fill="#F4B07D"/>
<path d="M51.4205 2.11965C49.7516 2.11965 48.3053 3.05986 47.5771 4.43867C43.995 4.49731 41.9334 4.76117 40.0252 5.94452C35.9813 8.4531 35.6172 11.4948 35.6172 16.4924V16.8912C36.2055 16.7559 37.0416 16.6712 37.9721 16.6712C38.7256 16.6712 39.4184 16.7266 39.9662 16.82V16.4924C39.9662 11.302 40.89 10.4612 42.3498 9.61875C43.5298 8.93887 44.9643 8.65816 47.6176 8.55336C48.3559 9.89189 49.782 10.7991 51.4205 10.7991C53.8175 10.7991 55.7611 8.85631 55.7611 6.45944C55.7611 4.06258 53.8175 2.11965 51.4205 2.11965Z" fill="#137368"/>
<path d="M41.0278 41.1805L40.834 38.0461L41.0278 39.6903L39.718 18.621C39.45 18.6633 39.15 18.6968 38.828 18.7201L38.7926 19.2849L38.7572 18.725C38.4588 18.7445 38.1419 18.7551 37.8132 18.7551C37.0901 18.7551 36.4225 18.7037 35.8848 18.6176L33.3848 40.9758L36.0938 24.9541L35.1431 39.9265L35.5477 35.4157L35.2426 40.231L36.3669 27.6583L36.4208 29.0228L35.728 39.9265L36.5085 31.2117L36.7495 37.2378L36.5591 40.231L36.7732 37.8388L36.9097 41.2509L36.849 36.989L37.4879 29.8594L37.8115 32.5917L37.0075 41.4526L37.8924 33.4709L37.4946 39.7231L37.7795 36.5421L37.4306 42.2068L38.2077 35.933L38.6763 39.8933L38.6089 38.7961L38.7741 40.1978L38.4083 34.3077L38.506 33.5174L38.5869 34.2049L38.8347 41.1375L38.9376 37.1573L39.1297 38.7818L39.2208 42.7424L39.2106 39.4632L39.2612 39.8933L39.209 39.052L39.1887 32.5749L40.0923 40.1978L39.2191 26.1583L39.2241 25.9636L41.0278 41.1805Z" fill="#D0D1C6"/>
<path d="M52.6293 3.37622H50.6992V0.97733H52.6293V3.37622Z" fill="#B3B3B3"/>
<path d="M55.5409 0.721686C53.6597 0.721686 52.0903 0.934832 51.738 1.2174C51.384 0.934832 49.8163 0.721686 47.9334 0.721686C45.7909 0.721686 44.0547 0.997692 44.0547 1.33839C44.0547 1.67875 45.7909 1.95508 47.9334 1.95508C49.8163 1.95508 51.384 1.74194 51.738 1.45904C52.0903 1.74194 53.6597 1.95508 55.5409 1.95508C57.6834 1.95508 59.4197 1.67875 59.4197 1.33839C59.4197 0.997692 57.6834 0.721686 55.5409 0.721686Z" fill="#075146"/>
<path d="M52.6409 0.977291C52.6409 0.437597 52.2043 1.29938e-05 51.6632 1.29938e-05C51.1238 1.29938e-05 50.6855 0.437597 50.6855 0.977291C50.6855 1.51732 51.1238 1.95508 51.6632 1.95508C52.2043 1.95508 52.6409 1.51732 52.6409 0.977291Z" fill="#B3B3B3"/>
<path d="M48.8558 5.76406C45.3428 6.0286 41.7625 6.76509 39.8189 8.5151C38.1753 9.99416 37.4656 13.3528 37.1875 16.6921C37.4387 16.6786 37.7016 16.6712 37.9713 16.6712C38.7248 16.6712 39.4177 16.7266 39.9655 16.8199V16.4924C39.9655 11.302 40.8893 10.4612 42.3491 9.61875C43.529 8.93886 44.9636 8.65816 47.6168 8.55335C48.2793 9.7549 49.4963 10.6083 50.9224 10.7706C48.5861 9.74664 47.7854 8.24568 48.8558 5.76406Z" fill="#075146"/>
<path d="M49.0957 2.79323C49.6098 3.33039 50.5454 3.69031 51.6175 3.69031C52.58 3.69031 53.4346 3.39966 53.9707 2.95011C53.2543 2.4281 52.3727 2.11959 51.4186 2.11959C50.5639 2.11959 49.7666 2.36693 49.0957 2.79323Z" fill="#137368"/>
<path d="M37.8138 14.5871C36.0371 14.5871 34.5977 14.8961 34.5977 15.2772V18.0657C34.5977 18.4463 36.0371 18.7554 37.8138 18.7554C39.5888 18.7554 41.0284 18.4463 41.0284 18.0657V15.2772C41.0284 14.8961 39.5888 14.5871 37.8138 14.5871Z" fill="#CCCCCC"/>
</svg>
