<svg width="150" height="150" viewBox="0 0 150 150" fill="none" xmlns="http://www.w3.org/2000/svg">
<path d="M66.9559 0.072525C62.9339 0.261261 60.4363 0.626938 56.4963 1.60602C48.0887 3.70573 42.7885 5.9706 36.5034 10.1582C35.4129 10.8896 34.4044 11.5974 34.2871 11.7389C34.0644 11.9866 34.0644 11.9866 34.3106 11.9866C34.4396 11.9866 35.1549 11.8333 35.8819 11.6445C38.7431 10.9014 42.0498 9.49763 42.5306 8.82526C42.6947 8.57755 42.9175 8.43599 43.1638 8.4006C43.3748 8.3652 43.926 8.28264 44.395 8.21185C44.9227 8.14108 45.8373 7.84618 46.7989 7.45691C49.2848 6.43065 52.7909 5.27463 52.9433 5.42798C52.9785 5.45157 52.4274 5.78186 51.7355 6.13574C50.3049 6.8671 50.176 6.96147 49.8828 7.40973C49.7421 7.63385 49.7069 7.83438 49.7538 8.12929C49.8476 8.58934 49.6131 8.91963 49.191 8.91963C48.1708 8.93143 46.6816 10.5121 47.0803 11.1491C47.2796 11.4676 47.6666 11.4322 48.5226 11.0311C48.9682 10.8306 49.402 10.6891 49.4958 10.7244C49.6952 10.807 49.8476 11.503 49.7538 11.9041C49.6366 12.3641 49.2379 12.4585 47.5141 12.4585C45.7552 12.4585 44.2895 12.6 42.3664 12.9421C38.9072 13.5673 37.7815 13.7442 36.5972 13.8622C35.1783 13.992 34.2402 14.2869 33.0207 14.971C31.2032 15.9973 29.714 17.4011 29.1277 18.6632C28.6235 19.7249 28.0723 20.3501 27.1343 20.9163C25.7506 21.7538 25.1877 22.3436 25.1877 22.957C25.1877 23.2048 25.2229 23.2166 25.774 23.1458C26.161 23.0986 26.3603 23.1104 26.3603 23.193C26.3603 23.2637 25.6568 24.0541 24.8008 24.9388C23.1826 26.6138 22.8425 27.0621 22.5494 27.9114C22.2562 28.7489 21.5761 29.5393 20.3097 30.5184C18.9846 31.5564 18.4804 32.1108 18.7853 32.2288C19.0667 32.335 20.298 31.6862 22.3617 30.3178C23.4171 29.6219 24.6132 28.9141 25.0118 28.7253C25.4809 28.513 25.9147 28.2063 26.1962 27.876C27.0053 26.9323 28.8697 25.8117 30.9218 25.0214C32.9152 24.2428 33.6422 24.4551 33.865 25.8471C33.9354 26.2364 33.9471 27.0149 33.9119 27.5693C33.8298 28.6546 33.9705 29.3741 34.2871 29.4921C34.5451 29.5983 35.0376 29.0438 35.0376 28.6428C35.0376 27.8406 35.7295 27.6755 35.964 28.4186C36.0343 28.631 36.0812 29.3623 36.0695 30.0347C36.0343 31.2261 36.0461 31.2615 36.3158 31.4031C36.7262 31.6154 36.7965 31.7805 36.7965 32.6299C36.7965 33.5618 36.4799 34.9183 35.9288 36.4164C35.1901 38.3864 35.0962 38.8936 35.0962 40.7102C35.108 43.2464 35.6591 44.8035 37.2773 46.8442C38.1802 47.9766 38.79 49.1091 38.79 49.6517C38.79 50.0882 39.0948 50.7841 39.4466 51.1616C39.7515 51.4801 39.8336 52.0699 39.6811 52.7777C39.5521 53.3439 39.7867 53.8275 40.3378 54.1106C40.8068 54.3466 41.2524 54.9364 41.2524 55.3139C41.2524 55.6441 41.6863 56.4227 42.1671 56.9535C42.6947 57.5433 43.4687 58.1331 43.6094 58.0388C43.7501 57.9562 43.7501 57.1423 43.6094 56.7884C43.5507 56.635 43.3162 56.2811 43.0817 55.998C42.6596 55.5026 42.6596 55.479 42.7299 54.7358C42.812 54.0045 42.8003 53.9809 42.5071 53.8747C42.3312 53.8039 42.0381 53.5208 41.827 53.2495C41.358 52.5889 39.986 49.8404 40.2909 50.1471C40.8655 50.7252 43.539 53.9455 44.6178 55.3374C46.5057 57.8028 48.3467 59.643 48.9213 59.643C49.2261 59.643 49.1441 59.7846 48.4757 60.4098C47.1155 61.672 47.5728 62.4033 49.8242 62.6039C51.2196 62.7218 51.5596 62.887 51.4893 63.3824C51.4072 63.9014 51.888 64.3733 53.0137 64.9277C54.2332 65.5293 55.5348 65.8478 57.6103 66.0719C59.9555 66.3196 60.8584 66.6263 62.031 67.5582C62.8284 68.1834 64.0713 68.7732 65.5136 69.1979C66.182 69.3984 67.0028 69.7051 67.3312 69.8703C68.9142 70.6724 70.251 71.9582 70.3917 72.8311C70.5089 73.5743 70.6379 73.7512 71.1304 73.8928C71.3884 73.9753 71.9043 74.282 72.2561 74.5769C73.0652 75.2375 73.8978 75.6268 75 75.8627C76.5244 76.1812 77.1342 76.0515 77.1342 75.4027C77.1342 75.037 77.3452 74.8601 77.7791 74.8601C78.2012 74.8601 78.4827 75.1196 78.5999 75.5914C78.6468 75.7566 78.811 76.0161 78.9634 76.1694C79.3856 76.5705 79.7139 77.7973 79.796 79.2482C79.8898 81.0058 79.7843 81.2654 78.2012 82.9286C76.3837 84.8396 75.5746 86.3259 75.1994 88.4846C74.9883 89.7114 74.9766 90.372 75.1525 91.3157C75.3049 92.1296 75.4925 92.5425 76.3602 93.8754C77.6618 95.9044 79.5732 99.7971 80.3588 102.05C80.781 103.265 81.3204 103.808 83.2552 104.952C85.6238 106.356 86.7144 107.665 87.0075 109.435C87.1365 110.237 87.1248 110.343 86.4681 114.495C86.3157 115.498 86.1046 117.173 85.9991 118.211C85.6473 121.679 85.5652 122.186 85.061 124.215C84.416 126.728 84.1346 128.049 83.818 130.007C83.4897 132.036 83.0793 133.381 82.6454 133.888C82.2584 134.324 82.2936 134.431 82.7861 134.431C83.2552 134.431 83.3021 134.678 82.9503 135.292C82.7627 135.61 82.6454 135.988 82.6454 136.271C82.6454 137.356 83.8532 138.854 85.2486 139.503C86.1984 139.939 87.7697 140.258 88.5436 140.175C89.1534 140.093 89.681 139.833 89.681 139.585C89.681 139.515 89.2824 139.066 88.8016 138.606C88.2739 138.111 87.9221 137.674 87.9221 137.533C87.9221 137.391 88.3443 136.896 88.9775 136.283C90.068 135.221 90.2087 134.938 89.8452 134.537C89.5052 134.147 89.7514 133.735 91.1234 132.366C93.1285 130.384 95.6613 128.403 96.4939 128.179C96.7284 128.108 97.1388 127.848 97.3968 127.577C98.0535 126.916 98.3935 126.161 98.4521 125.23C98.4756 124.805 98.5577 124.392 98.6163 124.309C98.6984 124.215 99.0267 124.18 99.5778 124.192C100.317 124.215 100.492 124.168 101.173 123.826C102.674 123.059 104.843 121.113 106.942 118.671C108.185 117.22 108.783 116.654 110.225 115.58C111.363 114.743 111.867 114.153 112.019 113.528C112.125 113.115 112.688 112.608 113.438 112.266C113.755 112.112 114.282 111.865 114.622 111.711C116.51 110.815 118.82 107.783 119.582 105.176C120.075 103.501 121.001 101.944 122.924 99.514C124.249 97.8389 124.906 96.8599 125.305 95.9987C125.551 95.4325 125.61 95.1494 125.61 94.2529C125.621 92.9435 125.528 92.7902 124.718 92.7902C124.015 92.7902 123.663 92.6132 122.62 91.7403C121.869 91.1033 120.966 90.6669 120.392 90.6669C119.934 90.6669 117.906 89.7586 115.361 88.4256C112.301 86.8095 111.527 86.5972 110.753 87.1516L110.378 87.4229L110.589 87.128C111.808 85.394 111.843 85.276 111.386 84.7334C110.964 84.2616 110.788 83.8369 110.788 83.3179C110.788 82.7871 110.202 81.8198 109.533 81.2418C108.841 80.652 107.575 80.015 106.567 79.7555C103.705 79.0241 100.047 76.2284 99.6365 74.459C99.4254 73.5389 99.3433 73.4917 98.0183 73.4091C96.3766 73.3266 95.9897 73.0906 96.3063 72.3475C96.4353 72.0408 96.1069 72.088 95.7903 72.43C95.5323 72.7132 95.5089 72.9255 95.6731 73.5625C95.7903 74.0107 93.3982 73.5861 92.765 73.0434C92.4836 72.7957 92.4601 72.725 92.5774 72.4654C92.7415 72.0998 92.6595 71.9936 92.3429 72.1587C92.0145 72.3475 91.2992 72.1941 90.2087 71.7341C89.6928 71.5099 89.0947 71.2976 88.8954 71.2504C88.5553 71.1797 88.4967 71.215 88.4029 71.4746C88.1684 72.0998 87.371 72.1705 87.4883 71.5689C87.5235 71.4038 87.5938 71.1679 87.629 71.0499C87.7462 70.7668 87.4414 70.7904 86.386 71.1443C85.9053 71.3094 85.2017 71.5335 84.8147 71.6279C83.7594 71.8992 83.0558 72.3357 81.9184 73.4091C80.7106 74.5651 80.6051 74.5887 79.3504 73.9753C78.2833 73.4681 77.6618 73.4327 76.6534 73.8692C75.1759 74.4944 74.3668 74.3292 73.6515 73.2912C73.1473 72.5362 72.9128 71.392 72.8072 69.1979C72.7017 67.1808 72.5845 66.7561 71.963 66.3786C71.4118 66.0365 70.4855 65.9776 68.4334 66.1427C66.2289 66.3196 66.1351 66.2843 66.6511 65.5175C66.9208 65.1046 66.9794 64.8923 66.9677 64.4205C66.9442 63.7599 67.167 62.9577 67.6361 62.0023C68.1637 60.9524 68.3631 60.1385 68.2106 59.6784C68.0465 59.1594 67.765 59.1004 66.2641 59.2891C64.728 59.4779 64.5286 59.6312 64.001 60.9406C63.4616 62.2972 62.887 62.6746 61.0108 62.9342C59.7444 63.1111 59.076 62.946 58.3607 62.2736C57.4696 61.436 56.4963 59.3127 56.2852 57.7085C55.9217 54.9364 57.5634 52.6715 61.2571 50.8903C62.2421 50.4067 62.3593 50.3831 63.3795 50.3713C64.5169 50.3595 64.8218 50.2415 64.8218 49.8286C64.8218 49.227 65.3495 48.9085 66.3462 48.9085C67.1084 48.9085 69.524 49.3332 70.0634 49.5573C70.8021 49.864 71.3649 50.5364 72.0333 51.8576C72.9831 53.7568 73.9095 54.8066 74.6482 54.8066C75.6684 54.8066 74.9648 51.952 73.5929 50.4892L72.9714 49.8286V48.9793C72.9831 47.6464 73.3349 47.0094 74.9531 45.4287C77.3218 43.1166 77.3687 42.8807 75.9147 40.4743C75.6801 40.085 75.4925 39.7194 75.4925 39.6722C75.4925 39.625 75.8443 39.8255 76.2664 40.1204C76.6886 40.4153 77.0873 40.6159 77.1459 40.5805C77.2045 40.5451 77.2514 40.3799 77.2514 40.203C77.2514 39.7547 77.7087 38.8228 78.5765 37.4899C79.3504 36.3103 79.7139 35.5317 79.7139 35.0717C79.7139 34.9301 79.796 34.6824 79.9015 34.529L80.0891 34.2577L82.235 34.3403C83.9822 34.4111 84.3926 34.3993 84.4981 34.2695C84.5685 34.1752 84.7561 33.951 84.8968 33.7741C85.0962 33.5382 85.401 33.373 85.9756 33.2197C86.9254 32.9484 87.3007 32.6417 87.4062 32.0519C87.5352 31.2851 87.5821 31.1907 88.0746 30.9666C89.0009 30.542 90.068 30.7897 90.455 31.521C90.7247 32.0283 90.8537 32.0283 90.8654 31.5328C90.8654 31.3323 90.9123 31.061 90.9592 30.9312C91.0295 30.7425 91.0999 30.8015 91.4751 31.3205C91.7097 31.6508 91.9676 31.9221 92.038 31.9221C92.2725 31.9221 92.0849 30.8487 91.7331 30.1173C91.2406 29.1146 89.6341 27.3924 90.0563 28.3125C90.2204 28.69 90.1032 28.9967 89.8335 28.8905C89.341 28.7136 88.6843 28.053 87.9104 26.9559C86.4329 24.8562 85.3776 23.8653 84.3926 23.6884C83.6304 23.5468 83.0089 23.0632 80.9569 21.0815C78.5765 18.7812 78.1426 18.5807 77.826 19.6541C77.5798 20.4916 77.2397 20.4091 75.0117 19.0053C72.5141 17.4246 71.6581 17.1061 70.251 17.2123C69.1604 17.2949 68.9259 17.2359 68.9259 16.8584C68.9259 16.6697 68.7852 16.4456 68.5624 16.245C67.6126 15.4547 67.4133 15.1952 67.2374 14.5818C67.0263 13.874 66.9911 12.1754 67.167 11.6917C67.296 11.3496 67.3429 11.3496 68.0816 11.6445C68.3748 11.7625 68.5155 11.7743 68.6797 11.6681C68.9611 11.4912 69.1604 11.6799 69.1604 12.1164C69.1604 12.5646 69.3363 13.0011 69.5474 13.0837C69.6412 13.1191 70.0516 13.0719 70.4503 12.9775C70.849 12.8831 71.2242 12.8359 71.2829 12.8831C71.6581 13.1073 71.0718 14.1335 70.2744 14.6525C69.5474 15.1126 69.3832 15.3485 69.524 15.726C69.6412 16.0563 70.122 16.304 70.8607 16.4102C71.6698 16.5281 73.417 17.1887 75.0469 18.0145C76.7472 18.8756 77.2397 18.9699 77.6384 18.5571C78.1192 18.0852 78.213 17.5308 77.9433 16.6107C77.826 16.1743 77.7205 15.5373 77.7205 15.1952C77.7205 14.4638 77.5563 14.1099 76.7238 12.9893C75.3987 11.1963 73.159 9.10837 72.432 8.95502C72.2444 8.91963 72.092 8.84885 72.092 8.78987C72.092 8.53035 73.6867 8.07031 74.5896 8.08211C75.1759 8.08211 75.4573 8.22366 76.712 9.10837C77.0169 9.33249 77.4156 9.50943 77.568 9.50943C77.7674 9.50943 78.0136 9.67458 78.3185 10.0049C78.5647 10.288 78.9517 10.7126 79.1745 10.9486C79.4207 11.2317 79.6787 11.3968 79.8546 11.3968C80.007 11.3968 80.2533 11.4794 80.4057 11.5856C80.6285 11.7507 80.6637 11.8569 80.6168 12.1754C80.523 12.7534 80.6872 13.2134 81.2266 13.8622C81.8011 14.5582 81.9888 14.9828 81.8246 15.2895C81.6604 15.608 81.6604 15.6198 82.1646 15.5962C82.7392 15.5844 83.5366 16.1035 85.0141 17.4482C87.8049 19.9844 90.3612 21.6595 91.4282 21.6595H91.8269L91.7566 21.0343C91.7214 20.704 91.4986 19.7839 91.2523 19.0053C90.3494 16.0681 90.666 13.6971 92.0263 13.178C92.2139 13.1073 92.5422 12.9893 92.7298 12.9185C93.1637 12.7534 93.1989 12.3759 92.8236 11.7625C92.296 10.8896 91.8738 10.4413 91.2875 10.1582C90.6309 9.85152 89.9742 9.39148 87.5352 7.52768C84.076 4.89714 80.1478 2.88 78.8344 3.06874C78.4475 3.12773 78.2833 3.09233 78.0488 2.91539C77.6032 2.56151 77.5563 2.23122 77.9315 1.98351C78.5178 1.60602 87.4414 1.77116 90.584 2.21942C91.44 2.34918 91.6041 2.33739 91.9676 2.16045C92.5657 1.87733 92.4718 1.60602 91.6745 1.28752C90.5957 0.862869 88.3795 0.556168 84.2284 0.237671C81.4611 0.0253448 70.2275 -0.0808258 66.9559 0.072525ZM76.0671 1.61781C76.6299 1.81836 76.501 1.9599 75.7388 1.9599C75 1.9599 74.7538 1.81836 75.1056 1.61781C75.3753 1.46446 75.6098 1.46446 76.0671 1.61781ZM66.8152 4.73199C67.7533 5.68748 68.3162 5.91161 70.251 6.14754C71.8574 6.33627 72.7721 6.5486 73.5577 6.92609C74.3785 7.31535 74.2378 7.52768 73.0652 7.69283C72.3851 7.799 71.9161 7.94055 71.4705 8.20006C71.1187 8.4006 70.7552 8.56575 70.6731 8.56575C70.5793 8.56575 69.9226 8.27084 69.2073 7.90517C68.0934 7.33894 67.8237 7.24458 67.2139 7.23279C66.8387 7.23279 66.4048 7.26817 66.2641 7.31535C66.0765 7.37433 65.9358 7.32715 65.7716 7.162C65.5488 6.93788 65.5254 6.77274 65.5254 5.69928C65.5254 4.79099 65.5723 4.42529 65.713 4.22476C65.8068 4.08321 65.924 3.96526 65.971 3.96526C66.0179 3.96526 66.4048 4.30734 66.8152 4.73199ZM59.0995 7.31535C59.2402 7.51588 59.205 8.18826 59.0526 8.28264C58.8884 8.38881 58.2552 7.69283 58.2552 7.39793C58.2552 7.26817 58.3256 7.13841 58.4076 7.11482C58.5953 7.03224 58.9939 7.15021 59.0995 7.31535ZM56.5901 7.52768C56.6722 7.61026 56.7308 7.92876 56.7308 8.23546C56.7308 8.93143 56.5667 8.96681 55.7576 8.44778C55.1126 8.03491 55.0657 7.7872 55.5934 7.56308C56.0624 7.35074 56.4025 7.33894 56.5901 7.52768ZM51.3134 8.02312C52.1108 8.42419 53.0606 8.60114 53.6938 8.45958C53.9752 8.4006 54.2214 8.3652 54.2449 8.38881C54.3387 8.47137 52.8495 9.40327 52.5094 9.47404C52.1694 9.53304 52.0756 9.47404 51.3837 8.76628C50.7271 8.08211 50.4926 7.74002 50.6919 7.74002C50.7271 7.74002 51.0085 7.86977 51.3134 8.02312ZM62.1717 8.05852C61.9372 8.53035 62.0662 9.54483 62.4766 10.4295C62.6877 10.9014 62.8284 11.326 62.7815 11.3732C62.7346 11.4204 62.2772 11.0193 61.7613 10.4885C60.5887 9.26172 60.5535 9.0376 61.433 8.34161C62.0896 7.82259 62.3242 7.72823 62.1717 8.05852ZM57.0005 9.9223C58.2669 10.2172 59.3106 10.5711 59.3106 10.7126C59.3106 10.8896 57.7979 10.7598 57.0005 10.5121C56.6605 10.4059 56.2383 10.1936 56.0624 10.0403C55.7458 9.76895 55.7458 9.75716 55.9921 9.74536C56.1328 9.74536 56.5901 9.82793 57.0005 9.9223ZM64.6811 10.9486C65.0094 11.2789 64.6225 12.3405 64.1651 12.3405C63.8016 12.3405 63.7313 11.4558 64.0596 10.925C64.1534 10.7598 64.5052 10.7716 64.6811 10.9486ZM57.7275 12.3405C57.7275 12.541 56.4142 13.2488 56.2852 13.1191C56.2383 13.0719 56.4259 12.8242 56.7074 12.5646C57.2116 12.081 57.7275 11.9748 57.7275 12.3405ZM52.9081 12.8831C53.3068 13.0365 52.9316 13.1662 52.099 13.1662C51.1375 13.1662 50.7505 13.0837 51.0085 12.9185C51.1844 12.8006 52.6384 12.777 52.9081 12.8831ZM51.1961 16.2568C51.3134 16.3748 51.0906 16.6461 50.1994 17.5544C49.5662 18.1914 49.0151 18.7104 48.9682 18.7104C48.9213 18.7104 48.9682 18.5217 49.062 18.2976C49.3082 17.6842 49.273 17.2123 48.9564 17C48.546 16.7287 48.0066 16.8938 47.1506 17.5426C46.2946 18.1914 46.1891 18.156 46.9161 17.4482C47.4321 16.941 48.1356 16.5281 48.933 16.2804C49.5427 16.0799 51.0085 16.0681 51.1961 16.2568ZM65.5019 17.0118C66.2289 17.2595 66.4986 17.2949 67.0732 17.2359L67.7533 17.1533L67.9292 17.5544C68.1403 18.0852 68.2927 18.1914 68.8907 18.2976C69.7116 18.4273 70.0047 18.9699 69.6881 19.7957C69.6295 19.9372 69.8288 20.2085 70.4269 20.7865C71.4118 21.7184 71.7167 22.3436 71.8574 23.6884C71.9747 24.927 72.1271 25.0921 73.2528 25.1747C73.7102 25.1983 74.0854 25.2691 74.0854 25.3163C74.0854 25.3752 73.8391 25.564 73.5343 25.7409C72.9362 26.083 71.9864 26.1892 71.4001 25.9768C71.1187 25.8825 71.1187 25.8825 71.2008 26.4841C71.2594 26.9677 71.2477 27.1093 71.107 27.1565C71.0132 27.1918 70.333 27.0857 69.606 26.9205C67.2491 26.3897 66.0882 26.3779 65.3026 26.8616L64.9039 27.1093L65.7364 27.8878C66.3814 28.5012 66.5807 28.7607 66.5807 29.0085C66.5807 29.2444 66.5221 29.327 66.3462 29.327C66.1703 29.327 66.1117 29.2444 66.1117 28.9967C66.1117 28.4776 65.9827 28.3597 65.5723 28.5248C65.2439 28.6428 65.1384 28.6192 64.5638 28.2889C63.7782 27.8288 63.5906 27.817 63.3443 28.2063C62.8166 29.0202 61.5854 27.9822 61.5502 26.6964C61.5268 25.8943 62.3828 25.1983 63.3795 25.1983C63.8954 25.1983 64.1534 25.4106 64.2824 25.9297C64.3293 26.142 64.4583 26.2835 64.6459 26.3307C65.0915 26.4487 65.3377 26.3071 65.2322 25.9886C65.0798 25.505 65.1501 25.1511 65.4667 24.8798C65.8302 24.5495 66.053 24.5259 65.9358 24.809C65.8889 24.927 65.8185 25.1629 65.7951 25.3399C65.7482 25.6112 65.7833 25.6702 66.053 25.7409C66.7097 25.9061 67.7064 25.3634 67.6126 24.8916C67.5892 24.7736 67.3898 24.5731 67.167 24.4434C66.7566 24.1956 65.9475 24.1484 64.3997 24.2546C63.743 24.3018 63.2271 24.0187 62.0427 22.9688C60.6473 21.7184 60.1079 21.3174 59.8617 21.3056C59.4161 21.3056 59.4747 20.5388 59.9555 20.0552C60.1548 19.8547 60.319 19.7839 60.5183 19.8311C60.8818 19.9254 61.5151 19.4418 62.6525 18.1914C63.4029 17.3775 64.2589 16.7051 64.5756 16.7051C64.6107 16.7051 65.0211 16.8466 65.5019 17.0118ZM56.1093 17.4836C56.1445 17.578 56.1211 17.7903 56.0507 17.9555C55.9452 18.1796 55.8279 18.2386 55.4996 18.2386C54.925 18.2386 54.8195 17.9319 55.2768 17.5662C55.6755 17.2477 56.0038 17.2123 56.1093 17.4836ZM52.9785 18.4391C52.9785 18.4981 52.8143 18.6396 52.615 18.7694C52.099 19.1115 51.97 19.3828 52.228 19.6659C52.5329 20.008 52.9081 19.9372 53.5062 19.4182C54.0338 18.9581 54.5263 18.8166 54.6788 19.0643C54.7139 19.1351 54.6905 19.371 54.6084 19.5951C54.4794 19.949 54.4794 20.0316 54.6788 20.2439C55.0657 20.6804 55.4292 20.5034 55.8396 19.6895C56.2735 18.8284 57.0943 18.7222 57.3054 19.489C57.4813 20.1142 57.2819 20.5388 56.7308 20.763C56.4025 20.8927 56.2852 20.9989 56.3321 21.1286C56.4846 21.5179 56.9771 21.3174 57.6572 20.5978C58.3373 19.89 58.607 19.7367 58.607 20.067C58.607 20.468 58.1731 21.0697 56.9536 22.32C56.1562 23.134 55.6755 23.7356 55.6755 23.8771C55.6755 24.0187 55.8514 24.2664 56.0859 24.4551C56.7543 24.9978 56.6487 25.0803 55.2768 25.0803C54.5967 25.0803 54.0221 25.0332 53.9869 24.986C53.9517 24.927 54.0807 24.7265 54.2683 24.5495C54.4677 24.3608 54.6201 24.1484 54.6201 24.0659C54.6201 23.8417 53.5882 22.957 53.3303 22.957C53.1896 22.957 53.0254 23.0986 52.9199 23.3109C52.6971 23.7474 52.4156 23.7592 51.4306 23.3817C50.5746 23.0514 49.3434 22.4852 49.3434 22.4262C49.3434 22.4026 49.9297 22.0251 50.6333 21.6005C51.3486 21.1758 51.9231 20.7983 51.9231 20.7747C51.9231 20.7512 51.5948 20.8101 51.1961 20.9045C50.7857 20.9989 50.2698 21.0697 50.047 21.0461C49.66 21.0107 49.6366 20.9871 49.6717 20.6214C49.7069 20.2793 49.6717 20.2321 49.3551 20.1731C49.1558 20.126 48.9916 20.0552 48.9916 19.9962C48.9916 19.7485 50.2932 18.9817 51.3955 18.5807C51.9818 18.3683 52.9785 18.2858 52.9785 18.4391ZM78.1661 22.2375C78.1895 22.3083 77.955 22.6385 77.6267 22.957C77.0286 23.5586 76.6651 23.712 76.6651 23.3345C76.6651 22.957 77.1928 22.3436 77.7205 22.1077C77.9433 22.0133 78.1074 22.0487 78.1661 22.2375ZM59.9555 22.6385C60.4832 22.9452 60.5652 23.2401 60.1314 23.2873C59.7796 23.3227 59.1464 22.957 58.9588 22.6149C58.8415 22.3908 58.865 22.3672 59.1581 22.3672C59.334 22.3672 59.6975 22.497 59.9555 22.6385ZM73.9681 27.3216C74.2496 27.6047 74.2496 27.6637 74.015 28.0058C73.7805 28.3479 73.3701 28.3361 72.9245 27.9586C72.5845 27.6755 72.4672 27.3452 72.6431 27.1683C72.819 26.9795 73.7336 27.0857 73.9681 27.3216ZM76.1374 27.4514C76.5127 27.8996 76.4775 28.1945 76.0554 28.2417C75.6567 28.2889 75.3166 27.817 75.4222 27.3806C75.5277 26.9795 75.7622 27.0031 76.1374 27.4514ZM82.1412 28.2535C82.4109 28.3833 82.8213 28.6192 83.0558 28.7725C83.6069 29.15 83.4428 29.209 81.9301 29.209C80.2885 29.209 79.925 28.9613 80.6637 28.3361C81.0858 27.9704 81.4728 27.9586 82.1412 28.2535ZM85.3424 28.7018C85.3424 29.2798 85.4714 29.3505 86.3508 29.3034C87.1013 29.268 87.1599 29.2798 87.1248 29.5039C87.0896 29.787 85.6825 32.6299 85.5769 32.6299C85.4245 32.6299 84.6506 30.6481 84.5685 30.0701C84.5099 29.5747 84.545 29.3623 84.7561 28.9259C85.0493 28.3125 85.3424 28.2063 85.3424 28.7018ZM66.1586 30.1999C66.7331 30.6009 67.2256 30.9902 67.2608 31.0728C67.296 31.2025 66.8739 31.2261 64.9625 31.1907C63.4381 31.1672 62.5587 31.1082 62.4766 31.0256C62.3124 30.8605 63.3795 29.8578 64.0362 29.5629C64.6459 29.2798 64.9508 29.3741 66.1586 30.1999ZM83.0676 32.3232C83.2786 32.4883 83.2786 32.5001 82.962 32.5709C82.6454 32.6535 81.8598 32.5827 81.7425 32.4647C81.4376 32.1698 82.6689 32.0401 83.0676 32.3232Z" fill="#C42B2B"/>
<path d="M62.0558 22.1903C61.962 22.438 62.2552 22.7565 63.1112 23.3109C63.9085 23.8417 64.401 23.9833 64.6473 23.7827C65.2922 23.2401 64.2017 22.3318 62.6187 22.0841C62.2317 22.0251 62.1027 22.0487 62.0558 22.1903Z" fill="#C42B2B"/>
<path d="M70.7557 23.9125C70.3804 24.3489 70.3218 25.1275 70.6619 25.0567C70.8729 25.0213 71.3889 24.113 71.3889 23.7591C71.3889 23.4406 71.0957 23.5114 70.7557 23.9125Z" fill="#C42B2B"/>
<path d="M53.4006 21.5179C53.3068 21.683 53.8931 22.4733 54.2684 22.6621C54.714 22.8862 55.1596 22.8862 55.2534 22.6503C55.3472 22.4144 54.8664 21.9425 54.2332 21.6594C53.6938 21.3999 53.4945 21.3763 53.4006 21.5179Z" fill="#C42B2B"/>
<path d="M98.5217 16.7169C97.4546 16.8585 96.3993 17.2949 96.54 17.5309C96.5869 17.6016 96.7628 17.6488 96.9387 17.6488C97.3608 17.6488 97.5719 17.8965 97.4664 18.2858L97.396 18.5925L98.1934 18.5217C99.0494 18.451 99.1549 18.4746 100.691 19.1233C102.028 19.6896 103.634 19.5008 103.634 18.7813C103.634 17.7668 100.433 16.4692 98.5217 16.7169Z" fill="#C42B2B"/>
<path d="M18.4329 25.906C17.8701 26.083 16.9789 26.7436 16.7092 27.1918C16.463 27.5929 16.463 27.6047 16.6858 27.5103C17.2838 27.2862 17.5183 27.298 17.8935 27.6165C18.3626 28.0175 18.8199 27.9586 19.6407 27.4041C20.3443 26.9323 20.5319 26.484 20.1801 26.1184C19.887 25.8353 19.0192 25.7291 18.4329 25.906Z" fill="#C42B2B"/>
<path d="M132.2 26.1184C132.165 26.1773 132.212 26.4722 132.306 26.7907C132.552 27.5929 132.552 27.6047 131.989 27.4985C131.004 27.3334 130.781 27.357 130.816 27.6165C130.934 28.513 130.899 28.6427 130.383 29.0792C129.984 29.4213 129.878 29.5982 129.82 30.0111C129.702 30.9076 130.336 32.04 130.969 32.04C131.321 32.04 131.872 31.4738 132.095 30.884L132.306 30.3296L132.388 30.8014C132.435 31.0609 132.47 31.4974 132.47 31.7687C132.482 32.04 132.54 32.5473 132.611 32.8894C132.728 33.432 132.845 33.6089 133.584 34.3167C134.44 35.1424 134.428 35.225 133.443 34.8593C133.091 34.7295 132.599 34.7295 132.599 34.8475C132.599 34.9065 133.08 35.6378 133.666 36.4754C134.815 38.1268 135.472 39.3654 135.601 40.1322C135.683 40.6512 135.519 41.1231 135.261 41.1231C135.179 41.1231 134.674 40.9107 134.147 40.6512C132.435 39.8255 131.837 39.7547 131.543 40.3799C131.461 40.5686 131.356 41.4533 131.297 42.4796C131.25 43.4469 131.098 44.886 130.969 45.6764C130.559 48.0474 130.605 48.2243 131.684 48.1889C132.517 48.1536 132.81 48.3305 132.892 48.8849C133.056 49.8404 133.091 49.9702 133.244 49.9702C133.338 49.9702 133.748 49.7342 134.17 49.4393C134.592 49.1444 134.944 48.9439 134.944 48.9793C134.944 49.0147 134.756 49.286 134.534 49.5809C134.065 50.1943 133.9 50.6543 134.111 50.7841C134.194 50.8431 134.135 51.02 133.912 51.3503C133.736 51.6098 133.42 52.0817 133.22 52.4002C132.974 52.754 132.833 53.1079 132.833 53.3557C132.833 53.6623 132.728 53.8511 132.341 54.2286C131.415 55.1369 129.972 56.0098 129.175 56.1513C128.682 56.2457 128.565 56.3991 128.448 57.1068C128.342 57.7438 128.225 58.0623 127.486 59.643C126.583 61.5776 126.384 62.3561 126.267 64.2907C126.185 65.7534 126.15 65.9539 125.927 66.1191C125.481 66.4612 125.247 69.0681 125.434 71.7576C125.551 73.527 125.692 73.9163 126.232 74.0579C126.724 74.1876 127.088 74.6359 127.791 76.016C128.917 78.2219 130.359 79.72 131.743 80.1211C132.411 80.3216 132.423 80.3098 133.384 79.9913C134.252 79.6964 134.452 79.6728 135.378 79.7554C136.586 79.838 136.973 79.7318 138.098 79.0005C138.978 78.4342 139.681 78.2101 140.104 78.3635C140.385 78.4578 140.49 78.6584 140.631 79.3661C140.713 79.779 141.135 80.0031 142.003 80.1093C142.918 80.2273 142.976 80.3098 142.847 81.5602C142.789 82.1264 142.742 83.5184 142.742 84.6508C142.754 86.4084 142.801 86.9393 143.07 88.2486C143.621 90.9735 143.61 91.3628 142.929 92.8255C142.191 94.4062 141.804 96.5885 141.217 102.498C140.725 107.299 140.561 108.597 140.197 110.095C140.057 110.697 139.986 111.228 140.033 111.275C140.174 111.416 140.831 110.591 141.417 109.517C143.164 106.368 143.879 105.4 144.935 104.869C146.248 104.197 147.139 101.791 147.374 98.24C147.526 95.9515 147.714 94.6657 148.37 91.3628C149.637 85.0283 150 81.513 150 75.6857C150 70.8139 149.731 68.3485 148.312 60.0559C147.596 55.9036 147.667 56.1631 146.987 55.4436C146.436 54.8774 145.826 54.5589 145.65 54.7358C145.615 54.7712 145.673 55.1251 145.779 55.5261C145.967 56.1867 145.955 56.5524 145.755 56.2811C145.369 55.7385 144.255 53.9573 143.762 53.0843C143.058 51.8457 142.965 51.4683 143.352 51.4093C143.774 51.3503 144.442 51.7396 145.322 52.5771C146.33 53.5326 146.647 53.7213 146.752 53.4382C146.928 52.9546 145.978 50.1117 144.348 46.3134C141.886 40.5215 139.904 36.6877 139.201 36.3692C139.048 36.2984 138.802 35.9681 138.626 35.5907C137.805 33.833 137.5 33.2786 136.457 31.6861C135.296 29.9403 134.1 28.4894 133.947 28.6427C133.807 28.7843 134.147 29.5392 135.073 31.2379C136.07 33.0427 136.175 33.5381 135.765 34.4936C135.413 35.3194 135.179 35.5081 135.261 34.8947C135.354 34.2341 135.05 33.2904 134.123 31.3323C133.044 29.0202 132.915 28.6191 132.904 27.4867C132.892 26.7082 132.845 26.4722 132.669 26.2717C132.435 26.0122 132.294 25.965 132.2 26.1184ZM140.068 44.485C141.522 46.219 143.27 50.3712 142.695 50.7251C142.519 50.8431 142.331 50.3122 142.331 49.6753C142.331 48.9321 142.156 48.8731 139.447 48.6726C137.922 48.5664 137.43 48.4013 137.102 47.894C136.656 47.2217 137.231 45.5348 138.239 44.5203C138.696 44.0603 138.884 43.9541 139.212 43.9541C139.552 43.9541 139.693 44.0367 140.068 44.485ZM144.301 49.9112C144.724 50.2651 145.005 50.8667 144.817 51.0554C144.442 51.4329 143.739 50.7251 143.739 49.9702C143.739 49.5455 143.844 49.5219 144.301 49.9112Z" fill="#C42B2B"/>
<path d="M17.2858 32.854C17.0395 33.1253 17.0747 33.6208 17.3561 33.6679C17.4617 33.6915 17.7196 33.5382 17.9424 33.3495C18.3177 32.9956 18.3177 32.972 18.1066 32.8068C17.79 32.5709 17.532 32.5827 17.2858 32.854Z" fill="#C42B2B"/>
<path d="M11.1642 35.7795C11.0352 35.9918 10.9531 36.3339 10.9414 36.6996C10.9414 37.254 10.9649 37.2894 11.2346 37.2894C11.6567 37.2894 12.0788 36.617 12.0319 35.9918C11.9968 35.5789 11.9616 35.5199 11.6919 35.4846C11.4691 35.461 11.3284 35.5317 11.1642 35.7795Z" fill="#C42B2B"/>
<path d="M13.7684 36.2513C13.229 36.6052 13.2407 36.9237 13.7919 36.9709C14.2726 37.0181 14.5189 36.8293 14.5189 36.4047C14.5189 35.9446 14.2726 35.8974 13.7684 36.2513Z" fill="#C42B2B"/>
<path d="M134.135 39.4126C133.701 39.7901 133.678 39.9081 134.065 40.085C134.475 40.2738 134.968 39.9317 134.921 39.4952C134.874 39.0706 134.581 39.0352 134.135 39.4126Z" fill="#C42B2B"/>
<path d="M8.021 40.8872C7.24708 41.7601 5.28883 46.2073 4.49146 48.9676C4.31557 49.5456 4.1045 50.5247 4.01069 51.1381C3.84653 52.2115 3.72927 52.5064 3.38921 52.7306C2.72083 53.1552 1.5834 58.1686 0.868108 63.8897C0.38734 67.747 0.281805 69.139 0.281805 72.029C0.270079 74.4472 0.293531 74.8601 0.481148 75.2376C0.739122 75.8038 1.20816 75.8628 1.39578 75.3556C1.46614 75.1786 1.57167 73.3266 1.6303 70.9674C1.73584 66.7444 1.87655 65.4114 2.31041 64.4323C2.61529 63.7364 2.96707 63.5004 3.60028 63.6066C4.21003 63.701 4.50319 63.4768 4.60872 62.828C4.71425 62.2147 4.50319 61.5187 4.08105 61.1176C3.62373 60.6812 3.50647 60.2329 3.42439 58.6404C3.27195 55.9273 3.94034 52.6834 4.65562 52.6834C4.9136 52.6834 5.20675 53.2378 5.32401 53.9574C5.35919 54.2287 5.46472 54.5354 5.5468 54.6415C5.67579 54.8185 5.71097 54.7949 5.98067 54.441C6.49662 53.7686 7.35262 51.9756 7.71613 50.8432C8.44314 48.5547 8.52522 46.0421 7.88029 45.7944C7.61059 45.6883 7.25881 46.1955 7.18845 46.7735C6.91875 48.8732 6.67251 49.6871 6.01585 50.5837C5.47645 51.3268 5.25365 51.3268 5.25365 50.5837C5.25365 49.1091 6.309 46.6673 7.55196 45.2518C8.71284 43.9306 8.79492 43.6947 8.59558 42.2556C8.50177 41.6068 8.5135 41.5596 8.72457 41.6186C9.29914 41.7837 9.29914 41.7837 9.26396 41.4299C9.20533 40.9108 8.91218 40.4154 8.66594 40.4154C8.54867 40.4154 8.25552 40.6277 8.021 40.8872Z" fill="#C42B2B"/>
<path d="M132.657 51.079C132.235 51.7278 132.915 51.9873 133.478 51.3857C133.771 51.079 133.794 51.0083 133.654 50.9139C133.325 50.7016 132.845 50.7841 132.657 51.079Z" fill="#C42B2B"/>
<path d="M72.3273 57.3901C71.5651 57.626 70.4512 58.4399 70.4512 58.7702C70.4512 59.0179 70.885 59.1949 71.5769 59.1949C72.2218 59.2067 72.6205 59.0179 72.515 58.7466C72.4094 58.4753 72.8081 58.2866 73.4999 58.2866C74.3208 58.2866 74.5905 58.4635 74.4263 58.8882C74.2621 59.3482 74.2973 59.4072 74.6843 59.2656C75.2002 59.0887 75.8569 59.2303 77.2406 59.8319C78.8119 60.5278 79.3982 60.7048 80.1369 60.7048C81.4737 60.7048 81.075 60.115 79.1285 59.1831C75.9038 57.6496 73.5234 57.0244 72.3273 57.3901Z" fill="#C42B2B"/>
<path d="M84.9427 62.2383L84.5206 62.8399L83.8287 62.8163C83.0548 62.7927 82.8789 62.8635 82.8789 63.182C82.8789 63.7246 83.688 63.7836 87.1589 63.4769C89.5041 63.2645 90.0318 63.1348 90.0318 62.7691C90.0318 62.6629 89.8559 62.486 89.6566 62.3562C89.34 62.1675 89.0585 62.1203 88.1556 62.1203C87.3583 62.1085 86.854 62.0495 86.3967 61.8844C86.0449 61.7546 85.6697 61.6603 85.5524 61.6485C85.4469 61.6485 85.1772 61.9198 84.9427 62.2383Z" fill="#C42B2B"/>
<path d="M79.0341 63.1348C78.6237 63.5476 78.6237 63.5712 78.8348 63.7246C79.0576 63.8897 80.0309 63.9487 80.5116 63.8189C80.8634 63.7128 80.84 63.5122 80.3944 63.0758C79.9019 62.5921 79.5618 62.6039 79.0341 63.1348Z" fill="#C42B2B"/>
<path d="M91.4992 63.0757C90.8309 63.6655 91.0067 63.8896 92.1442 63.8896C92.8126 63.8896 93.1995 63.7835 93.1995 63.6065C93.1995 63.3706 92.4373 62.71 92.1676 62.71C92.0269 62.71 91.7338 62.8752 91.4992 63.0757Z" fill="#C42B2B"/>
<path d="M4.71544 66.6971C4.17604 67.051 4.09396 69.1507 4.55128 70.8258C4.86788 71.9818 5.11413 72.3593 5.6418 72.4064L6.01703 72.4418L5.98186 73.4445C5.94668 74.6477 6.00531 74.9426 6.31018 75.037C6.88476 75.2257 8.06909 74.0697 8.06909 73.3265C8.06909 72.8547 7.94011 72.6424 6.91994 71.4981C5.84114 70.2831 5.25484 68.962 5.25484 67.7706C5.25484 67.1925 5.09067 66.6027 4.93824 66.6027C4.87961 66.6027 4.7858 66.6499 4.71544 66.6971Z" fill="#C42B2B"/>
<path d="M4.86683 73.5271C4.31571 74.1523 3.87012 75.7566 4.16327 76.0515C4.35089 76.2402 4.74957 75.9925 4.97237 75.5442C5.20689 75.096 5.33588 73.7984 5.17171 73.5153C5.06618 73.3266 5.05445 73.3383 4.86683 73.5271Z" fill="#C42B2B"/>
<path d="M7.83269 74.9662C7.77406 75.096 7.71543 75.3083 7.71543 75.4498C7.71543 75.8273 7.51609 76.134 7.12913 76.3346C6.92978 76.4407 6.77734 76.5941 6.77734 76.6884C6.77734 77.29 7.91477 78.8707 8.34864 78.8707C9.04047 78.8707 9.13428 75.6032 8.4659 74.919C8.21965 74.6831 7.98513 74.6949 7.83269 74.9662Z" fill="#C42B2B"/>
<path d="M0.0825359 76.889C-0.0816289 77.1957 -0.0112726 78.3518 0.387413 81.6783C0.856456 85.5356 1.33722 87.2814 1.80627 86.8804C2.01734 86.7034 2.00561 86.031 1.79454 84.8278C1.71246 84.3088 1.50139 82.7989 1.3255 81.4659C0.985442 78.7292 0.856456 77.9861 0.610208 77.1839C0.410865 76.5705 0.293605 76.4998 0.0825359 76.889Z" fill="#C42B2B"/>
<path d="M4.0361 78.1512C3.00421 80.1801 2.52344 82.1265 2.52344 84.238C2.52344 86.3849 2.82831 86.9511 4.01265 87.0337C4.72794 87.0808 4.90383 86.8803 5.29079 85.512C5.44323 84.9693 5.59566 84.5093 5.63084 84.4739C5.66602 84.4385 5.72465 85.1109 5.77156 85.972C5.90054 88.6026 6.14679 89.8411 6.54548 89.8411C6.61583 89.8411 6.8738 89.6524 7.13178 89.4165L7.58909 88.9918L7.83534 89.3929C7.96433 89.6052 8.06986 89.8176 8.06986 89.8647C8.06986 89.9237 8.12849 89.9591 8.19885 89.9591C8.4451 89.9591 8.23403 88.6497 7.84707 87.7886C7.46011 86.9157 7.37803 86.3023 7.64772 86.0782C7.87052 85.8894 8.1754 86.0546 8.48027 86.5264C8.73825 86.9393 8.83206 86.9747 8.93759 86.7152C9.13693 86.1843 8.36301 85.4176 7.12005 84.934L6.25232 84.5919L7.19041 84.5211C8.14022 84.4503 8.59754 84.297 8.85551 83.9549C9.06658 83.6836 9.04313 83.5066 8.7617 83.2235C8.5389 82.9994 8.43337 82.9876 7.49529 83.0584C6.31095 83.1527 5.90054 83.023 5.51358 82.386C5.18525 81.8316 5.04454 81.2536 4.90383 79.6847C4.69276 77.4552 4.52859 77.1603 4.0361 78.1512Z" fill="#C42B2B"/>
<path d="M35.0371 78.564C35.0371 78.9297 35.7172 79.5431 36.667 80.0503C37.4761 80.4868 38.039 81.0884 38.1445 81.631C38.2735 82.2916 38.3321 82.4095 38.5667 82.5275C39.1295 82.8342 39.5165 82.0793 39.2585 81.1709C39.0357 80.3806 38.0976 79.5549 36.3856 78.6584C35.5062 78.1865 35.0371 78.1629 35.0371 78.564Z" fill="#C42B2B"/>
<path d="M10.1784 82.7871C9.77976 83.4477 9.73285 85.1581 10.0729 86.4321C10.1902 86.8921 10.4599 87.1045 10.6123 86.8567C10.7296 86.6798 10.8116 83.0938 10.7178 82.6927C10.6123 82.3034 10.4481 82.3388 10.1784 82.7871Z" fill="#C42B2B"/>
<path d="M12.1484 84.8514C11.8552 85.1935 11.7262 85.5002 11.6441 86.1254C11.609 86.4439 11.5503 86.8332 11.5269 86.963C11.4565 87.2815 10.8116 87.5999 10.2605 87.5999C9.00579 87.5999 8.88852 88.3431 10.0963 88.6734C10.753 88.8503 12.1484 88.8385 12.3712 88.638C12.5002 88.5318 12.5353 88.3549 12.4767 87.9184C12.3829 87.2461 12.5236 87.0101 12.9926 87.0101C13.4382 87.0101 13.6259 87.2697 13.5438 87.7887C13.4148 88.6026 13.7666 88.9683 15.9359 90.1951C17.1671 90.8911 18.6212 92.3892 18.6212 92.9436C18.6212 93.0616 18.4804 93.1677 18.3045 93.2149C17.8472 93.3211 17.6831 93.4862 17.6831 93.8047C17.6831 94.135 18.1873 94.4417 18.7619 94.4535C19.4068 94.4535 19.9345 94.713 20.1455 95.0905C20.3449 95.4562 20.8843 95.7157 21.4354 95.7275C21.8927 95.7393 22.5377 95.3618 22.608 95.0315C22.7135 94.5597 23.1474 94.3827 23.7806 94.5597C24.2145 94.6776 24.5194 94.9254 25.5043 95.9162C26.3955 96.8363 26.8763 97.2138 27.4391 97.4851C28.3655 97.9334 28.6 98.0041 28.8111 97.8744C29.1042 97.6856 28.729 97.0723 27.5095 95.7865C26.032 94.2294 25.692 93.4626 26.2431 92.9672C26.4776 92.7549 26.677 92.7549 28.0255 92.979C28.6469 93.0852 29.2567 92.8374 29.9133 92.2122C31.2501 90.9619 31.3322 89.4873 30.0658 89.4873C29.5616 89.4873 29.5029 89.5699 29.714 89.971C29.8664 90.2777 29.8664 90.3485 29.7023 90.6669C29.4795 91.1034 28.8463 91.5281 28.0255 91.7994C26.8177 92.1886 25.3519 91.7994 24.2497 90.8203C22.8074 89.5227 18.9847 87.482 17.8355 87.3876C17.2844 87.3404 17.1319 87.3758 16.616 87.7061C15.9242 88.1308 15.5958 88.1662 15.1737 87.8241C14.7046 87.4466 14.5757 87.1399 14.8102 86.963C14.9978 86.8332 14.9978 86.786 14.8336 86.4557C14.6108 86.0311 14.0011 85.4884 13.7197 85.4648C13.6141 85.4531 13.3679 85.4413 13.1685 85.4295C12.8871 85.4177 12.805 85.3469 12.7229 85.0284C12.594 84.6037 12.4181 84.5448 12.1484 84.8514Z" fill="#C42B2B"/>
<path d="M15.9237 86.1254C15.7829 86.4911 15.8768 87.364 16.0526 87.364C16.2989 87.364 16.4044 86.149 16.1816 85.9249C16.0878 85.8305 16.0175 85.8777 15.9237 86.1254Z" fill="#C42B2B"/>
<path d="M68.4808 86.9747C68.3987 87.0101 68.2463 87.1989 68.1525 87.3994C67.9649 87.7415 67.9649 87.7769 68.2229 87.9774C68.7505 88.4021 69.63 88.1779 69.63 87.6117C69.63 87.0691 69.0554 86.7388 68.4808 86.9747Z" fill="#C42B2B"/>
<path d="M2.33343 88.1426C1.45398 88.8739 2.23962 90.1833 4.54966 91.8466C5.18286 92.2948 6.03887 93.0498 6.461 93.5098C7.14112 94.2648 7.25838 94.3474 7.42254 94.2058C7.69224 93.9817 8.302 92.8964 8.302 92.6487C8.302 92.342 7.78605 92.0117 6.91832 91.7404C5.76917 91.3865 5.5581 91.2096 5.65191 90.6552L5.72226 90.2069L5.3353 90.2777C4.45585 90.4192 3.06045 89.1099 3.16598 88.2487C3.20116 87.8831 3.17771 87.8359 2.95491 87.8359C2.8142 87.8359 2.53278 87.9774 2.33343 88.1426Z" fill="#C42B2B"/>
<path d="M14.8813 90.891C14.6936 91.0797 14.6467 91.2213 14.7054 91.469C14.7992 91.8583 15.2096 92.5543 15.3386 92.5543C15.7607 92.5543 15.7959 91.0915 15.3737 90.8202C15.151 90.6669 15.0923 90.6787 14.8813 90.891Z" fill="#C42B2B"/>
<path d="M32.2227 92.283C32.2344 92.979 32.9966 93.9226 33.8291 94.2647C34.2864 94.4653 35.459 94.5007 35.5646 94.3355C35.6467 94.194 34.4389 93.1677 33.4656 92.5307C32.7152 92.0471 32.2227 91.9409 32.2227 92.283Z" fill="#C42B2B"/>
<path d="M9.8859 92.4245C9.07681 92.7902 8.45533 93.7457 8.73675 94.1939C8.86574 94.3945 9.46377 94.5006 9.8859 94.3945C10.097 94.3355 10.2142 94.1349 10.4488 93.3564C10.8357 92.106 10.7888 92.0116 9.8859 92.4245Z" fill="#C42B2B"/>
<path d="M13.0864 92.4717C12.676 92.802 12.6643 93.0969 13.0512 93.1912C13.4382 93.2856 13.79 93.0969 13.8838 92.7312C14.0245 92.1532 13.6258 92.0234 13.0864 92.4717Z" fill="#C42B2B"/>
<path d="M36.7984 94.9607C36.2004 95.3618 35.9072 95.4208 35.2623 95.2674C34.6056 95.1023 34.5118 95.1377 34.6291 95.5033C34.7346 95.8336 35.3561 96.0931 36.001 96.0931C36.517 96.0813 37.9358 95.8218 38.0414 95.7039C38.1821 95.5623 37.5723 94.6776 37.3378 94.6776C37.2674 94.6776 37.0212 94.8074 36.7984 94.9607Z" fill="#C42B2B"/>
<path d="M13.438 96.0577C13.2269 96.3055 12.9924 97.0722 12.9924 97.5323C12.9924 98.1221 12.6406 98.3344 11.6322 98.3344C10.5534 98.3344 10.3306 98.4406 10.2368 99.0186C10.1078 99.7617 10.0492 99.8797 9.73258 100.021C9.28699 100.222 9.24008 100.328 9.31044 100.989C9.39252 101.708 9.16973 102.05 8.23164 102.652C7.12939 103.36 7.21147 103.784 9.3808 108.491C11.8198 113.764 12.5468 114.684 14.7279 115.203C15.4197 115.368 15.5018 115.333 15.5135 114.873C15.5135 114.566 15.537 114.554 16.1116 114.554C17.2724 114.566 19.1017 115.781 20.4619 117.444C21.6228 118.86 22.514 119.803 22.6781 119.803C22.9127 119.803 24.2377 121.16 26.3836 123.578C29.0454 126.598 29.7724 127.223 30.0538 126.751C30.2884 126.374 29.7021 125.56 28.5646 124.687C28.1894 124.392 27.8845 124.109 27.8845 124.05C27.8845 123.991 28.3301 123.802 28.8695 123.637C29.96 123.307 30.5229 122.882 30.6401 122.328C30.8512 121.243 30.9919 120.83 31.461 119.91C32.1059 118.636 32.2818 117.727 32.188 115.97C32.1176 114.719 31.8127 113.304 31.461 112.62C31.3789 112.443 31.0857 112.042 30.8278 111.723C30.5581 111.393 30.2297 110.838 30.1007 110.484C29.831 109.741 29.2916 108.998 28.1542 107.76C26.4774 105.931 26.0435 105.223 25.082 102.829C24.484 101.354 24.1087 100.694 23.8507 100.694C23.628 100.694 23.241 99.9033 22.9244 98.7826C22.5023 97.2845 22.1153 96.7773 21.6932 97.202C21.5173 97.3789 21.4938 97.6502 21.529 99.2781C21.5407 100.316 21.529 101.165 21.4938 101.165C21.4469 101.165 20.8254 100.859 20.1101 100.493C18.6209 99.7263 17.976 99.1955 17.6711 98.4877C17.4249 97.9215 16.8972 97.5912 15.5018 97.1784C14.5872 96.8953 14.0829 96.565 13.9305 96.1403C13.8015 95.7982 13.6725 95.7864 13.438 96.0577ZM30.816 113.315C31.0623 113.799 31.1326 114.377 30.945 114.377C30.7926 114.377 30.2766 113.681 30.1828 113.351C29.9835 112.702 30.4877 112.667 30.816 113.315Z" fill="#C42B2B"/>
<path d="M38.3568 96.4706C37.8877 96.8009 37.5828 97.3553 37.6297 97.7446C37.6767 98.0159 37.7236 98.0395 38.1457 97.9923C39.1893 97.8979 39.1893 97.8979 39.3652 98.299C39.5294 98.6647 39.8929 98.9124 40.0453 98.7591C40.2916 98.5113 39.8694 97.2491 39.33 96.5886C38.9431 96.1403 38.8493 96.1285 38.3568 96.4706Z" fill="#C42B2B"/>
<path d="M44.6073 103.477C44.4314 103.926 44.6542 104.787 45.088 105.294C45.3226 105.589 45.4633 105.648 45.7564 105.624C46.0261 105.601 46.1317 105.53 46.1551 105.318C46.202 104.999 45.7095 103.879 45.3695 103.536C45.0763 103.242 44.7128 103.218 44.6073 103.477Z" fill="#C42B2B"/>
<path d="M57.7035 105.955C57.6097 106.226 57.7973 106.509 58.1843 106.639C58.4305 106.733 58.5595 106.71 58.8175 106.509C58.9934 106.379 59.1341 106.167 59.1341 106.049C59.1341 105.86 59.0286 105.825 58.454 105.789C57.9146 105.766 57.7739 105.789 57.7035 105.955Z" fill="#C42B2B"/>
<path d="M55.6755 106.698C55.3354 107.347 55.7928 108.161 56.4846 108.161C56.9419 108.161 57.1999 107.936 57.1999 107.547C57.1882 106.792 55.9921 106.12 55.6755 106.698Z" fill="#C42B2B"/>
<path d="M41.9561 109.057C41.874 109.222 41.874 109.387 41.9561 109.612C42.2023 110.237 43.0935 111.121 43.6329 111.251C43.9026 111.322 43.9495 111.298 43.9495 111.074C43.9495 110.638 43.4688 109.788 42.9294 109.293C42.3782 108.786 42.1437 108.727 41.9561 109.057Z" fill="#C42B2B"/>
<path d="M42.871 117.857C42.7655 118.093 42.7655 118.411 42.871 119.202C43.1056 120.995 43.0235 121.337 42.2965 121.337C41.8157 121.337 41.8743 121.502 42.4841 121.927C42.7772 122.127 43.0118 122.34 43.0118 122.387C43.0118 122.446 42.7421 122.516 42.4137 122.564C40.7604 122.788 36.6797 124.982 36.6797 125.642C36.6797 125.914 37.2777 126.291 37.6881 126.291C38.38 126.291 39.6112 125.725 41.1825 124.675C42.0268 124.121 42.9414 123.566 43.2228 123.448C43.7036 123.236 44.6065 122.658 45.7439 121.832L46.3068 121.419L45.3804 120.464C44.3368 119.379 43.9967 118.919 43.8091 118.364C43.5512 117.574 43.1056 117.338 42.871 117.857Z" fill="#C42B2B"/>
<path d="M93.2584 137.049C92.7659 137.226 92.3789 137.604 92.3789 137.922C92.3789 138.217 92.9887 138.795 93.3053 138.795C93.6336 138.795 94.2668 138.312 94.7007 137.734C95.0759 137.25 95.0876 137.203 94.8883 137.061C94.642 136.884 93.7626 136.872 93.2584 137.049Z" fill="#C42B2B"/>
<path d="M107.914 141.815C107.398 142.051 106.659 142.381 106.284 142.535C105.557 142.841 104.126 143.148 103.364 143.16C102.649 143.16 101.218 143.49 99.7642 143.985C96.5747 145.071 93.1976 145.59 89.926 145.495C88.4485 145.46 88.2609 145.425 87.6981 145.13C86.7483 144.634 86.3261 144.611 85.2004 144.988C84.661 145.165 84.1568 145.342 84.0747 145.389C83.9692 145.448 84.4031 145.814 85.3294 146.474L86.7365 147.465L84.7197 147.536C83.2656 147.583 82.5503 147.654 82.1751 147.796C81.8819 147.902 81.5302 147.996 81.3895 147.996C81.1549 147.996 81.1198 147.937 81.1198 147.536C81.1198 146.805 80.9556 146.746 79.5602 147.041C77.0156 147.571 75.9837 147.501 73.4392 146.64C71.6451 146.026 71.1526 145.979 70.6718 146.392C70.1207 146.864 69.3351 146.887 66.3449 146.581C64.8909 146.427 63.2844 146.297 62.7567 146.309C61.0916 146.333 58.594 146.946 58.3126 147.406C57.9373 148.008 66.6029 149.565 72.2197 149.895C79.3726 150.32 89.2928 149.423 95.836 147.737C99.7994 146.722 107.269 143.75 109.591 142.263C110.13 141.909 110.189 141.827 110.083 141.626C109.872 141.237 109.028 141.308 107.914 141.815Z" fill="#C42B2B"/>
</svg>
