<svg width="167" height="128" viewBox="0 0 167 128" fill="none" xmlns="http://www.w3.org/2000/svg">
<path d="M0.845653 45.8342C1.90715 37.1867 9.46476 25.6638 19.3162 24.5946C29.1677 23.5253 38.11 26.8732 28.1609 37.3708C18.2118 47.8684 16.4743 61.606 8.75933 57.9391C1.04432 54.2722 0.423075 49.2802 0.845653 45.8342Z" fill="#FF7070"/>
<path d="M23.5713 118.282C12.0388 111.107 0.630782 103.534 0.140019 85.2295C-0.350745 66.925 24.323 65.0039 44.4553 52.8902C64.5875 40.7765 76.9079 28.4447 90.5534 45.1972C104.199 61.9496 95.9021 86.7913 85.7122 98.9401C75.5224 111.089 63.6237 143.205 23.5713 118.282Z" fill="#FF7070"/>
<path d="M154.198 88.4691C159.397 88.4691 163.611 84.295 163.611 79.146C163.611 73.9971 159.397 69.823 154.198 69.823C149 69.823 144.785 73.9971 144.785 79.146C144.785 84.295 149 88.4691 154.198 88.4691Z" fill="#CCCCCC"/>
<g opacity="0.44">
<path opacity="0.44" d="M144.815 80.5596C144.815 80.5596 144.031 73.7456 149.763 70.958C154.87 68.4742 158.976 71.1129 159.179 71.2677C159.382 71.4226 163.488 74.2102 163.488 78.7013C163.488 83.1924 161.776 84.8959 161.413 85.2056C161.05 85.5153 158.54 88.7675 153.433 88.4578C148.565 88.1625 146.89 84.741 146.092 83.9667C145.294 83.1924 144.815 80.5596 144.815 80.5596Z" fill="#FF2222"/>
</g>
<path d="M148.641 71.8812C148.272 71.1693 147.83 70.4966 147.322 69.8733C146.827 69.4045 145.627 70.6419 145.185 70.063C144.742 69.4842 145.951 68.5021 147.281 67.7695C148.611 67.0369 149.505 67.0464 149.128 67.9223C148.752 68.7981 147.973 68.6814 148.435 69.5032C148.898 70.325 149.533 71.1989 149.533 71.1989C149.533 71.1989 149.465 71.736 148.641 71.8812Z" fill="#E34F4F"/>
<path d="M153.417 70.197C153.449 69.687 153.429 69.1752 153.356 68.6693C153.239 68.2518 152.173 68.5421 152.121 68.081C152.069 67.6198 153.057 67.4736 154.027 67.5011C154.996 67.5286 155.485 67.8237 154.989 68.1824C154.494 68.5411 154.106 68.2242 154.088 68.8248C154.07 69.4255 154.131 70.1106 154.131 70.1106C154.131 70.1106 153.918 70.384 153.417 70.197Z" fill="#E34F4F"/>
<path d="M158.059 70.9143C158.404 70.3145 158.687 69.6814 158.903 69.0249C159.012 68.4499 157.545 68.1709 157.76 67.5826C157.974 66.9942 159.261 67.3985 160.42 68.0049C161.58 68.6113 161.995 69.2574 161.178 69.3998C160.362 69.5421 160.081 68.9253 159.698 69.6474C159.431 70.1631 159.191 70.6917 158.977 71.2312C158.977 71.2312 158.553 71.4362 158.059 70.9143Z" fill="#E34F4F"/>
<path d="M161.227 74.183C161.681 73.934 162.108 73.64 162.502 73.3054C162.796 72.9818 161.971 72.2436 162.339 71.9503C162.707 71.6571 163.365 72.4077 163.865 73.238C164.365 74.0683 164.377 74.6366 163.802 74.4146C163.227 74.1926 163.288 73.6953 162.764 74.0056C162.393 74.2312 162.034 74.475 161.687 74.7363C161.687 74.7363 161.337 74.704 161.227 74.183Z" fill="#E34F4F"/>
<path d="M163.295 78.1307C163.996 78.2057 164.702 78.2102 165.403 78.1441C165.986 78.0122 165.652 76.5526 166.291 76.5118C166.93 76.471 167.07 77.8157 166.971 79.1252C166.871 80.4347 166.434 81.0762 165.971 80.3844C165.509 79.6926 165.971 79.1868 165.142 79.1261C164.312 79.0654 163.367 79.1043 163.367 79.1043C163.367 79.1043 163.007 78.795 163.295 78.1307Z" fill="#E34F4F"/>
<path d="M162.266 83.1353C162.732 83.3593 163.22 83.5358 163.722 83.662C164.158 83.7132 164.296 82.6239 164.744 82.752C165.191 82.8801 164.956 83.8442 164.56 84.7248C164.164 85.6054 163.698 85.9412 163.554 85.35C163.41 84.7589 163.852 84.5217 163.295 84.2759C162.896 84.1056 162.489 83.9552 162.075 83.8252C162.075 83.8252 161.9 83.5234 162.266 83.1353Z" fill="#E34F4F"/>
<path d="M159.376 86.4111C159.718 87.0194 160.122 87.5917 160.581 88.1192C161.025 88.513 162.032 87.4027 162.434 87.8933C162.837 88.3839 161.812 89.2721 160.68 89.9477C159.547 90.6233 158.764 90.6393 159.069 89.8678C159.375 89.0963 160.05 89.176 159.625 88.4738C159.2 87.7717 158.621 87.0315 158.621 87.0315C158.621 87.0315 158.663 86.561 159.376 86.4111Z" fill="#E34F4F"/>
<path d="M154.789 87.9028C154.767 88.3788 154.794 88.8557 154.87 89.3262C154.985 89.7124 155.971 89.4258 156.026 89.8537C156.082 90.2817 155.164 90.4327 154.264 90.4232C153.365 90.4137 152.905 90.145 153.359 89.8044C153.813 89.4637 154.179 89.7521 154.187 89.1932C154.187 88.7946 154.167 88.3963 154.126 87.9997C154.126 87.9997 154.321 87.7368 154.789 87.9028Z" fill="#E34F4F"/>
<path d="M150.282 87.3901C149.886 88.0515 149.56 88.7509 149.307 89.4777C149.175 90.1144 150.8 90.4494 150.553 91.1003C150.306 91.7513 148.882 91.2779 147.605 90.5823C146.328 89.8867 145.88 89.1587 146.79 89.0183C147.699 88.8779 147.999 89.562 148.438 88.7707C148.878 87.9793 149.269 87.0239 149.269 87.0239C149.269 87.0239 149.742 86.8009 150.282 87.3901Z" fill="#E34F4F"/>
<path d="M147.013 84.4648C146.554 84.7169 146.123 85.0145 145.725 85.353C145.428 85.6804 146.263 86.4262 145.892 86.7223C145.521 87.0183 144.854 86.2611 144.348 85.4223C143.841 84.5834 143.829 84.0084 144.41 84.2323C144.99 84.4563 144.929 84.9591 145.459 84.645C145.989 84.3309 146.546 83.905 146.546 83.905C146.546 83.905 146.901 83.9381 147.013 84.4648Z" fill="#E34F4F"/>
<path d="M144.954 80.671C144.233 80.611 143.508 80.6237 142.79 80.7089C142.196 80.8579 142.574 82.3458 141.919 82.4037C141.265 82.4616 141.089 81.0867 141.159 79.7411C141.229 78.3955 141.661 77.7285 142.153 78.4269C142.646 79.1253 142.185 79.6538 143.035 79.6974C143.885 79.7411 144.855 79.6775 144.855 79.6775C144.855 79.6775 145.231 79.9821 144.954 80.671Z" fill="#E34F4F"/>
<path d="M146.777 75.749C146.128 75.4342 145.448 75.1856 144.748 75.007C144.141 74.933 143.947 76.455 143.316 76.2728C142.685 76.0906 143.028 74.7469 143.582 73.5209C144.136 72.2949 144.788 71.8261 144.99 72.6536C145.193 73.481 144.571 73.8084 145.346 74.1548C146.121 74.5011 147.049 74.7897 147.049 74.7897C147.049 74.7897 147.292 75.2081 146.777 75.749Z" fill="#E34F4F"/>
<g opacity="0.5">
<path opacity="0.8" d="M147.535 80.6807C148.419 80.6807 149.135 79.9708 149.135 79.0951C149.135 78.2193 148.419 77.5094 147.535 77.5094C146.65 77.5094 145.934 78.2193 145.934 79.0951C145.934 79.9708 146.65 80.6807 147.535 80.6807Z" fill="#FFF500"/>
</g>
<g opacity="0.8">
<path opacity="0.5" d="M155.581 85.2943C156.466 85.2943 157.182 84.5844 157.182 83.7087C157.182 82.833 156.466 82.1231 155.581 82.1231C154.697 82.1231 153.98 82.833 153.98 83.7087C153.98 84.5844 154.697 85.2943 155.581 85.2943Z" fill="#FFF500"/>
</g>
<g opacity="0.8">
<path opacity="0.5" d="M154.653 72.9139C155.176 72.9139 155.6 72.4937 155.6 71.9754C155.6 71.4571 155.176 71.037 154.653 71.037C154.129 71.037 153.705 71.4571 153.705 71.9754C153.705 72.4937 154.129 72.9139 154.653 72.9139Z" fill="#FFF500"/>
</g>
<g opacity="0.8">
<path opacity="0.5" d="M151.158 84.7165C151.682 84.7165 152.106 84.2963 152.106 83.778C152.106 83.2597 151.682 82.8395 151.158 82.8395C150.635 82.8395 150.211 83.2597 150.211 83.778C150.211 84.2963 150.635 84.7165 151.158 84.7165Z" fill="#FFF500"/>
</g>
<g opacity="0.8">
<path opacity="0.5" d="M160.132 81.8992C161.016 81.8992 161.733 81.1893 161.733 80.3136C161.733 79.4378 161.016 78.7279 160.132 78.7279C159.248 78.7279 158.531 79.4378 158.531 80.3136C158.531 81.1893 159.248 81.8992 160.132 81.8992Z" fill="#FFF500"/>
</g>
<g opacity="0.5">
<path opacity="0.8" d="M154.842 80.6732C156.294 80.6732 157.471 79.5074 157.471 78.0693C157.471 76.6313 156.294 75.4655 154.842 75.4655C153.39 75.4655 152.213 76.6313 152.213 78.0693C152.213 79.5074 153.39 80.6732 154.842 80.6732Z" fill="#FDF300"/>
</g>
<g opacity="0.8">
<path opacity="0.5" d="M150.185 76.5635C151.568 76.5635 152.689 75.4533 152.689 74.0839C152.689 72.7145 151.568 71.6044 150.185 71.6044C148.802 71.6044 147.682 72.7145 147.682 74.0839C147.682 75.4533 148.802 76.5635 150.185 76.5635Z" fill="#FDF300"/>
</g>
<g opacity="0.8">
<path opacity="0.5" d="M159.126 76.2484C159.785 76.2484 160.319 75.7194 160.319 75.067C160.319 74.4145 159.785 73.8856 159.126 73.8856C158.468 73.8856 157.934 74.4145 157.934 75.067C157.934 75.7194 158.468 76.2484 159.126 76.2484Z" fill="#FFF500"/>
</g>
<path opacity="0.5" d="M85.6285 20.5245C86.1957 20.5245 86.6555 20.0458 86.6555 19.4553C86.6555 18.8648 86.1957 18.3861 85.6285 18.3861C85.0614 18.3861 84.6016 18.8648 84.6016 19.4553C84.6016 20.0458 85.0614 20.5245 85.6285 20.5245Z" fill="#FF0000"/>
<path opacity="0.5" d="M90.7887 23.6348C91.3559 23.6348 91.8157 23.1561 91.8157 22.5656C91.8157 21.975 91.3559 21.4963 90.7887 21.4963C90.2215 21.4963 89.7617 21.975 89.7617 22.5656C89.7617 23.1561 90.2215 23.6348 90.7887 23.6348Z" fill="#FF0000"/>
<path opacity="0.5" d="M90.1918 15.288C90.5274 15.288 90.7995 15.0047 90.7995 14.6552C90.7995 14.3058 90.5274 14.0225 90.1918 14.0225C89.8561 14.0225 89.584 14.3058 89.584 14.6552C89.584 15.0047 89.8561 15.288 90.1918 15.288Z" fill="#FF0000"/>
<path opacity="0.5" d="M87.9515 23.2449C88.2872 23.2449 88.5593 22.9616 88.5593 22.6121C88.5593 22.2627 88.2872 21.9794 87.9515 21.9794C87.6159 21.9794 87.3438 22.2627 87.3438 22.6121C87.3438 22.9616 87.6159 23.2449 87.9515 23.2449Z" fill="#FF0000"/>
<path opacity="0.5" d="M93.7086 21.3458C94.2758 21.3458 94.7356 20.8671 94.7356 20.2766C94.7356 19.6861 94.2758 19.2074 93.7086 19.2074C93.1414 19.2074 92.6816 19.6861 92.6816 20.2766C92.6816 20.8671 93.1414 21.3458 93.7086 21.3458Z" fill="#FF0000"/>
<path opacity="0.5" d="M90.315 20.5192C91.2462 20.5192 92.0011 19.7332 92.0011 18.7637C92.0011 17.7942 91.2462 17.0083 90.315 17.0083C89.3838 17.0083 88.6289 17.7942 88.6289 18.7637C88.6289 19.7332 89.3838 20.5192 90.315 20.5192Z" fill="#FF0000"/>
<path opacity="0.5" d="M87.328 17.7481C88.2145 17.7481 88.9332 16.9999 88.9332 16.0768C88.9332 15.1538 88.2145 14.4055 87.328 14.4055C86.4414 14.4055 85.7227 15.1538 85.7227 16.0768C85.7227 16.9999 86.4414 17.7481 87.328 17.7481Z" fill="#FF0000"/>
<path opacity="0.5" d="M93.0621 17.5359C93.4847 17.5359 93.8272 17.1793 93.8272 16.7393C93.8272 16.2993 93.4847 15.9426 93.0621 15.9426C92.6395 15.9426 92.2969 16.2993 92.2969 16.7393C92.2969 17.1793 92.6395 17.5359 93.0621 17.5359Z" fill="#FF0000"/>
<path d="M56.2052 7.17605C56.2052 7.17605 65.2671 3.34201 69.4902 10.8903C73.7132 18.4387 63.6693 35.094 71.088 40.1265C78.5066 45.159 77.9355 51.5098 75.5392 59.4183C73.143 67.3268 85.3541 72.3593 89.0042 82.3046C92.6544 92.2499 82.0418 109.384 41.0704 108.546C0.0988741 107.708 2.03803 86.4988 7.40261 80.3876C12.7672 74.2763 7.05951 65.0649 11.6256 57.3887C16.1917 49.7125 21.4406 41.8634 20.0709 34.1053C18.7012 26.3472 21.8789 11.4873 32.036 7.77216C42.1931 4.05697 46.4606 -7.0832 56.2052 7.17605Z" fill="#076855"/>
<path d="M21.8851 112.232C19.9954 108.438 18.9921 104.227 18.9579 99.9456C18.9238 95.6643 19.8598 91.4358 21.6888 87.6091C27.9273 74.1539 26.5044 70.5198 26.8346 62.0323C27.1648 53.5448 31.6777 52.9856 30.5628 45.956C29.4478 38.9263 27.2033 31.9722 30.8938 28.6397C34.5842 25.3072 35.345 20.5944 38.3879 17.9183C41.4309 15.2422 62.059 21.1535 64.8532 17.7589C67.6474 14.3643 66.5402 23.3506 66.7298 26.6255C66.9193 29.9003 64.3712 40.7685 67.5668 47.2373C70.7624 53.706 66.7298 62.4131 68.5557 66.4867C70.3816 70.5603 80.3517 90.2776 67.5668 97.8125C58.0491 106.911 21.8834 112.234 21.8834 112.234" fill="#035142"/>
<path d="M81.9599 86.5748C81.9599 86.5748 89.6444 96.2477 96.0488 98.9698C102.453 101.692 126.163 101.401 129.475 100.806C132.786 100.211 136.967 97.0443 141.948 100.911C146.928 104.778 146.827 112.469 140.247 113.025C136.148 113.304 133.066 112.85 129.407 110.907C129.407 110.907 96.8536 113.963 89.2051 110.578C83.5601 108.079 74.1758 95.9243 74.1758 95.9243L81.9599 86.5748Z" fill="#F4C990"/>
<path d="M84.7812 97.0028C84.7812 97.0028 83.0639 101.612 88.1416 104.4C93.2193 107.188 129.309 110.75 129.309 110.75C129.309 110.75 146.098 111.745 141.809 100.798L142.662 101.509L143.372 102.22L144.508 103.641C144.508 103.641 147.065 108.049 144.935 110.75C140.947 115.805 134.28 112.811 133.57 112.633C132.86 112.456 129.309 110.892 129.309 110.892L119.649 111.603L109.989 112.035H101.111H95.6101L90.0699 111.235C90.0699 111.235 83.4249 109.344 81.5781 108.197C79.7314 107.049 76.7168 101.36 76.7168 101.36L84.7812 97.0028Z" fill="#F4B07D"/>
<path d="M56.7188 63.2575C59.665 62.0139 60.74 61.2357 67.8186 65.4345C74.8972 69.6334 90.4306 89.5357 90.4306 89.5357C90.4306 89.5357 88.6385 103.826 76.0925 104.845L64.443 92.079L56.7188 63.2575Z" fill="#CCCCCC"/>
<path d="M37.3533 58.2627L35.44 57.8534C35.44 57.8534 20.0268 59.8945 16.2935 69.2247C13.6654 75.7916 22.1624 111.856 22.1624 111.856C22.1624 111.856 23.7618 118.487 25.5532 126.278C25.5532 126.278 44.6618 130.761 64.3832 125.261C64.3832 125.261 67.077 111.977 69.1655 102.263C71.2539 92.5502 71.1067 87.8851 68.4188 78.7101C65.731 69.535 65.252 63.4711 62.7283 61.9164C60.2046 60.3617 50.5366 58.877 50.5366 58.877L37.3533 58.2627Z" fill="#CCCCCC"/>
<path d="M31.9375 57.7737L33.2844 65.9868L36.1617 65.2043C36.0742 66.2579 35.9324 67.3063 35.7367 68.3453C38.2915 70.7063 46.6799 73.2865 46.7145 73.1623C46.7574 72.9943 44.694 68.6677 44.694 68.6677L42.4683 59.7292C42.4683 59.7292 37.3915 56.0567 37.3536 55.9937C37.3158 55.9307 31.9375 57.7737 31.9375 57.7737Z" fill="#FF7070"/>
<path d="M44.6934 66.7685V68.6677L46.7136 73.1614L52.2148 67.5007L51.5177 63.7266L53.6357 64.0482L53.8394 58.6116L50.5378 57.4362L44.6934 66.7685Z" fill="#FF7070"/>
<path d="M51.1371 127.383C51.1222 127.384 51.1074 127.384 51.0925 127.383C51.0448 127.378 50.9986 127.362 50.9567 127.339C50.9148 127.315 50.878 127.284 50.8484 127.246C50.8187 127.208 50.7969 127.165 50.784 127.119C50.7712 127.073 50.7675 127.024 50.7733 126.977C53.0815 108.096 51.2237 93.2896 49.2581 84.1931C47.1317 74.3519 44.4355 68.912 44.4077 68.8608C44.375 68.7954 44.3627 68.7217 44.3724 68.6493L44.8488 65.0741C44.8551 65.0267 44.8709 64.9809 44.895 64.9395C44.9191 64.898 44.951 64.8617 44.9891 64.8327C45.0273 64.8036 45.071 64.7823 45.1174 64.77C45.1638 64.7577 45.212 64.7546 45.2596 64.7609C45.3072 64.7672 45.3531 64.7829 45.3946 64.8069C45.4361 64.831 45.4725 64.8629 45.5017 64.9009C45.5308 64.939 45.5522 64.9824 45.5646 65.0287C45.5769 65.075 45.58 65.1232 45.5736 65.1707L45.1114 68.6375C47.2894 73.5795 48.9194 78.7442 49.972 84.0395C51.2609 90.0959 52.0691 96.2441 52.3895 102.427C52.813 110.65 52.5146 118.894 51.4974 127.065C51.486 127.153 51.4432 127.233 51.3769 127.291C51.3107 127.35 51.2256 127.383 51.1371 127.383Z" fill="#FF7070"/>
<path d="M30.0446 76.2152C29.58 68.7806 25.2902 64.3293 22.3111 63.615C17.9725 62.5756 12.2652 72.5938 10.079 78.7085C7.89291 84.8232 2.625 98.7239 2.625 98.7239C3.10531 99.7556 3.71469 100.717 4.43734 101.582C7.70264 105.501 12.7913 107.025 16.3588 107.618C17.635 107.834 18.924 107.959 20.2167 107.991C20.385 107.991 20.4785 107.991 20.4785 107.991C23.8506 100.418 26.7115 92.6097 29.0404 84.6225C29.8502 81.904 30.1902 79.0574 30.0446 76.2152Z" fill="#CCCCCC"/>
<g opacity="0.38">
<path opacity="0.38" d="M27.451 67.241C28.5381 72.4136 28.3584 77.7876 26.9283 82.8689C24.5385 91.2658 13.623 107.904 6.23633 107.36L10.2003 111.87L22.4475 113.814L32.3806 106.965C32.3806 106.965 34.0237 91.6277 34.1727 90.8653C34.3217 90.1028 35.885 78.245 35.885 78.245L27.451 67.241Z" fill="#CCCCCC"/>
</g>
<path d="M39.182 46.637C39.182 46.637 38.7855 56.3168 36.4883 58.0767L44.6898 69.2236L50.5328 58.8759C50.5328 58.8759 49.0359 52.7675 50.1285 49.9262L39.182 46.637Z" fill="#F4C990"/>
<path d="M64.3445 23.6195C64.3445 23.6195 65.4388 40.215 61.4537 48.5602C57.4687 56.9053 52.6604 57.2874 45.6163 54.2568C38.85 51.3436 35.4383 47.1036 34.0838 40.0004C34.0838 40.0004 29.5685 38.8724 29.6737 32.5167C29.7789 26.161 34.6773 27.5799 35.7236 28.9962C35.7236 28.9962 36.9863 20.1787 40.6515 19.5801C44.3166 18.9815 57.595 27.7079 64.3445 23.6195Z" fill="#F4C990"/>
<path d="M56.3254 40.8192C56.5583 40.7781 56.4556 38.9728 56.096 36.7869C55.7364 34.601 55.2561 32.8624 55.0233 32.9035C54.7904 32.9446 54.8931 34.7499 55.2526 36.9357C55.6122 39.1216 56.0925 40.8603 56.3254 40.8192Z" fill="#ED9569"/>
<path d="M29.7083 32.1303C29.9849 31.809 30.7589 28.7102 33.3557 30.3989C35.9525 32.0876 37.2429 32.3712 37.8135 27.7526C38.384 23.134 39.5716 18.3453 42.5421 19.3863C45.5126 20.4273 59.8228 27.9915 65.2381 19.4562L64.9058 15.6387L37.3477 16.0079L29.1562 28.755L29.7083 32.1303Z" fill="#076855"/>
<path d="M46.177 26.2703C48.6089 26.4245 51.024 27.8793 48.9549 27.8776C46.8858 27.8758 41.4705 27.6576 42.409 26.9056C43.3476 26.1537 44.8217 26.1844 46.177 26.2703Z" fill="#032D26"/>
<path d="M59.0592 26.6471C61.4945 26.5595 64.0309 27.7698 61.9752 27.9723C59.9196 28.1747 54.5042 28.4928 55.3704 27.6523C56.2366 26.8118 57.7056 26.6962 59.0592 26.6471Z" fill="#032D26"/>
<path d="M50.4585 33.8931C50.2501 32.7727 49.6548 31.7706 48.785 31.0762C47.9151 30.3819 46.8311 30.0433 45.7378 30.1245C45.2211 30.161 44.7175 30.3107 44.2601 30.5636C43.8028 30.8166 43.4019 31.1672 43.0836 31.5925C42.7653 32.0179 42.5369 32.5084 42.4132 33.032C42.2895 33.5556 42.2733 34.1005 42.3657 34.631C42.7866 36.8843 43.8085 37.6187 46.8819 37.5372C49.9553 37.4557 50.9913 36.0158 50.4585 33.8931Z" fill="white"/>
<path d="M45.5071 36.6222C46.7769 36.4401 47.6372 35.0433 47.4288 33.5024C47.2203 31.9615 46.022 30.86 44.7522 31.0421C43.4825 31.2242 42.6221 32.621 42.8306 34.1619C43.039 35.7028 44.2374 36.8043 45.5071 36.6222Z" fill="black"/>
<path d="M49.6941 31.7697C49.1919 30.9295 48.4477 30.2758 47.5676 29.902C46.6875 29.5282 45.7165 29.4534 44.7931 29.6882C43.9279 29.8736 43.1537 30.3721 42.6081 31.0954C42.0625 31.8188 41.7809 32.72 41.8132 33.6391C41.7896 34.7784 41.8444 35.2718 42.2838 35.2552C42.7232 35.2385 42.3461 34.3077 42.7047 32.9283C42.7966 32.2838 43.0734 31.6834 43.4988 31.2056C43.9242 30.7278 44.4784 30.395 45.0887 30.2509C45.7047 30.0506 46.3622 30.0336 46.987 30.202C47.6118 30.3703 48.1788 30.7173 48.6241 31.2036C49.7378 32.2973 49.9306 33.7372 50.476 33.7548C50.7353 33.7635 50.1385 32.4069 49.6941 31.7697Z" fill="#032D26"/>
<path d="M46.5421 34.1151C46.8547 34.0228 47.0147 33.6051 46.8994 33.1823C46.7841 32.7595 46.4373 32.4917 46.1246 32.5841C45.812 32.6765 45.652 33.0941 45.7673 33.5169C45.8826 33.9397 46.2294 34.2075 46.5421 34.1151Z" fill="white"/>
<path d="M63.1517 33.8626C62.9626 32.8422 62.4207 31.9293 61.6288 31.2965C60.837 30.6638 59.85 30.3551 58.8544 30.4288C58.3839 30.4621 57.9255 30.5984 57.5091 30.8288C57.0927 31.0592 56.7277 31.3784 56.4379 31.7657C56.1482 32.153 55.9402 32.5996 55.8275 33.0763C55.7149 33.553 55.7001 34.0491 55.7842 34.5321C56.1697 36.5838 57.0974 37.249 59.8963 37.178C62.6953 37.107 63.6366 35.795 63.1517 33.8626Z" fill="white"/>
<path d="M58.6437 36.3473C59.7997 36.1815 60.5829 34.9098 60.3932 33.507C60.2034 32.1041 59.1124 31.1012 57.9564 31.2671C56.8004 31.4329 56.0171 32.7045 56.2069 34.1074C56.3967 35.5103 57.4877 36.5131 58.6437 36.3473Z" fill="black"/>
<path d="M62.4559 31.9345C61.9988 31.1696 61.3211 30.5746 60.52 30.2344C59.7188 29.8941 58.835 29.8259 57.9944 30.0397C57.2073 30.2083 56.5031 30.6618 56.0064 31.3195C55.5098 31.9773 55.253 32.7968 55.2814 33.633C55.2603 34.6733 55.3098 35.1229 55.7097 35.1045C56.1095 35.0861 55.7669 34.242 56.0952 32.9861C56.1787 32.3993 56.4308 31.8526 56.818 31.4175C57.2053 30.9823 57.7098 30.6793 58.2655 30.548C58.8267 30.3651 59.4259 30.3495 59.9953 30.5028C60.5646 30.6561 61.0813 30.9723 61.4869 31.4156C62.4971 32.4112 62.6772 33.7232 63.1705 33.7381C63.4045 33.746 62.8625 32.5103 62.4559 31.9345Z" fill="#032D26"/>
<path d="M59.5886 34.0654C59.873 33.9814 60.0185 33.601 59.9135 33.216C59.8085 32.8309 59.4928 32.5869 59.2084 32.6709C58.9239 32.755 58.7785 33.1353 58.8834 33.5204C58.9884 33.9054 59.3041 34.1495 59.5886 34.0654Z" fill="white"/>
<path d="M42.1453 32.7828C41.8192 32.6982 41.5243 32.5152 41.2976 32.2569C41.056 31.8941 40.5485 32.3402 40.9609 32.7828C41.2728 33.058 41.67 33.2056 42.0787 33.1982L42.1453 32.7828Z" fill="#032D26"/>
<path d="M62.3984 32.0018C62.7246 31.9173 63.0196 31.7343 63.2462 31.4759C63.4878 31.1131 63.9961 31.5592 63.5828 32.0018C63.271 32.2769 62.8737 32.4246 62.465 32.4172L62.3984 32.0018Z" fill="#032D26"/>
<path d="M44.7229 46.814C44.4535 45.5555 46.165 43.9376 49.437 44.7106C52.7091 45.4836 53.5078 44.6072 54.8521 45.2811C56.1965 45.9551 55.7032 48.211 52.985 48.1058C50.2669 48.0006 45.1968 49.0287 44.7229 46.814Z" fill="#682D0C"/>
<path d="M45.4766 44.5116C45.4766 44.5116 46.7831 45.9779 49.7891 46.1339C52.7951 46.2899 54.9475 45.765 55.7287 45.2207L54.3254 44.3268L45.83 43.7632L45.4766 44.5116Z" fill="white"/>
<path d="M33.7057 71.7955L34.7001 71.0846C34.7001 71.0846 38.8725 69.8244 40.0794 75.03L31.666 77.9993L33.7057 71.7955Z" fill="#7ABCAF"/>
<path d="M58.9581 117.854C56.6829 118.591 28.8492 127.696 28.0029 126.047C27.541 125.149 26.4829 122.849 25.0906 119.754C23.6115 116.465 21.7539 112.279 19.8326 107.922L19.2126 106.517C14.2064 95.1553 8.98828 83.1656 8.98828 83.1656C8.98828 83.1656 19.8003 79.4467 29.146 76.5542C35.798 74.4931 41.705 72.8486 42.4356 73.2609C43.281 73.7378 47.3355 84.0159 51.2199 94.5826C52.7041 98.618 54.1635 102.696 55.4079 106.287C57.6788 112.836 59.243 117.762 58.9581 117.854Z" fill="#6A897C"/>
<path d="M13.4731 97.0485L40.2002 87.9265C40.2002 87.9265 34.5289 81.8564 35.6592 77.4499C36.7896 73.0434 39.3862 73.6436 39.3862 73.6436L11.6631 81.6944C11.6631 81.6944 10.1526 88.4272 13.4731 97.0485Z" fill="#7F9C90"/>
<path d="M23.5924 119.254L56.7172 104.972L54.454 99.3277L20.3477 115.677L23.5924 119.254Z" fill="#7F9C90"/>
<path d="M32.9952 74.9232C32.433 80.766 36.0973 87.8483 36.0973 87.8483L12.7816 95.7117C12.7816 95.7117 7.80176 83.2848 12.7816 78.2808L34.6999 71.2268C34.6999 71.2268 33.5635 70.9424 32.9952 74.9232Z" fill="#FEFEFE"/>
<path d="M64.6679 102.262C63.3876 104.063 61.1509 105.799 56.319 107.749C48.3813 110.718 40.6645 114.291 33.2312 118.441C30.7928 119.834 28.488 121.032 26.3168 122.034C12.1351 128.59 3.66083 127.11 0.746553 121.245C-1.6475 116.425 2.26933 106.753 4.71978 101.588C7.98508 105.508 13.0738 107.032 16.6413 107.624L15.2877 111.378C15.2877 111.378 17.6505 110.615 21.1128 109.487C30.0181 106.585 46.1982 101.26 48.1343 100.252C49.2918 99.6489 50.6597 97.6174 52.1749 95.344C54.1834 92.337 55.3519 90.1732 57.9942 89.9103C64.2235 89.2828 66.9862 99.003 64.6679 102.262Z" fill="#F4C990"/>
<path d="M12.3962 106.627C12.3407 107.023 8.22952 115.271 12.5429 114.304C16.8562 113.337 46.4894 100.94 46.4894 100.94L42.6539 102.078L37.5399 103.641L16.2964 110.598L16.6579 107.622L12.3962 106.627Z" fill="#F4B07D"/>
<path d="M33.4306 10.9105L31.4102 3.68012C31.4102 3.68012 51.8918 -4.60015 62.3182 3.68012L59.4209 10.9105C59.4209 10.9105 54.4888 17.2083 33.4306 10.9105Z" fill="#FEFEFE"/>
<path d="M53.508 9.23301V10.7589C53.508 10.9429 53.4378 11.1195 53.3128 11.2496C53.1877 11.3798 53.0181 11.453 52.8413 11.453H51.7268C51.55 11.453 51.3804 11.3798 51.2554 11.2496C51.1303 11.1195 51.0601 10.9429 51.0601 10.7589V9.24087C51.0601 9.05678 50.9899 8.88026 50.8649 8.75009C50.7398 8.61992 50.5702 8.54677 50.3934 8.54677H48.9304C48.7535 8.54677 48.5839 8.47367 48.4589 8.3435C48.3339 8.21333 48.2637 8.03675 48.2637 7.85266V6.68617C48.2637 6.50208 48.3339 6.32556 48.4589 6.19539C48.5839 6.06522 48.7535 5.99207 48.9304 5.99207H50.3893C50.5661 5.99207 50.7357 5.91892 50.8608 5.78875C50.9858 5.65858 51.056 5.48205 51.056 5.29796V3.7765C51.0559 3.68539 51.0729 3.59518 51.1064 3.51097C51.1398 3.42676 51.1888 3.35024 51.2506 3.28577C51.3125 3.22131 51.386 3.17014 51.4668 3.13525C51.5477 3.10035 51.6344 3.0824 51.7219 3.0824H52.8389C53.0157 3.0824 53.1853 3.15555 53.3103 3.28572C53.4353 3.41589 53.5055 3.59241 53.5055 3.7765V5.29358C53.5054 5.38476 53.5226 5.47506 53.5561 5.55932C53.5896 5.64359 53.6386 5.72015 53.7006 5.78463C53.7625 5.84911 53.836 5.90026 53.917 5.9351C53.9979 5.96994 54.0847 5.9878 54.1722 5.98768H55.6345C55.722 5.98768 55.8086 6.00565 55.8895 6.04053C55.9704 6.07541 56.044 6.12655 56.1059 6.191C56.1678 6.25546 56.2169 6.33193 56.2504 6.41615C56.2839 6.50036 56.3012 6.59064 56.3012 6.68179V7.8448C56.3012 8.02889 56.231 8.20541 56.1059 8.33558C55.9809 8.46576 55.8113 8.53891 55.6345 8.53891H54.1739C54.0864 8.53891 53.9997 8.55686 53.9188 8.59175C53.838 8.62665 53.7647 8.67781 53.7028 8.74228C53.641 8.80675 53.592 8.88327 53.5586 8.96748C53.5252 9.05169 53.5079 9.1419 53.508 9.23301Z" fill="#FF7070"/>
</svg>
