<svg width="159" height="136" viewBox="0 0 159 136" fill="none" xmlns="http://www.w3.org/2000/svg">
<path d="M1.27401 48.6988C2.38382 39.5108 10.2854 27.2677 20.5851 26.1317C30.8849 24.9956 40.2342 28.5527 29.8323 39.7064C19.4304 50.8601 17.6139 65.4563 9.54782 61.5603C1.48172 57.6642 0.832203 52.3602 1.27401 48.6988Z" fill="#F04141"/>
<path d="M25.0305 125.675C12.9732 118.051 1.04602 110.005 0.532925 90.5564C0.0198272 71.1078 25.8164 69.0666 46.8649 56.1958C67.9133 43.3251 80.7944 30.2225 95.0608 48.022C109.327 65.8215 100.653 92.2158 89.9993 105.124C79.3457 118.032 66.9056 152.156 25.0305 125.675Z" fill="#F04141"/>
<path d="M144.697 93.9984C150.132 93.9984 154.538 89.5635 154.538 84.0927C154.538 78.6219 150.132 74.1869 144.697 74.1869C139.262 74.1869 134.855 78.6219 134.855 84.0927C134.855 89.5635 139.262 93.9984 144.697 93.9984Z" fill="#CCCCCC"/>
<g opacity="0.44">
<path opacity="0.44" d="M134.885 85.5952C134.885 85.5952 134.066 78.3553 140.058 75.3935C145.397 72.7545 149.69 75.558 149.903 75.7225C150.115 75.8871 154.408 78.8489 154.408 83.6207C154.408 88.3925 152.618 90.2025 152.238 90.5315C151.859 90.8606 149.235 94.3161 143.896 93.987C138.806 93.6733 137.055 90.0379 136.22 89.2152C135.386 88.3925 134.885 85.5952 134.885 85.5952Z" fill="#FF2222"/>
</g>
<path d="M138.885 76.3737C138.498 75.6174 138.036 74.9026 137.506 74.2404C136.988 73.7423 135.734 75.057 135.271 74.442C134.808 73.827 136.072 72.7834 137.463 72.0051C138.853 71.2268 139.788 71.2368 139.394 72.1674C139 73.098 138.186 72.974 138.67 73.8471C139.153 74.7203 139.818 75.6488 139.818 75.6488C139.818 75.6488 139.746 76.2195 138.885 76.3737Z" fill="#E34F4F"/>
<path d="M143.885 74.5843C143.918 74.0424 143.896 73.4986 143.821 72.9611C143.698 72.5175 142.583 72.826 142.529 72.336C142.475 71.846 143.508 71.6907 144.522 71.7199C145.535 71.7491 146.046 72.0627 145.528 72.4438C145.01 72.8249 144.605 72.4882 144.586 73.1264C144.567 73.7646 144.631 74.4925 144.631 74.4925C144.631 74.4925 144.408 74.7829 143.885 74.5843Z" fill="#E34F4F"/>
<path d="M148.731 75.3469C149.092 74.7096 149.388 74.0369 149.614 73.3394C149.728 72.7284 148.195 72.432 148.419 71.8069C148.643 71.1818 149.989 71.6114 151.201 72.2556C152.413 72.8999 152.846 73.5864 151.993 73.7377C151.14 73.8889 150.846 73.2336 150.446 74.0008C150.167 74.5487 149.915 75.1104 149.692 75.6836C149.692 75.6836 149.248 75.9014 148.731 75.3469Z" fill="#E34F4F"/>
<path d="M152.047 78.8195C152.522 78.5549 152.968 78.2425 153.38 77.8869C153.688 77.5431 152.825 76.7588 153.21 76.4472C153.594 76.1357 154.283 76.9331 154.805 77.8153C155.328 78.6975 155.34 79.3014 154.739 79.0655C154.138 78.8296 154.202 78.3012 153.655 78.6309C153.267 78.8706 152.891 79.1297 152.529 79.4073C152.529 79.4073 152.162 79.373 152.047 78.8195Z" fill="#E34F4F"/>
<path d="M154.213 83.0139C154.945 83.0936 155.683 83.0984 156.416 83.028C157.025 82.8879 156.677 81.3372 157.345 81.2938C158.013 81.2505 158.159 82.6791 158.055 84.0705C157.951 85.4618 157.494 86.1434 157.01 85.4084C156.527 84.6734 157.01 84.136 156.143 84.0715C155.275 84.0069 154.288 84.0483 154.288 84.0483C154.288 84.0483 153.911 83.7196 154.213 83.0139Z" fill="#E34F4F"/>
<path d="M153.136 88.3312C153.623 88.5692 154.133 88.7568 154.658 88.8908C155.114 88.9453 155.259 87.7879 155.727 87.924C156.194 88.0601 155.948 89.0844 155.534 90.02C155.121 90.9557 154.633 91.3125 154.483 90.6844C154.332 90.0563 154.794 89.8043 154.212 89.5431C153.795 89.3622 153.369 89.2024 152.936 89.0643C152.936 89.0643 152.754 88.7436 153.136 88.3312Z" fill="#E34F4F"/>
<path d="M150.109 91.8118C150.467 92.4581 150.89 93.0662 151.37 93.6266C151.833 94.045 152.886 92.8654 153.307 93.3866C153.728 93.9079 152.657 94.8516 151.473 95.5695C150.289 96.2873 149.47 96.3042 149.789 95.4845C150.109 94.6649 150.815 94.7495 150.37 94.0035C149.925 93.2574 149.32 92.471 149.32 92.471C149.32 92.471 149.364 91.9711 150.109 91.8118Z" fill="#E34F4F"/>
<path d="M145.317 93.3968C145.294 93.9025 145.322 94.4092 145.402 94.9091C145.522 95.3194 146.553 95.0149 146.611 95.4696C146.669 95.9243 145.709 96.0847 144.769 96.0746C143.828 96.0645 143.347 95.7791 143.822 95.4171C144.297 95.0552 144.68 95.3616 144.688 94.7678C144.688 94.3442 144.666 93.9211 144.624 93.4996C144.624 93.4996 144.828 93.2203 145.317 93.3968Z" fill="#E34F4F"/>
<path d="M140.605 92.852C140.192 93.5547 139.85 94.2979 139.586 95.0701C139.448 95.7466 141.147 96.1024 140.889 96.7941C140.63 97.4857 139.142 96.9827 137.806 96.2437C136.471 95.5047 136.003 94.7312 136.954 94.5819C137.905 94.4327 138.218 95.1597 138.678 94.3188C139.138 93.478 139.546 92.4629 139.546 92.4629C139.546 92.4629 140.041 92.2259 140.605 92.852Z" fill="#E34F4F"/>
<path d="M137.185 89.7439C136.705 90.0117 136.254 90.3279 135.838 90.6876C135.528 91.0354 136.4 91.8279 136.013 92.1424C135.625 92.457 134.928 91.6525 134.398 90.7612C133.868 89.8699 133.856 89.2589 134.463 89.4969C135.07 89.7348 135.006 90.2691 135.56 89.9354C136.114 89.6016 136.697 89.149 136.697 89.149C136.697 89.149 137.067 89.1843 137.185 89.7439Z" fill="#E34F4F"/>
<path d="M135.035 85.713C134.282 85.6492 133.524 85.6627 132.773 85.7532C132.152 85.9115 132.547 87.4924 131.863 87.5539C131.179 87.6154 130.995 86.1546 131.068 84.7249C131.141 83.2953 131.593 82.5865 132.108 83.3285C132.622 84.0706 132.14 84.6322 133.029 84.6785C133.917 84.7249 134.932 84.6574 134.932 84.6574C134.932 84.6574 135.325 84.981 135.035 85.713Z" fill="#E34F4F"/>
<path d="M136.938 80.4833C136.26 80.1489 135.549 79.8847 134.817 79.6949C134.182 79.6163 133.98 81.2334 133.32 81.0399C132.659 80.8463 133.019 79.4186 133.598 78.116C134.177 76.8134 134.859 76.3152 135.07 77.1944C135.282 78.0736 134.632 78.4215 135.442 78.7895C136.252 79.1575 137.222 79.464 137.222 79.464C137.222 79.464 137.476 79.9086 136.938 80.4833Z" fill="#E34F4F"/>
<g opacity="0.5">
<path opacity="0.8" d="M137.73 85.7232C138.655 85.7232 139.404 84.969 139.404 84.0385C139.404 83.108 138.655 82.3538 137.73 82.3538C136.806 82.3538 136.057 83.108 136.057 84.0385C136.057 84.969 136.806 85.7232 137.73 85.7232Z" fill="#FFF500"/>
</g>
<g opacity="0.8">
<path opacity="0.5" d="M146.143 90.6253C147.067 90.6253 147.816 89.871 147.816 88.9405C147.816 88.0101 147.067 87.2558 146.143 87.2558C145.218 87.2558 144.469 88.0101 144.469 88.9405C144.469 89.871 145.218 90.6253 146.143 90.6253Z" fill="#FFF500"/>
</g>
<g opacity="0.8">
<path opacity="0.5" d="M145.176 77.471C145.723 77.471 146.167 77.0246 146.167 76.4739C146.167 75.9232 145.723 75.4767 145.176 75.4767C144.629 75.4767 144.186 75.9232 144.186 76.4739C144.186 77.0246 144.629 77.471 145.176 77.471Z" fill="#FFF500"/>
</g>
<g opacity="0.8">
<path opacity="0.5" d="M141.522 90.0112C142.069 90.0112 142.513 89.5648 142.513 89.0141C142.513 88.4634 142.069 88.017 141.522 88.017C140.975 88.017 140.531 88.4634 140.531 89.0141C140.531 89.5648 140.975 90.0112 141.522 90.0112Z" fill="#FFF500"/>
</g>
<g opacity="0.8">
<path opacity="0.5" d="M150.906 87.0179C151.831 87.0179 152.58 86.2636 152.58 85.3332C152.58 84.4027 151.831 83.6484 150.906 83.6484C149.982 83.6484 149.232 84.4027 149.232 85.3332C149.232 86.2636 149.982 87.0179 150.906 87.0179Z" fill="#FFF500"/>
</g>
<g opacity="0.5">
<path opacity="0.8" d="M145.37 85.7152C146.888 85.7152 148.118 84.4766 148.118 82.9487C148.118 81.4208 146.888 80.1821 145.37 80.1821C143.852 80.1821 142.621 81.4208 142.621 82.9487C142.621 84.4766 143.852 85.7152 145.37 85.7152Z" fill="#FDF300"/>
</g>
<g opacity="0.8">
<path opacity="0.5" d="M140.504 81.3487C141.95 81.3487 143.121 80.1692 143.121 78.7142C143.121 77.2592 141.95 76.0797 140.504 76.0797C139.059 76.0797 137.887 77.2592 137.887 78.7142C137.887 80.1692 139.059 81.3487 140.504 81.3487Z" fill="#FDF300"/>
</g>
<g opacity="0.8">
<path opacity="0.5" d="M149.849 81.0138C150.537 81.0138 151.096 80.4518 151.096 79.7586C151.096 79.0653 150.537 78.5034 149.849 78.5034C149.16 78.5034 148.602 79.0653 148.602 79.7586C148.602 80.4518 149.16 81.0138 149.849 81.0138Z" fill="#FFF500"/>
</g>
<path opacity="0.5" d="M89.9155 21.8073C90.5085 21.8073 90.9892 21.2987 90.9892 20.6713C90.9892 20.0438 90.5085 19.5352 89.9155 19.5352C89.3225 19.5352 88.8418 20.0438 88.8418 20.6713C88.8418 21.2987 89.3225 21.8073 89.9155 21.8073Z" fill="#FF0000"/>
<path opacity="0.5" d="M95.3061 25.1119C95.8991 25.1119 96.3799 24.6033 96.3799 23.9759C96.3799 23.3485 95.8991 22.8398 95.3061 22.8398C94.7131 22.8398 94.2324 23.3485 94.2324 23.9759C94.2324 24.6033 94.7131 25.1119 95.3061 25.1119Z" fill="#FF0000"/>
<path opacity="0.5" d="M94.6862 16.2435C95.0372 16.2435 95.3216 15.9425 95.3216 15.5712C95.3216 15.1999 95.0372 14.8989 94.6862 14.8989C94.3353 14.8989 94.0508 15.1999 94.0508 15.5712C94.0508 15.9425 94.3353 16.2435 94.6862 16.2435Z" fill="#FF0000"/>
<path opacity="0.5" d="M92.3444 24.6977C92.6954 24.6977 92.9798 24.3967 92.9798 24.0254C92.9798 23.6541 92.6954 23.3531 92.3444 23.3531C91.9935 23.3531 91.709 23.6541 91.709 24.0254C91.709 24.3967 91.9935 24.6977 92.3444 24.6977Z" fill="#FF0000"/>
<path opacity="0.5" d="M98.3608 22.6799C98.9538 22.6799 99.4345 22.1713 99.4345 21.5439C99.4345 20.9165 98.9538 20.4078 98.3608 20.4078C97.7678 20.4078 97.2871 20.9165 97.2871 21.5439C97.2871 22.1713 97.7678 22.6799 98.3608 22.6799Z" fill="#FF0000"/>
<path opacity="0.5" d="M94.8097 21.8016C95.7833 21.8016 96.5725 20.9665 96.5725 19.9364C96.5725 18.9063 95.7833 18.0713 94.8097 18.0713C93.8361 18.0713 93.0469 18.9063 93.0469 19.9364C93.0469 20.9665 93.8361 21.8016 94.8097 21.8016Z" fill="#FF0000"/>
<path opacity="0.5" d="M91.692 18.8574C92.6189 18.8574 93.3704 18.0623 93.3704 17.0816C93.3704 16.1009 92.6189 15.3058 91.692 15.3058C90.7651 15.3058 90.0137 16.1009 90.0137 17.0816C90.0137 18.0623 90.7651 18.8574 91.692 18.8574Z" fill="#FF0000"/>
<path opacity="0.5" d="M97.6867 18.6319C98.1286 18.6319 98.4867 18.2529 98.4867 17.7855C98.4867 17.318 98.1286 16.939 97.6867 16.939C97.2449 16.939 96.8867 17.318 96.8867 17.7855C96.8867 18.2529 97.2449 18.6319 97.6867 18.6319Z" fill="#FF0000"/>
<path d="M59.1491 7.62542C59.1491 7.62542 68.6234 3.55175 73.0386 11.5718C77.4539 19.5919 66.9529 37.2882 74.7092 42.6353C82.4654 47.9823 81.8683 54.73 79.363 63.1328C76.8577 71.5355 89.6245 76.8826 93.4407 87.4495C97.257 98.0164 86.1615 116.222 43.3255 115.331C0.489494 114.44 2.5169 91.9058 8.12561 85.4126C13.7343 78.9195 7.76689 69.1323 12.5408 60.9764C17.3147 52.8204 22.8024 44.4807 21.3704 36.2377C19.9384 27.9947 23.2606 12.2062 33.88 8.25878C44.4993 4.31139 48.9611 -7.52504 59.1491 7.62542Z" fill="#076855"/>
<path d="M23.2683 119.246C21.2926 115.215 20.2437 110.74 20.208 106.191C20.1723 101.642 21.1509 97.1494 23.0631 93.0835C29.5855 78.7874 28.0979 74.9261 28.4431 65.9082C28.7883 56.8902 33.5066 56.2961 32.3409 48.8271C31.1752 41.358 28.8286 33.9694 32.687 30.4286C36.5454 26.8878 37.3408 21.8804 40.5222 19.037C43.7036 16.1937 65.2705 22.4745 68.1919 18.8677C71.1132 15.2609 69.9556 24.8089 70.1538 28.2884C70.352 31.768 67.6879 43.3154 71.0289 50.1885C74.3699 57.0615 70.1538 66.3128 72.0628 70.641C73.9719 74.9692 84.3956 95.9188 71.0289 103.925C61.0781 113.592 23.2665 119.248 23.2665 119.248" fill="#035142"/>
<path d="M86.0778 91.9857C86.0778 91.9857 94.112 102.263 100.808 105.155C107.504 108.048 132.292 107.739 135.755 107.106C139.217 106.474 143.588 103.11 148.795 107.218C154.003 111.326 153.897 119.498 147.017 120.089C142.732 120.386 139.509 119.904 135.684 117.839C135.684 117.839 101.649 121.086 93.6527 117.489C87.7508 114.834 77.9395 101.92 77.9395 101.92L86.0778 91.9857Z" fill="#F4C990"/>
<path d="M89.0291 103.065C89.0291 103.065 87.2336 107.963 92.5424 110.925C97.8511 113.887 135.583 117.672 135.583 117.672C135.583 117.672 153.136 118.729 148.652 107.098L149.544 107.853L150.286 108.608L151.474 110.119C151.474 110.119 154.148 114.802 151.92 117.672C147.751 123.043 140.781 119.862 140.038 119.673C139.296 119.484 135.583 117.823 135.583 117.823L125.483 118.578L115.384 119.037H106.102H100.351L94.5585 118.187C94.5585 118.187 87.611 116.178 85.6802 114.959C83.7495 113.74 80.5977 107.695 80.5977 107.695L89.0291 103.065Z" fill="#F4B07D"/>
<path d="M59.6855 67.2111C62.7659 65.8898 63.8898 65.0629 71.2906 69.5242C78.6913 73.9855 94.9316 95.1316 94.9316 95.1316C94.9316 95.1316 93.0579 110.315 79.9409 111.398L67.7614 97.8339L59.6855 67.2111Z" fill="#CCCCCC"/>
<path d="M39.4421 61.9041L37.4417 61.4692C37.4417 61.4692 21.3271 63.6379 17.4239 73.5513C14.6762 80.5286 23.5598 118.847 23.5598 118.847C23.5598 118.847 25.2321 125.893 27.1049 134.17C27.1049 134.17 47.0831 138.933 67.702 133.09C67.702 133.09 70.5184 118.975 72.7019 108.655C74.8854 98.3346 74.7314 93.378 71.9213 83.6294C69.1111 73.8809 68.6104 67.4381 65.9718 65.7862C63.3333 64.1343 53.2253 62.5568 53.2253 62.5568L39.4421 61.9041Z" fill="#CCCCCC"/>
<path d="M33.7793 61.3846L35.1875 70.1111L38.1957 69.2796C38.1042 70.3991 37.956 71.513 37.7513 72.617C40.4224 75.1255 49.1926 77.867 49.2287 77.735C49.2736 77.5565 47.1164 72.9595 47.1164 72.9595L44.7893 63.4623C44.7893 63.4623 39.4815 59.5603 39.4419 59.4934C39.4023 59.4265 33.7793 61.3846 33.7793 61.3846Z" fill="#FF7070"/>
<path d="M47.1133 70.9416V72.9595L49.2254 77.7341L54.977 71.7196L54.2482 67.7096L56.4626 68.0513L56.6755 62.275L53.2237 61.026L47.1133 70.9416Z" fill="#FF7070"/>
<path d="M53.8514 135.345C53.8358 135.346 53.8203 135.346 53.8047 135.345C53.7548 135.339 53.7065 135.323 53.6627 135.298C53.6189 135.273 53.5805 135.239 53.5495 135.199C53.5185 135.159 53.4957 135.113 53.4822 135.064C53.4688 135.015 53.4649 134.964 53.471 134.913C55.8843 114.852 53.9418 99.1202 51.8868 89.4552C49.6637 78.999 46.8448 73.2191 46.8157 73.1647C46.7815 73.0952 46.7686 73.0169 46.7788 72.9399L47.2768 69.1413C47.2835 69.0909 47.3 69.0422 47.3252 68.9982C47.3504 68.9542 47.3837 68.9156 47.4236 68.8847C47.4635 68.8538 47.5092 68.8313 47.5577 68.8182C47.6062 68.8051 47.6566 68.8018 47.7064 68.8085C47.7561 68.8152 47.8041 68.8319 47.8475 68.8574C47.8909 68.8829 47.929 68.9168 47.9595 68.9573C47.9899 68.9977 48.0123 69.0439 48.0252 69.0931C48.0381 69.1422 48.0413 69.1934 48.0347 69.2439L47.5514 72.9274C49.8285 78.1783 51.5327 83.6657 52.6333 89.292C53.9808 95.7269 54.8258 102.259 55.1608 108.829C55.6035 117.566 55.2915 126.325 54.228 135.007C54.2161 135.1 54.1713 135.185 54.1021 135.247C54.0329 135.309 53.9438 135.344 53.8514 135.345Z" fill="#FF7070"/>
<path d="M31.8003 80.9786C31.3144 73.0794 26.8295 68.3499 23.7148 67.5909C19.1788 66.4866 13.2117 77.1309 10.9261 83.6278C8.64045 90.1246 3.13281 104.894 3.13281 104.894C3.63498 105.99 4.27209 107.011 5.02762 107.931C8.44153 112.095 13.7617 113.714 17.4916 114.344C18.8259 114.573 20.1736 114.706 21.5251 114.74C21.7011 114.74 21.7988 114.74 21.7988 114.74C25.3244 106.694 28.3155 98.3978 30.7503 89.9114C31.597 87.023 31.9525 83.9985 31.8003 80.9786Z" fill="#CCCCCC"/>
<g opacity="0.38">
<path opacity="0.38" d="M29.0903 71.4434C30.2269 76.9393 30.0389 82.6492 28.5438 88.0481C26.0452 96.9698 14.633 114.648 6.91016 114.07L11.0545 118.862L23.859 120.927L34.2442 113.65C34.2442 113.65 35.9621 97.3544 36.1179 96.5442C36.2737 95.7341 37.9081 83.1352 37.9081 83.1352L29.0903 71.4434Z" fill="#CCCCCC"/>
</g>
<path d="M41.3534 49.5518C41.3534 49.5518 40.9389 59.8366 38.5371 61.7064L47.1118 73.5501L53.2207 62.5557C53.2207 62.5557 51.6557 56.0654 52.7981 53.0465L41.3534 49.5518Z" fill="#F4C990"/>
<path d="M67.6587 25.0957C67.6587 25.0957 68.8028 42.7284 64.6364 51.5951C60.47 60.4618 55.4429 60.8678 48.0782 57.6478C41.004 54.5526 37.437 50.0475 36.0209 42.5003C36.0209 42.5003 31.3001 41.3019 31.4101 34.549C31.5201 27.7961 36.6414 29.3036 37.7354 30.8084C37.7354 30.8084 39.0555 21.4398 42.8875 20.8038C46.7194 20.1678 60.6021 29.4396 67.6587 25.0957Z" fill="#F4C990"/>
<path d="M59.273 43.3715C59.5164 43.3276 59.4103 41.4092 59.0359 39.0866C58.6616 36.7639 58.1608 34.9166 57.9174 34.9605C57.6739 35.0043 57.78 36.9227 58.1544 39.2454C58.5287 41.568 59.0295 43.4153 59.273 43.3715Z" fill="#ED9569"/>
<path d="M31.4483 34.1384C31.7374 33.7971 32.5467 30.5046 35.2617 32.2988C37.9766 34.093 39.3258 34.3944 39.9223 29.4871C40.5187 24.5799 41.7604 19.4919 44.8661 20.5979C47.9717 21.704 62.9332 29.7409 68.595 20.6722L68.2476 16.6161L39.4354 17.0084L30.8711 30.5522L31.4483 34.1384Z" fill="#076855"/>
<path d="M48.6659 27.9121C51.2085 28.076 53.7335 29.6218 51.5702 29.6199C49.4069 29.618 43.7452 29.3862 44.7265 28.5872C45.7078 27.7882 47.2489 27.8209 48.6659 27.9121Z" fill="#032D26"/>
<path d="M62.1356 28.3126C64.6817 28.2194 67.3335 29.5054 65.1843 29.7205C63.0351 29.9356 57.3733 30.2736 58.2789 29.3806C59.1845 28.4876 60.7204 28.3647 62.1356 28.3126Z" fill="#032D26"/>
<path d="M53.14 36.0114C52.9222 34.821 52.2998 33.7563 51.3903 33.0185C50.4809 32.2807 49.3476 31.921 48.2045 32.0073C47.6643 32.046 47.1378 32.2051 46.6596 32.4738C46.1814 32.7426 45.7623 33.1151 45.4295 33.5671C45.0967 34.019 44.8579 34.5402 44.7286 35.0965C44.5992 35.6528 44.5823 36.2317 44.6789 36.7954C45.119 39.1895 46.1874 39.9698 49.4007 39.8832C52.6139 39.7966 53.6971 38.2667 53.14 36.0114Z" fill="white"/>
<path d="M47.963 38.9093C49.2903 38.7146 50.1907 37.2294 49.9742 35.592C49.7576 33.9547 48.506 32.7852 47.1787 32.9799C45.8514 33.1746 44.9509 34.6598 45.1675 36.2972C45.3841 37.9345 46.6356 39.104 47.963 38.9093Z" fill="black"/>
<path d="M52.342 33.7553C51.817 32.8625 51.0389 32.168 50.1187 31.7708C49.1986 31.3737 48.1834 31.2942 47.218 31.5437C46.3134 31.7406 45.5039 32.2704 44.9335 33.0389C44.3632 33.8074 44.0687 34.765 44.1024 35.7415C44.0778 36.952 44.1351 37.4763 44.5945 37.4586C45.0539 37.4409 44.6596 36.452 45.0345 34.9863C45.1306 34.3016 45.42 33.6636 45.8648 33.1559C46.3096 32.6483 46.889 32.2947 47.527 32.1415C48.171 31.9287 48.8585 31.9107 49.5117 32.0896C50.1649 32.2684 50.7578 32.6371 51.2234 33.1538C52.3877 34.3159 52.5892 35.8458 53.1595 35.8644C53.4306 35.8737 52.8067 34.4323 52.342 33.7553Z" fill="#032D26"/>
<path d="M49.0477 36.2473C49.3746 36.1492 49.5419 35.7054 49.4214 35.2562C49.3008 34.807 48.9382 34.5224 48.6113 34.6205C48.2845 34.7187 48.1172 35.1624 48.2377 35.6117C48.3582 36.0609 48.7209 36.3455 49.0477 36.2473Z" fill="white"/>
<path d="M66.4132 35.979C66.2155 34.8948 65.649 33.9248 64.8211 33.2526C63.9932 32.5803 62.9613 32.2523 61.9204 32.3306C61.4285 32.366 60.9492 32.5108 60.5138 32.7556C60.0785 33.0004 59.6969 33.3396 59.3939 33.7511C59.091 34.1625 58.8736 34.6371 58.7558 35.1436C58.638 35.6501 58.6225 36.1771 58.7105 36.6904C59.1135 38.8703 60.0834 39.5771 63.0097 39.5017C65.9361 39.4262 66.9202 38.0322 66.4132 35.979Z" fill="white"/>
<path d="M61.7008 38.6175C62.9093 38.4402 63.729 37.088 63.5319 35.5973C63.3347 34.1066 62.1953 33.0419 60.9868 33.2192C59.7784 33.3965 58.9587 34.7486 59.1558 36.2393C59.353 37.73 60.4924 38.7947 61.7008 38.6175Z" fill="black"/>
<path d="M65.6869 33.9304C65.209 33.1177 64.5005 32.4855 63.6629 32.124C62.8252 31.7625 61.9012 31.69 61.0223 31.9171C60.1994 32.0963 59.4632 32.5781 58.9439 33.2769C58.4247 33.9758 58.1561 34.8466 58.1859 35.735C58.1639 36.8403 58.2156 37.318 58.6337 37.2984C59.0517 37.2789 58.6935 36.3821 59.0367 35.0477C59.124 34.4243 59.3875 33.8433 59.7924 33.381C60.1973 32.9187 60.7248 32.5967 61.3058 32.4572C61.8925 32.2629 62.519 32.2463 63.1143 32.4092C63.7095 32.5721 64.2497 32.9081 64.6738 33.3791C65.7299 34.4369 65.9183 35.8309 66.434 35.8467C66.6787 35.8551 66.112 34.5422 65.6869 33.9304Z" fill="#032D26"/>
<path d="M62.6899 36.1945C62.9872 36.1052 63.1394 35.7011 63.0296 35.292C62.9198 34.8828 62.5898 34.6236 62.2924 34.7129C61.995 34.8022 61.8429 35.2062 61.9526 35.6154C62.0624 36.0245 62.3925 36.2838 62.6899 36.1945Z" fill="white"/>
<path d="M44.4524 34.8317C44.1115 34.7418 43.8031 34.5474 43.5661 34.2729C43.3135 33.8874 42.7829 34.3614 43.2141 34.8317C43.5402 35.124 43.9555 35.2809 44.3828 35.273L44.4524 34.8317Z" fill="#032D26"/>
<path d="M65.627 34.0019C65.968 33.9121 66.2763 33.7177 66.5133 33.4431C66.7659 33.0576 67.2974 33.5316 66.8652 34.0019C66.5392 34.2943 66.1239 34.4511 65.6966 34.4433L65.627 34.0019Z" fill="#032D26"/>
<path d="M47.1441 49.7397C46.8625 48.4026 48.6518 46.6836 52.0727 47.5049C55.4937 48.3262 56.3288 47.395 57.7343 48.1111C59.1398 48.8272 58.624 51.224 55.7822 51.1123C52.9404 51.0006 47.6396 52.0928 47.1441 49.7397Z" fill="#682D0C"/>
<path d="M47.9336 47.2936C47.9336 47.2936 49.2995 48.8515 52.4424 49.0173C55.5852 49.183 57.8355 48.6252 58.6523 48.047L57.1852 47.0972L48.3032 46.4984L47.9336 47.2936Z" fill="white"/>
<path d="M35.6286 76.2827L36.6682 75.5274C36.6682 75.5274 41.0305 74.1884 42.2923 79.7193L33.4961 82.8743L35.6286 76.2827Z" fill="#7ABCAF"/>
<path d="M62.027 125.22C59.6483 126.003 30.5479 135.677 29.6631 133.925C29.1803 132.971 28.074 130.528 26.6183 127.238C25.0719 123.744 23.1298 119.296 21.121 114.667L20.4729 113.174C15.2388 101.102 9.7832 88.3634 9.7832 88.3634C9.7832 88.3634 21.0873 84.4121 30.8582 81.3388C37.813 79.1489 43.9887 77.4016 44.7526 77.8397C45.6365 78.3464 49.8755 89.2669 53.9367 100.494C55.4884 104.782 57.0143 109.115 58.3152 112.93C60.6895 119.888 62.3249 125.122 62.027 125.22Z" fill="#6A897C"/>
<path d="M14.4715 103.114L42.4149 93.4219C42.4149 93.4219 36.4854 86.9724 37.6672 82.2905C38.849 77.6087 41.5638 78.2463 41.5638 78.2463L12.5791 86.8003C12.5791 86.8003 10.9999 93.9539 14.4715 103.114Z" fill="#7F9C90"/>
<path d="M25.0506 126.708L59.6828 111.533L57.3167 105.536L21.6582 122.907L25.0506 126.708Z" fill="#7F9C90"/>
<path d="M34.883 79.6059C34.2952 85.8138 38.1262 93.3389 38.1262 93.3389L13.7495 101.694C13.7495 101.694 8.54305 88.4901 13.7495 83.1734L36.6653 75.6784C36.6653 75.6784 35.4771 75.3763 34.883 79.6059Z" fill="#FEFEFE"/>
<path d="M67.9995 108.654C66.6609 110.567 64.3224 112.411 59.2706 114.483C50.9717 117.638 42.9038 121.435 35.1322 125.843C32.5828 127.324 30.1731 128.596 27.903 129.661C13.076 136.627 4.2161 135.055 1.1692 128.823C-1.3338 123.702 2.76127 113.425 5.32324 107.938C8.73714 112.102 14.0574 113.721 17.7873 114.351L16.3721 118.339C16.3721 118.339 18.8424 117.529 22.4623 116.33C31.7728 113.246 48.6893 107.588 50.7135 106.518C51.9236 105.877 53.3537 103.718 54.9379 101.303C57.0378 98.1081 58.2595 95.8091 61.0221 95.5297C67.5348 94.863 70.4233 105.191 67.9995 108.654Z" fill="#F4C990"/>
<path d="M13.3463 113.291C13.2883 113.712 8.99001 122.475 13.4996 121.448C18.0093 120.421 48.991 107.249 48.991 107.249L44.9809 108.457L39.6343 110.119L17.424 117.51L17.8019 114.349L13.3463 113.291Z" fill="#F4B07D"/>
<path d="M57.0803 13.612C53.1786 14.4196 46.5501 14.4441 35.7479 11.1937L33.8279 4.21103C33.9663 4.15795 34.138 4.09312 34.3407 4.0185C34.9411 3.79748 35.8127 3.49078 36.8933 3.14976C39.0555 2.46736 42.0488 1.64933 45.3768 1.10439C51.9503 0.0280078 59.6713 0.0434958 64.9394 4.07314L62.0777 11.3307C62.0439 11.3677 61.9883 11.4255 61.9082 11.4995C61.746 11.6493 61.4826 11.8659 61.0952 12.1106C60.3212 12.5996 59.0453 13.2053 57.0803 13.612Z" fill="#FEFEFE" stroke="black"/>
<path d="M56.3346 9.81005V11.4313C56.3346 11.6269 56.2612 11.8144 56.1304 11.9527C55.9997 12.091 55.8224 12.1687 55.6375 12.1687H54.4723C54.2874 12.1687 54.1101 12.091 53.9794 11.9527C53.8487 11.8144 53.7753 11.6269 53.7753 11.4313V9.81841C53.7753 9.62281 53.7019 9.43525 53.5711 9.29695C53.4404 9.15864 53.2631 9.08092 53.0782 9.08092H51.5486C51.3637 9.08092 51.1864 9.00325 51.0557 8.86495C50.925 8.72664 50.8516 8.53903 50.8516 8.34343V7.10404C50.8516 6.90844 50.925 6.72088 51.0557 6.58258C51.1864 6.44427 51.3637 6.36655 51.5486 6.36655H53.0739C53.2588 6.36655 53.4361 6.28883 53.5668 6.15052C53.6976 6.01221 53.771 5.82466 53.771 5.62906V4.01251C53.7709 3.91571 53.7887 3.81986 53.8236 3.73038C53.8585 3.64091 53.9098 3.5596 53.9745 3.49111C54.0391 3.42262 54.116 3.36825 54.2005 3.33118C54.285 3.2941 54.3756 3.27502 54.4671 3.27502H55.6349C55.8198 3.27502 55.9971 3.35275 56.1279 3.49105C56.2586 3.62936 56.332 3.81692 56.332 4.01251V5.6244C56.3319 5.72128 56.3498 5.81722 56.3848 5.90676C56.4198 5.99629 56.4711 6.07764 56.5359 6.14614C56.6006 6.21465 56.6775 6.269 56.7621 6.30602C56.8468 6.34304 56.9374 6.36201 57.029 6.36189H58.5578C58.6493 6.36189 58.7399 6.38098 58.8244 6.41804C58.909 6.4551 58.986 6.50943 59.0507 6.57792C59.1154 6.6464 59.1667 6.72766 59.2018 6.81713C59.2368 6.90661 59.2548 7.00253 59.2548 7.09938V8.33508C59.2548 8.53067 59.1814 8.71823 59.0507 8.85653C58.92 8.99484 58.7427 9.07256 58.5578 9.07256H57.0307C56.9392 9.07256 56.8486 9.09164 56.7641 9.12872C56.6796 9.16579 56.6029 9.22015 56.5383 9.28865C56.4736 9.35714 56.4223 9.43845 56.3874 9.52792C56.3525 9.61739 56.3344 9.71325 56.3346 9.81005Z" fill="#F04141"/>
</svg>
