<svg width="64" height="68" viewBox="0 0 64 68" fill="none" xmlns="http://www.w3.org/2000/svg">
<path d="M64 31.3257C64 48.6263 49.6727 62.6523 32 62.6523C14.3256 62.6523 0 48.6263 0 31.3257C0 14.0248 14.3256 -1.90735e-05 32 -1.90735e-05C49.6727 -1.90735e-05 64 14.0248 64 31.3257Z" fill="#FF7070"/>
<path d="M45.2394 17.5074C45.2377 17.5091 45.2378 17.5108 45.2378 17.5123C45.2241 17.6281 45.2054 17.746 45.185 17.8669C45.1731 17.9282 45.1612 17.9898 45.1493 18.0525C45.1357 18.1155 45.1221 18.1789 45.1068 18.2435C43.6186 24.7244 39.8735 24.7469 39.8735 24.7469C39.8735 24.7469 40.4212 28.0141 39.7188 29.9121C39.018 31.8102 38.5707 31.9052 38.7068 32.924C38.8429 33.9428 40.1405 39.0767 39.5623 39.5649C38.8479 40.1651 36.5349 40.2636 36.5349 40.2636C36.5349 40.2636 36.773 41.9133 36.8734 42.2855C36.9754 42.6587 36.7781 43.2008 35.7832 43.2957C34.7899 43.3899 31.7728 43.737 32.465 44.671C33.1555 45.6037 35.2593 46.5159 35.4192 47.2362C35.5808 47.9568 35.4107 48.4163 35.1403 48.5237C34.8681 48.6309 34.4055 47.8442 34.0109 49.4654C33.6164 51.0867 33.2728 53.9785 31.7949 53.8202C31.7285 53.813 31.6571 53.8032 31.5823 53.7922C31.5517 53.7872 31.5193 53.7815 31.4853 53.7759C31.4802 53.7752 31.4751 53.7742 31.4683 53.7727C31.3901 53.7597 31.3084 53.7437 31.2234 53.7268C31.22 53.7251 31.2132 53.7244 31.2081 53.7236C31.135 53.7083 31.0601 53.6921 30.9819 53.6758C30.9309 53.663 30.8782 53.6515 30.8237 53.6393C30.7778 53.628 30.7302 53.6177 30.6826 53.6065C30.6757 53.6049 30.6707 53.6032 30.6638 53.6022C30.5261 53.5694 30.3849 53.5346 30.2403 53.4985C30.0669 53.4549 29.8883 53.4091 29.7063 53.3636C29.6468 53.3483 29.5856 53.333 29.5243 53.3177C29.4614 53.3015 29.3985 53.2855 29.3338 53.2702C29.2743 53.2547 29.2131 53.2403 29.1536 53.2251C28.9614 53.1775 28.7709 53.132 28.5787 53.0884C28.5226 53.0748 28.4648 53.0618 28.4086 53.0498C28.3984 53.0475 28.3899 53.0458 28.3797 53.0435C28.327 53.0321 28.276 53.02 28.2232 53.0095C28.0702 52.9765 27.9188 52.9461 27.7691 52.9186C27.7385 52.9123 27.7062 52.9063 27.6739 52.9016C27.6467 52.897 27.6195 52.8921 27.5923 52.8875C27.5174 52.8741 27.4426 52.8625 27.3677 52.8513C27.3184 52.8438 27.2691 52.8368 27.2198 52.8302C27.1688 52.8239 27.1194 52.8175 27.0701 52.8117C26.4765 52.7441 25.9714 52.7571 25.6449 52.9169C24.4067 53.5241 24.8217 53.9106 24.2519 57.0847C24.0819 58.0404 30.2607 57.456 35.312 60.0716C38.0503 61.4901 40.3208 64.4987 42.4281 66.7496C39.1677 67.5655 35.7508 68 32.2319 68C21.2824 68 11.3346 63.7994 3.98047 56.9565C4.85807 55.5064 6.18807 54.2753 8.34975 52.9411C12.969 50.0902 13.4963 47.9293 13.4963 47.9293C13.4963 47.9293 13.4895 47.9182 13.4793 47.8972C13.4793 47.8963 13.4776 47.8955 13.4776 47.8947C13.1034 47.1709 7.11497 35.4001 10.4043 29.3644C10.4043 29.3644 7.46703 23.3771 13.9844 20.8474C13.9844 20.8474 14.3722 19.8756 15.277 18.5921C16.3859 17.0194 18.272 14.9772 21.1701 13.6764C22.9542 12.8754 25.1244 12.3548 27.7351 12.3999C27.8014 12.4006 27.8678 12.4023 27.9324 12.4038C37.1863 12.6603 44.6765 11.9609 45.2479 16.286C45.2496 16.2937 45.2496 16.3019 45.2513 16.3105C45.2973 16.6726 45.2939 17.0709 45.2394 17.5074Z" fill="#F4C990"/>
<path d="M51.7156 63.1884C48.9655 64.6452 46.0282 65.8023 42.9464 66.6165C42.477 64.7617 41.9311 62.6556 41.5484 61.3386C40.7406 58.5532 38.572 56.9366 37.3271 55.4914C36.0821 54.0478 36.1638 49.0318 36.475 48.1529C36.7862 47.2742 38.4275 46.8405 38.4275 46.8405C38.271 46.3611 37.9836 43.4097 38.0635 42.9593C38.2319 42.0042 40.1725 41.7002 40.6232 42.2098C40.8069 42.4172 41.0518 43.1718 41.0518 43.1718C41.0518 43.1718 41.1351 41.9832 41.1929 41.6832C41.295 41.1572 43.6046 40.8782 43.9397 41.3517C44.2118 41.7388 44.3632 42.3616 44.3632 42.3616C44.4431 41.579 46.035 41.5963 46.8395 42.0227C47.6423 42.4489 47.4705 45.5392 47.4705 45.5392C47.86 44.8903 49.7325 44.9285 50.1832 45.6246C50.5183 46.1417 50.9928 50.4242 51.003 52.577C51.0115 54.73 50.4485 57.4694 50.491 58.9012C50.5064 59.4373 51.0472 61.1988 51.7156 63.1884Z" fill="#F4C990"/>
<path d="M45.1085 18.2429C46.5967 11.7619 38.3922 12.6942 27.9324 12.4042C22.6907 12.2588 17.6224 15.0371 15.4437 17.1897C14.8552 23.3061 11.1714 36.7659 17.9166 39.6224C20.2501 40.6102 14.2344 47.4814 27.0736 52.8121C28.6111 52.9878 30.7285 53.7062 31.7949 53.8201C33.2729 53.9781 33.6164 51.0869 34.011 49.4655C34.4055 47.8438 34.8682 48.6312 35.1403 48.5231C35.4107 48.4157 35.5808 47.9567 35.4192 47.2361C35.2593 46.5159 33.1555 45.604 32.465 44.6705C31.7728 43.737 34.7899 43.3895 35.7832 43.2952C36.7781 43.201 36.9754 42.6582 36.8734 42.286C36.773 41.9132 36.5332 40.2639 36.5332 40.2639C36.5332 40.2639 38.8497 40.1653 39.5606 39.5653C40.1406 39.0766 38.8429 33.9427 38.7068 32.9239C38.5708 31.9046 39.0181 31.8104 39.7205 29.9124C40.4212 28.0144 39.8735 24.7465 39.8735 24.7465C39.8735 24.7465 43.6186 24.7238 45.1085 18.2429Z" fill="#F4C990"/>
<path d="M27.8111 11.5485C17.3531 11.2582 16.0656 15.4516 16.0656 15.4516C0.244998 18.8283 10.3357 44.745 13.4804 47.8967C14.1352 46.7538 18.1967 39.6279 18.5266 38.0688C18.8838 36.3726 15.6948 32.9465 16.6558 30.597C17.6167 28.2476 19.7699 28.8463 20.241 30.4989C20.7121 32.1517 20.4247 34.3377 20.4247 34.3377L21.3448 34.5174C21.3448 34.5174 21.8652 30.1404 22.9401 29.7928C24.0133 29.4453 28.8911 29.017 28.3197 23.8548C28.3197 23.8548 35.8541 22.2718 39.8747 24.7466C39.8747 24.7466 43.6198 24.7239 45.1097 18.243C46.5979 11.762 38.2709 11.8389 27.8111 11.5485Z" fill="#076754"/>
<path d="M52.9334 17.1231C51.4061 17.1231 50.168 18.3348 50.168 19.8296C50.168 19.9834 50.1816 20.1344 50.2071 20.2814L51.2854 32.7377C51.2854 33.6293 52.0235 34.3521 52.9334 34.3521C53.8433 34.3521 54.5832 33.6293 54.5832 32.7377L55.6598 20.2814C55.6853 20.1344 55.6989 19.9834 55.6989 19.8296C55.6989 18.3348 54.4607 17.1231 52.9334 17.1231Z" fill="white"/>
<path d="M52.9333 35.8131C51.6968 35.8131 50.6934 36.7951 50.6934 38.0058C50.6934 39.2169 51.6968 40.1984 52.9333 40.1984C54.1697 40.1984 55.1732 39.2169 55.1732 38.0058C55.1732 36.7951 54.1697 35.8131 52.9333 35.8131Z" fill="white"/>
<path d="M35.312 60.0716C31.4156 58.0537 26.849 57.9405 25.0428 57.5559C27.6331 65.5875 15.3161 60.8208 9.16782 52.4163C8.911 52.5883 8.63888 52.7636 8.34975 52.9411C6.18807 54.2754 4.85807 55.5064 3.98047 56.9565C11.3346 63.7994 21.2824 68 32.2319 68C35.7508 68 39.1677 67.5655 42.4281 66.7496C40.3208 64.4987 38.0503 61.4901 35.312 60.0716Z" fill="#CCCCCC"/>
</svg>
