<svg width="26" height="25" viewBox="0 0 26 25" fill="none" xmlns="http://www.w3.org/2000/svg">
<path d="M13.1982 21.4692C18.3969 21.4692 22.6113 17.2951 22.6113 12.1461C22.6113 6.99708 18.3969 2.823 13.1982 2.823C7.99954 2.823 3.78516 6.99708 3.78516 12.1461C3.78516 17.2951 7.99954 21.4692 13.1982 21.4692Z" fill="#CCCCCC"/>
<g opacity="0.44">
<path opacity="0.44" d="M3.81548 13.5597C3.81548 13.5597 3.03138 6.74564 8.76297 3.95808C13.8699 1.47431 17.9758 4.11292 18.1789 4.26779C18.382 4.42267 22.4879 7.21024 22.4879 11.7013C22.4879 16.1924 20.7758 17.8959 20.4131 18.2057C20.0504 18.5154 17.5404 21.7676 12.4335 21.4578C7.56514 21.1626 5.89019 17.7411 5.09222 16.9667C4.29426 16.1924 3.81548 13.5597 3.81548 13.5597Z" fill="#FF2222"/>
</g>
<path d="M7.64148 4.88116C7.27153 4.16933 6.82955 3.4966 6.32226 2.87329C5.82693 2.40453 4.62747 3.64186 4.18484 3.06303C3.74221 2.48419 4.95128 1.50207 6.28109 0.769509C7.6109 0.0369472 8.50476 0.0464466 8.12824 0.922294C7.75172 1.79814 6.97266 1.68144 7.43541 2.5032C7.89816 3.32496 8.53336 4.1989 8.53336 4.1989C8.53336 4.1989 8.46543 4.73598 7.64148 4.88116Z" fill="#E34F4F"/>
<path d="M12.4174 3.19705C12.4492 2.68706 12.4287 2.1752 12.3561 1.66931C12.2392 1.25179 11.1728 1.54217 11.1211 1.08099C11.0694 0.619821 12.0571 0.473608 13.0267 0.501127C13.9963 0.528645 14.4848 0.823774 13.9895 1.18246C13.4941 1.54115 13.1062 1.22422 13.088 1.82488C13.0698 2.42554 13.131 3.11064 13.131 3.11064C13.131 3.11064 12.9175 3.38399 12.4174 3.19705Z" fill="#E34F4F"/>
<path d="M17.0587 3.91434C17.4039 3.31453 17.6869 2.68143 17.9029 2.02497C18.0121 1.44993 16.5452 1.17093 16.7598 0.5826C16.9744 -0.00572678 18.2612 0.398575 19.4204 1.00493C20.5797 1.61129 20.9946 2.25747 20.1783 2.39981C19.362 2.54214 19.0814 1.92534 18.6981 2.64746C18.4314 3.16312 18.1908 3.69176 17.9775 4.23126C17.9775 4.23126 17.5531 4.43624 17.0587 3.91434Z" fill="#E34F4F"/>
<path d="M20.2266 7.18307C20.6806 6.93406 21.1079 6.64003 21.5018 6.3054C21.7959 5.98182 20.9709 5.24358 21.3388 4.95037C21.7067 4.65716 22.3649 5.40768 22.865 6.23798C23.3651 7.06828 23.3767 7.63667 22.8019 7.41463C22.227 7.19258 22.2883 6.69532 21.7643 7.00562C21.3932 7.2312 21.0338 7.47508 20.6874 7.7363C20.6874 7.7363 20.3367 7.70403 20.2266 7.18307Z" fill="#E34F4F"/>
<path d="M22.2955 11.1308C22.9958 11.2058 23.702 11.2103 24.4032 11.1441C24.9857 11.0122 24.6523 9.5527 25.2913 9.51189C25.9304 9.47109 26.0702 10.8157 25.9706 12.1252C25.8709 13.4347 25.4341 14.0762 24.9713 13.3845C24.5086 12.6927 24.9714 12.1869 24.1417 12.1262C23.312 12.0654 22.3673 12.1044 22.3673 12.1044C22.3673 12.1044 22.0071 11.795 22.2955 11.1308Z" fill="#E34F4F"/>
<path d="M21.2663 16.1353C21.7321 16.3593 22.2198 16.5358 22.7217 16.662C23.1576 16.7132 23.2964 15.6239 23.7438 15.752C24.1912 15.8801 23.9557 16.8442 23.56 17.7248C23.1643 18.6054 22.6977 18.9412 22.554 18.35C22.4102 17.7589 22.8519 17.5217 22.2953 17.2759C21.8962 17.1056 21.4889 16.9552 21.0747 16.8252C21.0747 16.8252 20.9003 16.5234 21.2663 16.1353Z" fill="#E34F4F"/>
<path d="M18.3759 19.4111C18.7183 20.0194 19.1221 20.5917 19.5812 21.1192C20.0248 21.513 21.0318 20.4027 21.4342 20.8933C21.8366 21.3839 20.8124 22.2721 19.6799 22.9477C18.5475 23.6233 17.7639 23.6393 18.0695 22.8678C18.3751 22.0963 19.0504 22.176 18.625 21.4738C18.1996 20.7717 17.6211 20.0315 17.6211 20.0315C17.6211 20.0315 17.6631 19.561 18.3759 19.4111Z" fill="#E34F4F"/>
<path d="M13.7886 20.9028C13.7667 21.3788 13.7939 21.8557 13.87 22.3262C13.9849 22.7124 14.9708 22.4258 15.0264 22.8537C15.082 23.2817 14.164 23.4327 13.2644 23.4232C12.3648 23.4137 11.9048 23.145 12.3589 22.8044C12.8131 22.4637 13.1791 22.7521 13.1867 22.1932C13.1867 21.7946 13.1666 21.3963 13.1264 20.9997C13.1264 20.9997 13.321 20.7368 13.7886 20.9028Z" fill="#E34F4F"/>
<path d="M9.2818 20.3901C8.88641 21.0515 8.55986 21.7509 8.30735 22.4777C8.17514 23.1144 9.80008 23.4494 9.5529 24.1003C9.30571 24.7513 7.88211 24.2779 6.60499 23.5823C5.32788 22.8867 4.88039 22.1587 5.7896 22.0183C6.69881 21.8779 6.99864 22.562 7.4384 21.7707C7.87815 20.9793 8.26899 20.0239 8.26899 20.0239C8.26899 20.0239 8.74241 19.8009 9.2818 20.3901Z" fill="#E34F4F"/>
<path d="M6.01294 17.4648C5.55446 17.7169 5.12303 18.0145 4.7253 18.353C4.42829 18.6804 5.26284 19.4262 4.89207 19.7223C4.52129 20.0183 3.85442 19.2611 3.3476 18.4223C2.84077 17.5834 2.82922 17.0084 3.40981 17.2323C3.99041 17.4563 3.92906 17.9591 4.45888 17.645C4.98869 17.3309 5.5463 16.905 5.5463 16.905C5.5463 16.905 5.90085 16.9381 6.01294 17.4648Z" fill="#E34F4F"/>
<path d="M3.9537 13.6711C3.23316 13.6111 2.50826 13.6237 1.79031 13.709C1.19631 13.8579 1.57385 15.3458 0.919487 15.4037C0.265122 15.4616 0.0888886 14.0867 0.158828 12.7412C0.228767 11.3956 0.660941 10.7285 1.15339 11.4269C1.64584 12.1253 1.18493 12.6538 2.03475 12.6975C2.88456 12.7411 3.85499 12.6776 3.85499 12.6776C3.85499 12.6776 4.23058 12.9822 3.9537 13.6711Z" fill="#E34F4F"/>
<path d="M5.7772 8.74904C5.12792 8.43426 4.4481 8.18565 3.74807 8.00701C3.14065 7.93299 2.94725 9.45503 2.31587 9.27284C1.6845 9.09065 2.02829 7.74697 2.58206 6.52097C3.13583 5.29497 3.78825 4.82615 3.9904 5.6536C4.19255 6.48106 3.57085 6.80846 4.34594 7.15482C5.12102 7.50117 6.04853 7.7897 6.04853 7.7897C6.04853 7.7897 6.29169 8.20816 5.7772 8.74904Z" fill="#E34F4F"/>
<g opacity="0.5">
<path opacity="0.8" d="M6.53454 13.6808C7.41871 13.6808 8.13548 12.9709 8.13548 12.0952C8.13548 11.2194 7.41871 10.5095 6.53454 10.5095C5.65036 10.5095 4.93359 11.2194 4.93359 12.0952C4.93359 12.9709 5.65036 13.6808 6.53454 13.6808Z" fill="#FFF500"/>
</g>
<g opacity="0.8">
<path opacity="0.5" d="M14.5814 18.2944C15.4656 18.2944 16.1824 17.5845 16.1824 16.7087C16.1824 15.833 15.4656 15.1231 14.5814 15.1231C13.6972 15.1231 12.9805 15.833 12.9805 16.7087C12.9805 17.5845 13.6972 18.2944 14.5814 18.2944Z" fill="#FFF500"/>
</g>
<g opacity="0.8">
<path opacity="0.5" d="M13.6526 5.91394C14.1759 5.91394 14.6001 5.49377 14.6001 4.97546C14.6001 4.45716 14.1759 4.03699 13.6526 4.03699C13.1293 4.03699 12.7051 4.45716 12.7051 4.97546C12.7051 5.49377 13.1293 5.91394 13.6526 5.91394Z" fill="#FFF500"/>
</g>
<g opacity="0.8">
<path opacity="0.5" d="M10.1585 17.7165C10.6818 17.7165 11.106 17.2963 11.106 16.778C11.106 16.2597 10.6818 15.8395 10.1585 15.8395C9.63516 15.8395 9.21094 16.2597 9.21094 16.778C9.21094 17.2963 9.63516 17.7165 10.1585 17.7165Z" fill="#FFF500"/>
</g>
<g opacity="0.8">
<path opacity="0.5" d="M19.1322 14.8993C20.0164 14.8993 20.7331 14.1894 20.7331 13.3137C20.7331 12.4379 20.0164 11.728 19.1322 11.728C18.248 11.728 17.5312 12.4379 17.5312 13.3137C17.5312 14.1894 18.248 14.8993 19.1322 14.8993Z" fill="#FFF500"/>
</g>
<g opacity="0.5">
<path opacity="0.8" d="M13.8418 13.6732C15.2938 13.6732 16.4708 12.5074 16.4708 11.0694C16.4708 9.63135 15.2938 8.46558 13.8418 8.46558C12.3899 8.46558 11.2129 9.63135 11.2129 11.0694C11.2129 12.5074 12.3899 13.6732 13.8418 13.6732Z" fill="#FDF300"/>
</g>
<g opacity="0.8">
<path opacity="0.5" d="M9.18509 9.56351C10.5677 9.56351 11.6885 8.4534 11.6885 7.084C11.6885 5.71461 10.5677 4.60449 9.18509 4.60449C7.80247 4.60449 6.68164 5.71461 6.68164 7.084C6.68164 8.4534 7.80247 9.56351 9.18509 9.56351Z" fill="#FDF300"/>
</g>
<g opacity="0.8">
<path opacity="0.5" d="M18.1264 9.24841C18.7852 9.24841 19.3192 8.71949 19.3192 8.06702C19.3192 7.41455 18.7852 6.88562 18.1264 6.88562C17.4676 6.88562 16.9336 7.41455 16.9336 8.06702C16.9336 8.71949 17.4676 9.24841 18.1264 9.24841Z" fill="#FFF500"/>
</g>
</svg>
